<svg xmlns="http://www.w3.org/2000/svg" viewBox="0 0 378.77 358.85"><defs><style>.cls-1,.cls-2,.cls-3{stroke:#fff;stroke-miterlimit:10;}.cls-2{fill:none;}.cls-3{fill:#fff;}.cls-4{fill:#8dee3f;}.cls-5{fill:#396e00;}</style></defs><title>faq-image-shadow</title><g id="Layer_2" data-name="Layer 2"><g id="Layer_1-2" data-name="Layer 1"><g id="phone"><path class="cls-1" d="M368.19,215.34,124,356.34a15,15,0,0,1-15,0l-99-57.2c-10-5.77-13.41-29.65-3.4-35.43l247.6-131.57a15,15,0,0,1,15,0L372.62,181C382.63,186.73,378.2,209.56,368.19,215.34Z"/><path class="cls-1" d="M368.25,203.17l-244.2,141a15,15,0,0,1-15,0L10,287a15,15,0,0,1,0-26L254.18,120a15,15,0,0,1,15,0l99.05,57.2A15,15,0,0,1,368.25,203.17Z"/><path class="cls-2" d="M74.48,313.15,53,300.75a5.85,5.85,0,0,1,0-10.12l4.28-2.47c1.81-1,4-1,7.84,2l21.48,12.4c1.9.25,1.9,5.88-2,8.13l-4.27,2.46A5.83,5.83,0,0,1,74.48,313.15Z"/><polygon class="cls-2" points="26.12 257.99 240.25 134.35 355.55 203.3 145.54 324.56 26.12 257.99"/><path class="cls-2" d="M319.7,170.33l-31.3-18.07a3.07,3.07,0,0,1,0-5.32l.74-.43a3.06,3.06,0,0,1,3.07,0l31.31,18.07a3.08,3.08,0,0,1,0,5.32l-.75.43A3.06,3.06,0,0,1,319.7,170.33Z"/><ellipse class="cls-3" cx="332.49" cy="174.17" rx="3.32" ry="1.92"/><ellipse class="cls-3" cx="341.57" cy="179.63" rx="3.32" ry="1.92"/></g><g id="faq"><path class="cls-4" d="M213.32,51.19a44.91,44.91,0,0,1-4.43,19L186.74,123.5l-9.91,60.44-17.2-10.34V141.76a46.36,46.36,0,0,1,4.44-19.53L188.43,69.5V32.12L159.85,49.26l-7.59,59.42-17.2-8.93v-42q0-18,15.48-27.29l47.2-28.29C208.13-4.07,230.32,4,230.32,16ZM176.4,229.83l-17.2-8.93v-30l25.44-15.26,17.2,8.94Z"/><path class="cls-5" d="M230.53,60.13a44.74,44.74,0,0,1-4.44,19l-24.68,53.3v36.75l-24.58,14.73V150.69a46.36,46.36,0,0,1,4.44-19.53l24.36-52.73V41.05L177.05,58.19V93.81l-24.79,14.87v-42q0-18,15.48-27.28l47.2-28.3q15.59-9.34,15.59,8.65ZM201.84,214.58,176.4,229.83v-30l25.44-15.25Z"/></g></g></g></svg>