<svg xmlns="http://www.w3.org/2000/svg" viewBox="0 0 766.56 101.57"><defs><style>.cls-1,.cls-2,.cls-3,.cls-4,.cls-5,.cls-6,.cls-7{fill:none;}.cls-1,.cls-2,.cls-3,.cls-4,.cls-5,.cls-6,.cls-7,.cls-8{stroke:#86ff00;stroke-miterlimit:10;}.cls-1{stroke-width:2px;}.cls-2{stroke-linecap:round;}.cls-2,.cls-3{stroke-width:1.5px;}.cls-4{stroke-width:1.2px;}.cls-6{stroke-width:5px;}.cls-7{stroke-width:2.5px;}.cls-8{stroke-width:3px;fill:#86ff00;}.cls-9{fill:#86ff00}</style></defs><title>hx-text</title><g id="Layer_2" data-name="Layer 2"><g id="Layer_1-2" data-name="Layer 1"><g id="text-based">
<path class="cls-1" d="M255.61,17.73A33.89,33.89,0,1,0,289.5,51.62a33.9,33.9,0,0,0-33.89-33.89Z"/>
<path class="cls-2" d="M288.86,67.8a37,37,0,0,0-33.25-53.18h0a36.85,36.85,0,0,0-9.51,1.24M222.6,34.93a37,37,0,0,0,44.25,51.9"/>
<path class="cls-9" d="M273.46,34.28a1.2,1.2,0,0,0-1.46-.19L251.25,46.34l-.18.14,2.32,2.31a3.89,3.89,0,0,1,2.72-1.1,3.92,3.92,0,0,1,2.83,6.66l2.32,2.32.14-.18,12.25-20.75A1.2,1.2,0,0,0,273.46,34.28Z"/>
<path class="cls-3" d="M273.46,34.28a1.2,1.2,0,0,0-1.46-.19L251.25,46.34a1.21,1.21,0,0,0-.42.42L238.58,67.51a1.2,1.2,0,0,0,1,1.81,1.21,1.21,0,0,0,.61-.16L261,56.91a1.21,1.21,0,0,0,.42-.42l12.25-20.75A1.2,1.2,0,0,0,273.46,34.28ZM256.11,55.56a3.94,3.94,0,1,1,3.94-3.94A3.93,3.93,0,0,1,256.11,55.56Z"/>
<polyline class="cls-4" points="230.01 29.29 241.12 29.29 248.96 39.58"/>
<polyline class="cls-4" points="244.49 44.78 237.28 35.71 234.83 32.68"/>
<polyline class="cls-5" points="227.22 32.68 238.78 32.68 243.34 38.43"/>
<circle class="cls-9" cx="243.34" cy="38.43" r="1.15"/>
<circle class="cls-5" cx="245.56" cy="46.35" r="1.56"/>
<circle class="cls-9" cx="249.53" cy="40.09" r="1.83"/>
<polygon class="cls-9" points="256.23 24.7 256.24 18.14 254.45 18.14 256.23 24.7"/>
<polygon class="cls-9" points="256.24 18.14 256.25 24.7 258.03 18.14 256.24 18.14"/>
<polygon class="cls-9" points="256.23 78.96 256.24 85.51 254.45 85.51 256.23 78.96"/>
<polygon class="cls-9" points="256.24 85.51 256.25 78.96 258.03 85.51 256.24 85.51"/>
<polygon class="cls-9" points="282.47 51.82 289.03 51.83 289.03 50.04 282.47 51.82"/>
<polygon class="cls-9" points="289.03 51.83 282.47 51.84 289.03 53.62 289.03 51.83"/>
<polygon class="cls-9" points="228.21 51.82 221.66 51.83 221.66 50.04 228.21 51.82"/>
<polygon class="cls-9" points="221.66 51.83 228.21 51.84 221.66 53.62 221.66 51.83"/>
<polyline class="cls-3" points="282.19 72.64 271.08 72.64 263.24 62.36"/>
<polyline class="cls-3" points="267.82 56.49 275.42 66.06 278 69.25"/>
<polyline class="cls-4" points="284.98 69.25 273.42 69.25 268.86 63.5"/>
<circle class="cls-9" cx="268.86" cy="63.5" r="1.15"/>
<circle class="cls-5" cx="266.97" cy="55.56" r="1.56"/>
<circle class="cls-9" cx="262.67" cy="61.84" r="1.83"/>
<polygon class="cls-9" points="302.88 97.6 299.75 100.35 299.75 2.85 302.88 5.6 302.88 97.6"/>
<polygon class="cls-9" points="208.7 97.83 211.83 100.58 211.83 3.08 208.7 5.83 208.7 97.83"/>
<line class="cls-6" x1="229.4" y1="78.34" x2="210.96" y2="96.78"/>
<line class="cls-6" x1="300.43" y1="7.31" x2="281.99" y2="25.75"/>
<line class="cls-7" x1="281.91" y1="72.86" x2="300.51" y2="96.73"/>
<line class="cls-7" x1="283.89" y1="69.62" x2="301.29" y2="91.95"/>
<line class="cls-7" x1="210.2" y1="10.26" x2="227.59" y2="32.58"/>
<line class="cls-7" x1="210.83" y1="6.15" x2="229.18" y2="29.7"/>
<rect class="cls-9" x="211.14" y="97.77" width="1.38" height="1.38" transform="translate(131.67 -120.95) rotate(45)"/>
<rect class="cls-9" x="299.01" y="4.74" width="1.63" height="1.63" transform="translate(91.74 -210.38) rotate(45)"/>
<path class="cls-8" d="M63.85,55.26H8.17V99.05H1.5V4.8H8.17V48.59H63.85V4.8h6.53V99.05H63.85Z"/>
<path class="cls-8" d="M109.38,75.13,98.21,99.05H91L135.33,3.64l41.91,95.41h-7.11L159.55,75.13ZM135,19.74,112.42,68.6h44.23Z"/>
<path class="cls-8" d="M342.24,99.05,342.1,4.8h33.64A32.87,32.87,0,0,1,391,8.43a29.5,29.5,0,0,1,11.16,9.71,23.5,23.5,0,0,1,0,26.61A29.35,29.35,0,0,1,391,54.54a33,33,0,0,1-15.3,3.62h-27V99.05Zm6.53-47.7h27a27.07,27.07,0,0,0,12-2.69,22.69,22.69,0,0,0,8.78-7.25,16.74,16.74,0,0,0,3.26-9.93,17,17,0,0,0-3.26-10.08,22.87,22.87,0,0,0-8.78-7.25,27.2,27.2,0,0,0-12-2.68H348.62Z"/>
<path class="cls-8" d="M428.37,99.05V4.8h6.53V92.53h52.92v6.52Z"/>
<path class="cls-8" d="M545.68,100.07a46.46,46.46,0,0,1-23.93-6.46A48,48,0,0,1,498,51.93a48,48,0,0,1,23.78-41.69,47.6,47.6,0,0,1,47.85,0,48,48,0,0,1,23.78,41.69A48,48,0,0,1,569.6,93.61,46.45,46.45,0,0,1,545.68,100.07Zm0-89.61A39.66,39.66,0,0,0,525.09,16a41.89,41.89,0,0,0-15,15.08,40.24,40.24,0,0,0-5.58,20.81,40.21,40.21,0,0,0,5.58,20.8,41.81,41.81,0,0,0,15,15.08,40.72,40.72,0,0,0,41.18,0A41.36,41.36,0,0,0,581.2,72.73a40.73,40.73,0,0,0,5.51-20.8,40.77,40.77,0,0,0-5.51-20.81A41.44,41.44,0,0,0,566.27,16,39.71,39.71,0,0,0,545.68,10.46Z"/>
<path class="cls-8" d="M670.08,99.05,630.93,51.49h11.6q10.72,0,17.4-2.75a23.22,23.22,0,0,0,8.56-7,16.63,16.63,0,0,0,3.62-10.36,17.11,17.11,0,0,0-3-9.65,22.5,22.5,0,0,0-8.7-7.46,28.13,28.13,0,0,0-13-2.9H620.93V99.05H614.4V4.8h32.92a36.4,36.4,0,0,1,12.47,2.1,30.78,30.78,0,0,1,10.15,6,26.83,26.83,0,0,1,6.45,8.56,23.3,23.3,0,0,1-2.54,24.14,27.64,27.64,0,0,1-11.31,9.06,29.76,29.76,0,0,1-8.77,2.54,76.56,76.56,0,0,1-9.06.51l34.07,41.32Z"/>
<path class="cls-8" d="M704,99.05V4.8h61v6.67H710.54V48.59H753v6.67H710.54v37h54.52v6.81Z"/></g></g></g></svg>
