<svg xmlns="http://www.w3.org/2000/svg" viewBox="0 0 1037.34 123.52"><title>hx-text-logo-black</title><g id="Layer_2" data-name="Layer 2"><g id="Layer_3" data-name="Layer 3"><path d="M730.29,123.32c-11.63.1-22.27-1.94-32.22-6.82-18.53-9.1-29.59-23.91-33-44.29a65.14,65.14,0,0,1,1.78-30.14c5.47-17.88,17.26-30,34.5-36.89A76.78,76.78,0,0,1,737.09.36a71.35,71.35,0,0,1,24.67,6.35c18.56,8.87,29.61,23.47,32.82,43.83a65.17,65.17,0,0,1-2.43,31.54C786,100,773.78,112,756.26,118.73A69.71,69.71,0,0,1,730.29,123.32Zm33.91-60.6a42.41,42.41,0,0,0-1-11C760,39.39,752.67,30.89,740.41,27a35.07,35.07,0,0,0-15-1.26C712,27.45,702.67,34.46,697.89,47a39.9,39.9,0,0,0,.79,30.73A31.4,31.4,0,0,0,719.3,96.12a35.31,35.31,0,0,0,13.94,1.26c13.07-1.3,22.34-8,27.78-19.89A35.54,35.54,0,0,0,764.2,62.72Z"/><path d="M895,70.13a7.74,7.74,0,0,0,1.68,3.42q13.42,21.38,26.87,42.74c.59.94,1.16,1.89,1.67,2.87.29.55,0,1-.6,1a16.33,16.33,0,0,1-1.85,0H894.93c-.62,0-1.24,0-1.85,0a1.67,1.67,0,0,1-1.54-.84c-.5-.85-1-1.71-1.49-2.57Q878.88,96.92,867.69,77c-2-3.49-1.31-3.18-5.41-3.2-1.61,0-3.22,0-4.83.07a1.27,1.27,0,0,0-1.35,1.4c0,1,0,2,0,3q0,19.13,0,38.24c0,3.91.14,3.74-3.55,3.74H831c-.74,0-1.48,0-2.22,0a1.3,1.3,0,0,1-1.34-1.44c0-.74,0-1.48,0-2.22V7c0-3.84,0-3.86,3.89-3.86,14,0,28-.05,42,0,7.83,0,15.56.84,23,3.43a41.14,41.14,0,0,1,10.25,5.12,29.54,29.54,0,0,1,12.7,21.34,38.13,38.13,0,0,1-.35,12.56,30,30,0,0,1-12.92,19.2,38.35,38.35,0,0,1-8.23,4.23C896.79,69.4,895.91,69.78,895,70.13ZM855.93,39.37h0c0,4.09,0,8.17,0,12.25,0,1.43.33,1.72,1.79,1.73,5,0,9.91.11,14.85-.09a26.72,26.72,0,0,0,11.12-2.59c5-2.51,7.2-6.65,7-12.07s-3.06-9.11-8.44-11A28.29,28.29,0,0,0,873.21,26c-5-.07-9.9-.05-14.85,0-2.27,0-2.4.15-2.42,2.62C855.9,32.19,855.93,35.78,855.93,39.37Z"/><path d="M105.16,62v54.22c0,4.44.21,4-4,4.06q-10.59,0-21.18,0c-.74,0-1.48,0-2.22,0-1.41-.08-1.63-.31-1.7-1.84,0-1,0-2,0-3v-39c0-.87,0-1.74,0-2.6-.06-2.4-.1-2.48-2.56-2.48q-20.8,0-41.6,0c-.37,0-.74,0-1.11,0-1.24.08-1.59.36-1.65,1.5s0,2.23,0,3.34v39.38c0,1,0,2,0,3-.07,1.39-.33,1.68-1.84,1.69-6.19,0-12.38,0-18.57,0-2.36,0-4.71,0-7.06,0-1.17,0-1.49-.38-1.56-1.58,0-.87,0-1.74,0-2.6V6.46C.05,3.21.05,3.18,3.32,3.17c7.43,0,14.86,0,22.29,0a20.61,20.61,0,0,1,2.22.1A1.2,1.2,0,0,1,29,4.42c.06,1.12.06,2.23.06,3.35v36c0,3.93-.22,3.75,3.51,3.75H72.73c.49,0,1,0,1.48,0,1.57-.07,1.77-.24,1.83-1.67,0-1,0-2,0-3q0-17.64,0-35.28c0-4.61-.52-4.45,4.39-4.44h20.42c1,0,2,0,3,.08a1.17,1.17,0,0,1,1.22,1.15c.08,1.11.08,2.22.08,3.34Z"/><path d="M256.33,119.86a4.35,4.35,0,0,1-2.63.37q-13.19,0-26.36,0-.93,0-1.86,0a1.62,1.62,0,0,1-1.42-1c-.37-.78-.67-1.6-1-2.4-2.33-5.73-4.72-11.43-6.95-17.2a3.24,3.24,0,0,0-3.54-2.42c-12.25.08-24.51,0-36.76,0-2.1,0-4.2,0-6.31,0a1.41,1.41,0,0,0-1.42,1c-.39,1-.83,2.06-1.23,3.1-2.18,5.66-4.37,11.31-6.5,17a2.51,2.51,0,0,1-2.66,2c-9.41-.06-18.82,0-28.22-.06a4.63,4.63,0,0,1-1.13-.31,15.09,15.09,0,0,1,1.53-4.19Q143.55,84,157.24,52.35,167.1,29.54,177,6.72c1.72-4,1.2-3.54,5.38-3.56,6.81,0,13.62,0,20.42,0,.75,0,1.49,0,2.23,0a2.34,2.34,0,0,1,2.5,1.75c.7,1.72,1.46,3.41,2.19,5.12q22.62,52.88,45.22,105.75C255.49,117.11,256.31,118.38,256.33,119.86ZM192.41,35.5c-1.12.36-1.16,1.31-1.46,2.08q-6.49,16.94-13,33.87a14.36,14.36,0,0,0-.67,2.11.67.67,0,0,0,.55.81,10.13,10.13,0,0,0,1.83.17q12.21,0,24.44,0a14.48,14.48,0,0,0,1.47-.08c.77-.09,1.13-.55.93-1.23s-.56-1.64-.86-2.45L193.5,38.22C193.16,37.3,192.77,36.4,192.41,35.5Z"/><path d="M953.24,61.78V8.68c0-.74,0-1.48,0-2.22,0-3.25,0-3.29,3.31-3.29q37.14,0,74.27,0a20.61,20.61,0,0,1,2.22.1,1.26,1.26,0,0,1,1.18,1.21c.06.61.06,1.23.06,1.85V24.15a16.48,16.48,0,0,1-.09,1.85,1.24,1.24,0,0,1-1.25,1.13c-1.11.07-2.22.07-3.34.07H985.42c-4.43,0-4.18-.28-4.18,4.29s0,9.4,0,14.11c0,.74,0,1.48.07,2.22a1.34,1.34,0,0,0,1.45,1.35c1.11,0,2.23,0,3.34,0H1027c4.9,0,4.4-.16,4.42,4.42,0,5,0,9.9,0,14.85,0,.74,0,1.49-.08,2.22a1.18,1.18,0,0,1-1.21,1.15c-1.11,0-2.23,0-3.34,0H985.89c-1.11,0-2.22,0-3.34,0a1.16,1.16,0,0,0-1.22,1.12,14.69,14.69,0,0,0-.09,1.48V93.14a12.55,12.55,0,0,0,.12,1.84,1.14,1.14,0,0,0,1,1c1.11.1,2.22.12,3.33.12q23.22,0,46.42,0c6,0,5.18-.51,5.22,5.07,0,5.2,0,10.4,0,15.6,0,.74,0,1.48-.06,2.22a1.17,1.17,0,0,1-1.16,1.19c-.86.06-1.73.07-2.59.07H957c-4,0-3.79.29-3.79-3.87Q953.23,89.07,953.24,61.78Z"/><path d="M445.78,61.63q0-27.09,0-54.18c0-4.51-.25-4.29,4.18-4.29,13.23,0,26.47-.05,39.71,0A79.63,79.63,0,0,1,511.34,5.8,46.17,46.17,0,0,1,519.63,9c9.24,4.65,14.9,12.06,16.78,22.23A42.29,42.29,0,0,1,536,48.87a30.61,30.61,0,0,1-13,18.77A48.6,48.6,0,0,1,503.79,75a91.62,91.62,0,0,1-15.51,1.28c-3.34,0-6.68,0-10,0-3.52,0-3.37,0-3.38,3.55v5.56q0,15.78,0,31.55c0,3.38,0,3.33-3.23,3.33H449c-.61,0-1.23,0-1.85,0a1.28,1.28,0,0,1-1.34-1.42c0-1.11,0-2.22,0-3.33Q445.78,88.54,445.78,61.63Zm29.14-22h0c0,4.07,0,8.15,0,12.23,0,1.45.31,1.76,1.76,1.77a156.56,156.56,0,0,0,15.92-.25,21.86,21.86,0,0,0,9.47-2.93,11.34,11.34,0,0,0,5.77-9.38,23.07,23.07,0,0,0-.09-4.07,10.31,10.31,0,0,0-5.27-8,18.83,18.83,0,0,0-6.6-2.31c-6.5-1.13-13.06-.56-19.6-.64a1.23,1.23,0,0,0-1.34,1.4C474.91,31.48,474.92,35.56,474.92,39.64Z"/><path d="M378.81,32.46c.51-.46,1.08-.93,1.6-1.45,6.66-6.65,13.28-13.34,20-19.94a5.82,5.82,0,0,0,2-4.88c-.08-1.3-.38-2.69.29-4,1.73-.14,2.44,1.4,3.58,2.21,1.31.92,2.46,2.08,3.74,3.05A3.64,3.64,0,0,1,411.61,11c-.06.61,0,1.24,0,1.86v99.92a4.56,4.56,0,0,0,0,.74,5,5,0,0,1-2.28,5.07c-2,1.45-3.83,3.13-5.75,4.69a.69.69,0,0,1-1.1-.48c-.05-1.48-.09-3-.09-4.45a3,3,0,0,0-1-2.31c-.72-.68-1.4-1.4-2.1-2.1L381.2,95.82c-.61-.61-1.23-1.22-1.86-1.82a1.32,1.32,0,0,0-2,0l-1.7,1.44a42.23,42.23,0,0,1-54-.22c-2.66-2.25-2.37-2.28-5,.33q-9.33,9.33-18.64,18.66c-3.05,3.06-2.54,2.18-2.61,6.1a7.8,7.8,0,0,1-.25,3.11c-.77.33-1.1-.15-1.44-.44-2.08-1.77-4.11-3.58-6.2-5.33a2.94,2.94,0,0,1-1.18-2.57c0-.86,0-1.73,0-2.6q0-49.77,0-99.55c0-4.82-.63-3.48,3.21-6.82a19.34,19.34,0,0,1,1.72-1.42c1.19-.83,2-2.19,3.53-2.55,1.19,1.38.54,3,.56,4.53A5.63,5.63,0,0,0,297.05,11c6.79,6.69,13.51,13.46,20.25,20.2.26.27.54.52.8.78a1.09,1.09,0,0,0,1.63.13c.67-.56,1.3-1.15,2-1.7a42.23,42.23,0,0,1,54.34.15C376.87,31.21,377.54,32.18,378.81,32.46ZM327.24,44a.92.92,0,0,0,.21,1.13c2.74,3.14,4.53,7.1,8.15,9.5a1.11,1.11,0,0,1,.24.28,1.8,1.8,0,0,1-.46,2.31,1.66,1.66,0,0,1-2.31-.24,2,2,0,0,1-.48-1c0-1.51-1-2.49-1.81-3.57-1.11-1.48-2.25-2.95-3.38-4.42-3.53-4.61-3.53-4.58-9.16-4.36a2.66,2.66,0,0,0-2.64,1.58,35.15,35.15,0,0,0-2.77,6.87c-.48,1.92-.94,3.85-1.25,5.79-.26,1.65,0,1.89,1.56,2.35s3.34.91,5,1.32a12.19,12.19,0,0,1,3.36,1.12c-.4.28-.57.49-.79.55q-2.69.75-5.37,1.44c-4.3,1.1-4.32,1.11-3.41,5.46.1.49.2,1,.31,1.46a37.56,37.56,0,0,0,31.25,28.5c2.06.31,2.7.27,3.11-2a38.91,38.91,0,0,1,1-3.95c.38-1.28.32-2.72,1.4-3.79a9.78,9.78,0,0,1,1.1,3.12c.42,1.68.84,3.37,1.31,5s.73,1.84,2.32,1.61a37.54,37.54,0,0,0,18.79-8.24c.37-.31.76-.65.44-1.36-.53,0-1.13-.15-1.73-.16-2.23,0-4.46,0-6.69,0-3.14,0-2.64.54-5.24-2.54-2.44-2.91-4.23-6.41-7.63-8.47a1.36,1.36,0,0,1-.43-1.68A1.68,1.68,0,0,1,353,76.45a1.54,1.54,0,0,1,1.5.9c.41.88.36,1.9,1,2.73,2,2.38,3.88,4.82,5.79,7.25a2.62,2.62,0,0,0,2.19,1.15c3.84,0,7.68,0,11.52-.06,1.8,0,2.52-1.16,3-2.94l-10.19-.1c-4.6-.06-3.41.45-6.14-2.93-1-1.24-1.79-2.69-3.51-3.16-.49-.14-.69-.68-.79-1.17a1.81,1.81,0,0,1,1.24-2,1.49,1.49,0,0,1,1.87.81c.5,2,1.94,3.41,3,5a3.9,3.9,0,0,0,4.18,1.7c.74-.09,1.16-.69.72-1.22-2.68-3.21-4.54-7.1-8.07-9.59a1.65,1.65,0,0,1-.57-2,1.54,1.54,0,0,1,1.71-1.11A1.42,1.42,0,0,1,363,71.06c0,1.66,1.12,2.7,2,3.87,1,1.39,2.09,2.76,3.14,4.14,4,5.23,4,5.22,10.49,4.69a2.5,2.5,0,0,0,2.1-1.27A35,35,0,0,0,386,67.19c.14-1.5,0-1.77-1.39-2.16-1.78-.51-3.6-.9-5.39-1.39A3.94,3.94,0,0,1,377,62.58c.54-.19.88-.33,1.23-.43,1.43-.39,2.85-.83,4.3-1.15,4.18-.92,3.86-1,3.11-5a36.75,36.75,0,0,0-15.19-23.79,36.38,36.38,0,0,0-17.11-6.65c-1.24-.16-1.61,0-2,1.11-.24.7-.34,1.45-.59,2.15-.63,1.83-.68,3.85-1.72,5.63-1-1-1-2.31-1.34-3.48-2-6.83-.19-5.93-7.84-4.62-.48.08-1,.23-1.44.36a37.15,37.15,0,0,0-15.06,8.48c-.41.37-1.12.74-.75,1.48.25.52.86.35,1.32.35,2.48,0,5,.13,7.42-.05,2.24-.16,3.6.76,5,2.45,2.39,2.94,4.19,6.43,7.62,8.47a1.45,1.45,0,0,1,.38,1.7,1.6,1.6,0,0,1-1.65,1.22,1.56,1.56,0,0,1-1.48-.93c-.39-.89-.4-1.91-1.07-2.73-2-2.49-4-5-6-7.54a2.3,2.3,0,0,0-1.93-.92l-10.77.06c-1.75,0-2.58,1-3,2.57a3.44,3.44,0,0,0,2.26.45c2.85,0,5.7.11,8.54.06a4,4,0,0,1,3.82,1.73c1.27,1.79,2.45,3.72,4.66,4.61.26.11.46.57.54.91a1.6,1.6,0,0,1-.76,1.9,1.7,1.7,0,0,1-2.28-.52,2.08,2.08,0,0,1-.34-.66c-.42-2.21-2.17-3.55-3.39-5.23a1.92,1.92,0,0,0-1.19-.78C329.26,43.67,328.14,43.39,327.24,44ZM402.4,63V35.93c0-1,0-2,0-3,0-.46.07-1-.43-1.3s-.91.23-1.21.53c-3.95,3.91-7.84,7.89-11.83,11.76a2.81,2.81,0,0,0-.81,3.56A40.31,40.31,0,0,1,391,63.8a42.37,42.37,0,0,1-3,14.8,2.12,2.12,0,0,0,.43,2.65c4.13,4.08,8.22,8.2,12.35,12.29.31.31.69.84,1.22.42a1.36,1.36,0,0,0,.38-.94c0-1,0-2,0-3Zm-107-.31q0,12.25,0,24.5c0,1,0,2,.11,3a.52.52,0,0,0,.82.4A12.69,12.69,0,0,0,298,89.1c3.07-3,6-6.21,9.22-9.14a4,4,0,0,0,1.2-4.85,38.94,38.94,0,0,1-1.51-17.94A37.43,37.43,0,0,1,308.56,50a3,3,0,0,0-.94-3.59c-3.38-3.25-6.67-6.62-10-9.94a13.07,13.07,0,0,0-1.11-1,.67.67,0,0,0-1,.54c-.05,1-.07,2-.07,3Q295.4,50.81,295.4,62.68Z"/><path d="M567.34,62V7.38c0-4.35-.24-4.23,4.27-4.22H592.4c.74,0,1.48,0,2.22,0,1.8.09,2,.35,2.1,2.26,0,1,0,2,0,3V91.19c0,4.89-.34,4.46,4.33,4.46h38.23c4.27,0,4.09-.3,4.09,4,0,5.57,0,11.14,0,16.71,0,.61,0,1.23,0,1.85-.09,1.73-.31,2-1.91,2-.49,0-1,0-1.49,0h-69c-.62,0-1.24,0-1.86,0-1.38-.08-1.64-.35-1.71-1.84,0-1.12,0-2.23,0-3.34Z"/><path d="M330.52,84.42A2.33,2.33,0,0,1,328,81.68a9.36,9.36,0,0,1,1-2q6.41-10.86,12.8-21.72a7.64,7.64,0,0,1,2.77-2.9q11-6.47,22-13c.53-.31,1.09-.58,1.65-.84a2,2,0,0,1,2.08.3,2,2,0,0,1,.8,2.29,6.42,6.42,0,0,1-.74,1.68C366,53,361.55,60.42,357.19,67.88a7.09,7.09,0,0,1-2.6,2.56c-7.46,4.38-14.89,8.8-22.34,13.18A15.76,15.76,0,0,1,330.52,84.42Zm19.3-16.18a5.45,5.45,0,0,1-5.61-6.37,9.31,9.31,0,0,1,.9-2.4,1,1,0,0,0-.25-1.32c-.66-.47-1.12,0-1.46.57l-.19.32q-6.42,10.84-12.81,21.71a5.06,5.06,0,0,0-.41,1,.36.36,0,0,0,.07.31c.2.11.48.29.64.23a11.46,11.46,0,0,0,1.65-.81l20.1-11.87c.53-.32,1.06-.64,1.56-1,.28-.21.56-.5.35-.91a.92.92,0,0,0-1.17-.61C352.05,67.55,351,68.32,349.82,68.24Zm3.4-5.54a3.59,3.59,0,0,0-3.82-3.59,3.73,3.73,0,0,0-3.59,3.51,3.89,3.89,0,0,0,3.7,3.83A3.69,3.69,0,0,0,353.22,62.7Z"/></g></g></svg>