<svg xmlns="http://www.w3.org/2000/svg" viewBox="0 0 99.56 104.49"><defs><style>.cls-1,.cls-2,.cls-4{fill:rgb(7,249,250);}.cls-1,.cls-2,.cls-3,.cls-5{stroke:rgb(7,249,250);stroke-miterlimit:10;}.cls-2{stroke-width:0.5px;}.cls-3,.cls-5{fill:none;}.cls-3{stroke-width:4px;}.cls-5{stroke-width:1.5px;}</style></defs><title>hx-logo-white</title><g id="Layer_2" data-name="Layer 2"><g id="Layer_2-2" data-name="Layer 2"><polygon class="cls-1" points="99.06 100.27 95.79 103.15 95.79 1.11 99.06 3.98 99.06 100.27"/><polygon class="cls-1" points="0.5 100.51 3.77 103.39 3.77 1.35 0.5 4.23 0.5 100.51"/><path class="cls-2" d="M25.53,28.3,2.83,5.59,2.55,9.94l20.79,20.8C24,29.89,24.77,29.08,25.53,28.3Z"/><path class="cls-2" d="M27.3,26.65l-3.09.2,1.39,1.39C26.15,27.69,26.72,27.16,27.3,26.65Z"/><path class="cls-2" d="M73.63,28.26,75,26.85l-3.13-.2C72.5,27.17,73.08,27.7,73.63,28.26Z"/><path class="cls-2" d="M75.89,30.77,96.71,9.94l-.28-4.35L73.7,28.33C74.46,29.1,75.2,29.92,75.89,30.77Z"/><path class="cls-2" d="M23.5,73.77,2.61,94.66,2.89,99,25.71,76.19C24.93,75.42,24.2,74.61,23.5,73.77Z"/><path class="cls-2" d="M25.77,76.25l-1.49,1.5,3.37.21C27,77.42,26.38,76.85,25.77,76.25Z"/><path class="cls-2" d="M73.53,76.16,96.37,99l.28-4.34L75.73,73.74A31.57,31.57,0,0,1,73.53,76.16Z"/><path class="cls-2" d="M71.56,78,75,77.75l-1.52-1.52C72.85,76.83,72.21,77.41,71.56,78Z"/><path class="cls-3" d="M49.6,18.27A33.89,33.89,0,1,0,83.49,52.16,33.89,33.89,0,0,0,49.6,18.27Z"/><polygon class="cls-4" points="49.78 29.27 52.9 16.96 46.65 16.96 49.78 29.27"/><polygon class="cls-4" points="49.78 74.29 46.65 86.6 52.9 86.6 49.78 74.29"/><polygon class="cls-4" points="72.6 52.09 84.91 55.22 84.91 48.97 72.6 52.09"/><polygon class="cls-4" points="27.58 52.09 15.27 48.97 15.27 55.22 27.58 52.09"/><polyline class="cls-5" points="24.2 31 36.95 30.92 44.36 40.25"/><polyline class="cls-5" points="28.56 35.09 34.75 35.11 39.56 41.28"/><polyline class="cls-5" points="19.11 35.07 28.96 35.07 37.44 46.14"/><circle class="cls-4" cx="37.35" cy="46.2" r="1.56"/><circle class="cls-4" cx="39.31" cy="40.81" r="1.56"/><circle class="cls-4" cx="44.48" cy="40.48" r="1.56"/><polyline class="cls-5" points="73.46 74.68 60.7 74.76 53.29 65.43"/><polyline class="cls-5" points="69.09 70.59 62.9 70.57 58.09 64.4"/><polyline class="cls-5" points="78.54 70.61 68.69 70.61 60.22 59.54"/><circle class="cls-4" cx="60.3" cy="59.49" r="1.56"/><circle class="cls-4" cx="58.34" cy="64.87" r="1.56"/><circle class="cls-4" cx="53.18" cy="65.2" r="1.56"/><path class="cls-4" d="M67.63,34.75a1.21,1.21,0,0,0-1.47-.18L45.42,46.81a.86.86,0,0,0-.18.14l2.31,2.32a3.93,3.93,0,0,1,6.67,2.83,3.9,3.9,0,0,1-1.11,2.72l2.32,2.32a1.24,1.24,0,0,0,.14-.18L67.81,36.22A1.21,1.21,0,0,0,67.63,34.75Z"/><path class="cls-5" d="M67.63,34.75a1.21,1.21,0,0,0-1.47-.18L45.42,46.81a1.26,1.26,0,0,0-.43.43L32.75,68a1.2,1.2,0,0,0,1,1.82,1.23,1.23,0,0,0,.62-.17L55.14,57.38a1.24,1.24,0,0,0,.43-.42L67.81,36.22A1.21,1.21,0,0,0,67.63,34.75ZM50.28,56a3.94,3.94,0,1,1,3.94-3.93A3.94,3.94,0,0,1,50.28,56Z"/></g></g></svg>