<svg xmlns="http://www.w3.org/2000/svg" viewBox="0 0 763.56 97.73"><defs><style>.cls-1,.cls-2,.cls-4,.cls-5,.cls-6,.cls-7{fill:none;stroke:#86ff00;stroke-miterlimit:10;}.cls-1{stroke-width:2px;}.cls-2{stroke-linecap:round;}.cls-2,.cls-4{stroke-width:1.5px;}.cls-3{fill:#86ff00;}.cls-5{stroke-width:1.2px;}.cls-7{stroke-width:5px;}</style></defs><title>text-based-green</title><g id="Layer_2" data-name="Layer 2"><g id="Layer_1-2" data-name="Layer 1"><g id="text-based-green"><path class="cls-1" d="M254.11,14.89A33.89,33.89,0,1,0,288,48.78a33.89,33.89,0,0,0-33.89-33.89Z"/><path class="cls-2" d="M287.36,65a37,37,0,0,0-33.25-53.18h0A37.28,37.28,0,0,0,244.6,13M221.1,32.08A37,37,0,0,0,265.35,84"/><path class="cls-3" d="M272,31.43a1.21,1.21,0,0,0-1.46-.19L249.75,43.49l-.18.14L251.89,46a3.86,3.86,0,0,1,2.72-1.11,3.93,3.93,0,0,1,3.94,3.94,3.87,3.87,0,0,1-1.11,2.72l2.32,2.32.14-.18L272.15,32.9A1.21,1.21,0,0,0,272,31.43Z"/><path class="cls-4" d="M272,31.43a1.21,1.21,0,0,0-1.46-.19L249.75,43.49a1.16,1.16,0,0,0-.42.43L237.08,64.66a1.2,1.2,0,0,0,.19,1.46,1.17,1.17,0,0,0,.85.36,1.22,1.22,0,0,0,.61-.17l20.75-12.25a1.21,1.21,0,0,0,.42-.42L272.15,32.9A1.21,1.21,0,0,0,272,31.43ZM254.61,52.71a3.94,3.94,0,1,1,3.94-3.93A3.93,3.93,0,0,1,254.61,52.71Z"/><polyline class="cls-5" points="228.51 26.44 239.62 26.44 247.46 36.73"/><polyline class="cls-5" points="242.99 41.94 235.78 32.86 233.33 29.83"/><polyline class="cls-6" points="225.72 29.83 237.28 29.83 241.84 35.58"/><circle class="cls-3" cx="241.84" cy="35.58" r="1.15"/><circle class="cls-6" cx="244.06" cy="43.5" r="1.56"/><circle class="cls-3" cx="248.03" cy="37.24" r="1.83"/><polygon class="cls-3" points="254.73 21.85 254.74 15.3 252.95 15.3 254.73 21.85"/><polygon class="cls-3" points="254.74 15.3 254.75 21.85 256.53 15.3 254.74 15.3"/><polygon class="cls-3" points="254.73 76.11 254.74 82.67 252.95 82.67 254.73 76.11"/><polygon class="cls-3" points="254.74 82.67 254.75 76.11 256.53 82.67 254.74 82.67"/><polygon class="cls-3" points="280.97 48.97 287.53 48.98 287.53 47.19 280.97 48.97"/><polygon class="cls-3" points="287.53 48.98 280.97 48.99 287.53 50.77 287.53 48.98"/><polygon class="cls-3" points="226.71 48.97 220.16 48.98 220.16 47.19 226.71 48.97"/><polygon class="cls-3" points="220.16 48.98 226.71 48.99 220.16 50.77 220.16 48.98"/><polyline class="cls-4" points="280.69 69.8 269.58 69.8 261.74 59.51"/><polyline class="cls-4" points="266.32 53.64 273.92 63.21 276.5 66.4"/><polyline class="cls-5" points="283.48 66.4 271.92 66.4 267.36 60.65"/><circle class="cls-3" cx="267.36" cy="60.65" r="1.15"/><circle class="cls-6" cx="265.47" cy="52.71" r="1.56"/><circle class="cls-3" cx="261.17" cy="58.99" r="1.83"/><polygon class="cls-3" points="301.38 94.75 298.25 97.5 298.25 0 301.38 2.75 301.38 94.75"/><polygon class="cls-3" points="207.2 94.98 210.33 97.73 210.33 0.23 207.2 2.98 207.2 94.98"/><line class="cls-7" x1="227.9" y1="75.49" x2="209.46" y2="93.93"/><line class="cls-7" x1="298.93" y1="4.46" x2="280.49" y2="22.9"/><line class="cls-4" x1="280.41" y1="70.01" x2="299.01" y2="93.89"/><line class="cls-4" x1="282.39" y1="66.77" x2="299.79" y2="89.1"/><line class="cls-4" x1="208.7" y1="7.41" x2="226.09" y2="29.74"/><line class="cls-4" x1="209.33" y1="3.3" x2="227.68" y2="26.85"/><rect class="cls-3" x="209.64" y="94.93" width="1.38" height="1.38" transform="translate(129.21 -120.72) rotate(45)"/><rect class="cls-3" x="297.51" y="1.89" width="1.63" height="1.63" transform="translate(89.29 -210.16) rotate(45)"/><path class="cls-3" d="M62.35,52.41H6.67V96.2H0V2H6.67V45.74H62.35V2h6.53V96.2H62.35Z"/><path class="cls-3" d="M107.88,72.28,96.71,96.2H89.46L133.83.79,175.74,96.2h-7.11L158.05,72.28Zm25.66-55.39L110.92,65.75h44.23Z"/><path class="cls-3" d="M340.74,96.2,340.6,2h33.64a32.9,32.9,0,0,1,15.3,3.63,29.59,29.59,0,0,1,11.16,9.71,23.5,23.5,0,0,1,0,26.61,29.35,29.35,0,0,1-11.16,9.79,32.89,32.89,0,0,1-15.3,3.62h-27V96.2Zm6.53-47.7h27a27.07,27.07,0,0,0,12-2.68,22.87,22.87,0,0,0,8.78-7.25,17,17,0,0,0,0-20,22.78,22.78,0,0,0-8.78-7.25,27.07,27.07,0,0,0-12-2.69H347.12Z"/><path class="cls-3" d="M426.87,96.2V2h6.53V89.68h52.92V96.2Z"/><path class="cls-3" d="M544.18,97.22a46.55,46.55,0,0,1-23.93-6.45,48.07,48.07,0,0,1-23.78-41.69A48.07,48.07,0,0,1,520.25,7.39a47.6,47.6,0,0,1,47.85,0,48.07,48.07,0,0,1,23.78,41.69A48.07,48.07,0,0,1,568.1,90.77,46.54,46.54,0,0,1,544.18,97.22Zm0-89.61a39.66,39.66,0,0,0-20.59,5.58,41.89,41.89,0,0,0-15,15.08A40.24,40.24,0,0,0,503,49.08a40.24,40.24,0,0,0,5.58,20.81,41.89,41.89,0,0,0,15,15.08,40.78,40.78,0,0,0,41.18,0A41.44,41.44,0,0,0,579.7,69.89a40.77,40.77,0,0,0,5.51-20.81,40.77,40.77,0,0,0-5.51-20.81,41.44,41.44,0,0,0-14.93-15.08A39.71,39.71,0,0,0,544.18,7.61Z"/><path class="cls-3" d="M668.58,96.2,629.43,48.64H641q10.72,0,17.4-2.75a23.29,23.29,0,0,0,8.56-7,16.66,16.66,0,0,0,3.62-10.37,17.08,17.08,0,0,0-3-9.64,22.44,22.44,0,0,0-8.7-7.47,28.25,28.25,0,0,0-13-2.9H619.43V96.2H612.9V2h32.92a36.4,36.4,0,0,1,12.47,2.11,30.59,30.59,0,0,1,10.15,6,26.83,26.83,0,0,1,6.45,8.56,23.3,23.3,0,0,1-2.54,24.14A27.56,27.56,0,0,1,661,51.83a29.76,29.76,0,0,1-8.77,2.54,76.56,76.56,0,0,1-9.06.51L677.28,96.2Z"/><path class="cls-3" d="M702.51,96.2V2h61V8.62H709V45.74h42.48v6.67H709v37h54.52V96.2Z"/></g></g></g></svg>