<svg xmlns="http://www.w3.org/2000/svg" viewBox="0 0 94.17 97.73">
<defs>
<style>.cls-1,.cls-2,.cls-4,.cls-5,.cls-6,.cls-7{fill:none;stroke:#ffffff;stroke-miterlimit:10;}.cls-1{stroke-width:2px;}.cls-2{stroke-linecap:round;}.cls-2,.cls-4{stroke-width:1.5px;}.cls-3{fill:#ffffff;}.cls-5{stroke-width:1.2px;}.cls-7{stroke-width:5px;}</style></defs><title>logo-green</title><g id="Layer_2" data-name="Layer 2"><g id="Layer_1-2" data-name="Layer 1"><g id="logo-green"><path class="cls-1" d="M46.91,14.89A33.89,33.89,0,1,0,80.8,48.78,33.89,33.89,0,0,0,46.91,14.89Z"/><path class="cls-2" d="M80.15,65A37,37,0,0,0,46.91,11.78h0A37.22,37.22,0,0,0,37.4,13M13.9,32.08A37,37,0,0,0,58.15,84"/><path class="cls-3" d="M64.76,31.43a1.22,1.22,0,0,0-1.47-.19L42.55,43.49a1.24,1.24,0,0,0-.18.14L44.68,46a3.9,3.9,0,0,1,2.73-1.11,3.92,3.92,0,0,1,2.83,6.66l2.32,2.32.14-.18L64.94,32.9A1.19,1.19,0,0,0,64.76,31.43Z"/><path class="cls-4" d="M64.76,31.43a1.22,1.22,0,0,0-1.47-.19L42.55,43.49a1.18,1.18,0,0,0-.43.43L29.88,64.66a1.21,1.21,0,0,0,1,1.82,1.22,1.22,0,0,0,.61-.17L52.27,54.06a1.24,1.24,0,0,0,.43-.42L64.94,32.9A1.19,1.19,0,0,0,64.76,31.43ZM47.41,52.71a3.94,3.94,0,1,1,3.94-3.93A3.93,3.93,0,0,1,47.41,52.71Z"/><polyline class="cls-5" points="21.3 26.44 32.42 26.44 40.25 36.73"/><polyline class="cls-5" points="35.79 41.94 28.58 32.86 26.13 29.83"/><polyline class="cls-6" points="18.51 29.83 30.08 29.83 34.64 35.58"/><circle class="cls-3" cx="34.64" cy="35.58" r="1.15"/><circle class="cls-6" cx="36.86" cy="43.5" r="1.56"/><circle class="cls-3" cx="40.83" cy="37.24" r="1.83"/><polygon class="cls-3" points="47.53 21.85 47.54 15.3 45.74 15.3 47.53 21.85"/><polygon class="cls-3" points="47.54 15.3 47.55 21.85 49.33 15.3 47.54 15.3"/><polygon class="cls-3" points="47.53 76.11 47.54 82.67 45.74 82.67 47.53 76.11"/><polygon class="cls-3" points="47.54 82.67 47.55 76.11 49.33 82.67 47.54 82.67"/><polygon class="cls-3" points="73.77 48.97 80.33 48.98 80.33 47.19 73.77 48.97"/><polygon class="cls-3" points="80.33 48.98 73.77 48.99 80.33 50.77 80.33 48.98"/><polygon class="cls-3" points="19.51 48.97 12.95 48.98 12.96 47.19 19.51 48.97"/><polygon class="cls-3" points="12.95 48.98 19.51 48.99 12.96 50.77 12.95 48.98"/><polyline class="cls-4" points="73.49 69.8 62.37 69.8 54.54 59.51"/><polyline class="cls-4" points="59.11 53.64 66.71 63.21 69.3 66.4"/><polyline class="cls-5" points="76.28 66.4 64.72 66.4 60.15 60.65"/><circle class="cls-3" cx="60.15" cy="60.65" r="1.15"/><circle class="cls-6" cx="58.27" cy="52.71" r="1.56"/><circle class="cls-3" cx="53.96" cy="58.99" r="1.83"/><polygon class="cls-3" points="94.17 94.75 91.05 97.5 91.05 0 94.17 2.75 94.17 94.75"/><polygon class="cls-3" points="0 94.98 3.13 97.73 3.13 0.23 0 2.98 0 94.98"/><line class="cls-7" x1="20.69" y1="75.49" x2="2.26" y2="93.93"/><line class="cls-7" x1="91.73" y1="4.46" x2="73.29" y2="22.9"/><line class="cls-4" x1="73.2" y1="70.01" x2="91.81" y2="93.89"/><line class="cls-4" x1="75.19" y1="66.77" x2="92.58" y2="89.1"/><line class="cls-4" x1="1.5" y1="7.41" x2="18.89" y2="29.74"/><line class="cls-4" x1="2.13" y1="3.3" x2="20.48" y2="26.85"/><rect class="cls-3" x="2.43" y="94.93" width="1.38" height="1.38" transform="translate(68.53 25.8) rotate(45)"/><rect class="cls-3" x="90.31" y="1.89" width="1.63" height="1.63" transform="translate(28.6 -63.64) rotate(45)"/></g></g></g></svg>