<svg xmlns="http://www.w3.org/2000/svg" viewBox="0 0 789.94 144.06"><defs><style>.cls-1,.cls-2,.cls-3,.cls-4,.cls-5,.cls-6{fill:none;stroke:#000;stroke-miterlimit:10;}.cls-1{stroke-width:2px;}.cls-2{stroke-linecap:round;}.cls-2,.cls-3{stroke-width:1.5px;}.cls-4{stroke-width:1.2px;}.cls-6{stroke-width:5px;}.cls-7{font-size:145px;font-family:Kiona-Regular, Kiona;}.cls-8{letter-spacing:-0.06em;}.cls-9{letter-spacing:0em;}</style></defs><title>text-based</title><g id="Layer_2" data-name="Layer 2"><g id="Layer_1-2" data-name="Layer 1"><g id="text-based"><path class="cls-1" d="M261.46,33.74a33.89,33.89,0,1,0,33.89,33.89,33.89,33.89,0,0,0-33.89-33.89Z"/><path class="cls-2" d="M294.7,83.81a37,37,0,0,0-33.24-53.18h0a36.92,36.92,0,0,0-9.52,1.24M228.45,50.93a37,37,0,0,0,44.25,51.91"/><path d="M279.31,50.28a1.21,1.21,0,0,0-1.47-.18L257.1,62.34a.86.86,0,0,0-.18.14l2.31,2.32a3.93,3.93,0,0,1,5.56,5.56l2.31,2.31a.86.86,0,0,0,.14-.18l12.25-20.74A1.22,1.22,0,0,0,279.31,50.28Z"/><path class="cls-3" d="M279.31,50.28a1.21,1.21,0,0,0-1.47-.18L257.1,62.34a1.26,1.26,0,0,0-.43.43L244.42,83.51a1.22,1.22,0,0,0,.19,1.47,1.2,1.2,0,0,0,.85.35,1.16,1.16,0,0,0,.62-.17l20.74-12.24a1.24,1.24,0,0,0,.42-.43l12.25-20.74A1.22,1.22,0,0,0,279.31,50.28ZM262,71.57a3.94,3.94,0,1,1,3.93-3.94A3.94,3.94,0,0,1,262,71.57Z"/><polyline class="cls-4" points="235.85 45.29 246.97 45.29 254.8 55.58"/><polyline class="cls-4" points="250.33 60.79 243.12 51.71 240.67 48.69"/><polyline class="cls-5" points="233.06 48.69 244.62 48.69 249.19 54.44"/><circle cx="249.19" cy="54.44" r="1.15"/><circle class="cls-5" cx="251.41" cy="62.35" r="1.56"/><circle cx="255.38" cy="56.1" r="1.83"/><polygon points="262.07 40.7 262.08 34.15 260.29 34.15 262.07 40.7"/><polygon points="262.08 34.15 262.09 40.7 263.87 34.15 262.08 34.15"/><polygon points="262.07 94.97 262.08 101.52 260.29 101.52 262.07 94.97"/><polygon points="262.08 101.52 262.09 94.97 263.87 101.52 262.08 101.52"/><polygon points="288.32 67.83 294.87 67.83 294.87 66.04 288.32 67.83"/><polygon points="294.87 67.83 288.32 67.84 294.87 69.63 294.87 67.83"/><polygon points="234.06 67.83 227.5 67.83 227.5 66.04 234.06 67.83"/><polygon points="227.5 67.83 234.06 67.84 227.5 69.63 227.5 67.83"/><polyline class="cls-3" points="288.04 88.65 276.92 88.65 269.09 78.36"/><polyline class="cls-3" points="273.66 72.5 281.26 82.07 283.85 85.26"/><polyline class="cls-4" points="290.83 85.26 279.26 85.26 274.7 79.51"/><circle cx="274.7" cy="79.51" r="1.15"/><circle class="cls-5" cx="272.82" cy="71.57" r="1.56"/><circle cx="268.51" cy="77.85" r="1.83"/><polygon points="308.72 113.6 305.6 116.35 305.6 18.85 308.72 21.6 308.72 113.6"/><polygon points="214.55 113.83 217.67 116.58 217.67 19.09 214.55 21.84 214.55 113.83"/><line class="cls-6" x1="235.24" y1="94.35" x2="216.8" y2="112.79"/><line class="cls-6" x1="306.27" y1="23.32" x2="287.83" y2="41.76"/><line class="cls-3" x1="287.75" y1="88.86" x2="306.36" y2="112.74"/><line class="cls-3" x1="289.73" y1="85.63" x2="307.13" y2="107.95"/><line class="cls-3" x1="216.04" y1="26.26" x2="233.44" y2="48.59"/><line class="cls-3" x1="216.68" y1="22.16" x2="235.03" y2="45.71"/><text class="cls-7" transform="translate(0 115.06)"><tspan xml:space="preserve">HA   P</tspan><tspan class="cls-8" x="427.01" y="0">L</tspan><tspan class="cls-9" x="502.56" y="0">O</tspan><tspan x="613.05" y="0">RE</tspan></text></g></g></g></svg>