<svg xmlns="http://www.w3.org/2000/svg" viewBox="0 0 94.17 97.73"><defs><style>.cls-1{fill:#fff;}</style></defs><title>hx-logo-old-white</title><g id="Layer_2" data-name="Layer 2"><g id="Layer_2-2" data-name="Layer 2"><path class="cls-1" d="M46.91,83.67A34.89,34.89,0,1,1,81.8,48.78,34.93,34.93,0,0,1,46.91,83.67Zm0-67.78A32.89,32.89,0,1,0,79.8,48.78,32.93,32.93,0,0,0,46.91,15.89Z"/><path class="cls-1" d="M46.91,86.47A37.76,37.76,0,0,1,9.19,48.75a37.37,37.37,0,0,1,4-17,.75.75,0,1,1,1.34.68,35.77,35.77,0,0,0-3.88,16.33A36.26,36.26,0,0,0,57.92,83.27a.75.75,0,1,1,.46,1.43A37.65,37.65,0,0,1,46.91,86.47ZM80.15,65.71a.8.8,0,0,1-.33-.08.75.75,0,0,1-.34-1,35.83,35.83,0,0,0,3.65-15.88,36.25,36.25,0,0,0-45.54-35,.76.76,0,0,1-.92-.54.74.74,0,0,1,.54-.91,37.75,37.75,0,0,1,43.62,53A.77.77,0,0,1,80.15,65.71Z"/><path class="cls-1" d="M64.76,31.43a1.22,1.22,0,0,0-1.47-.19L42.55,43.49a1.24,1.24,0,0,0-.18.14L44.68,46a3.9,3.9,0,0,1,2.73-1.11,3.92,3.92,0,0,1,2.83,6.66l2.32,2.32.14-.18L64.94,32.9A1.19,1.19,0,0,0,64.76,31.43Z"/><path class="cls-1" d="M30.92,67.23a2,2,0,0,1-1.69-3L41.48,43.54a2,2,0,0,1,.69-.7L62.91,30.6a2,2,0,0,1,2.38.3h0a2,2,0,0,1,.3,2.38L53.34,54a2,2,0,0,1-.69.69L31.91,67A2,2,0,0,1,30.92,67.23Zm33-35.4a.53.53,0,0,0-.24.06L42.93,44.14a.49.49,0,0,0-.16.16L30.52,65a.46.46,0,0,0,.63.63L51.89,53.42a.49.49,0,0,0,.16-.16L64.3,32.52a.45.45,0,0,0-.07-.56h0A.45.45,0,0,0,63.91,31.83ZM47.41,53.46a4.69,4.69,0,1,1,4.69-4.68A4.69,4.69,0,0,1,47.41,53.46Zm0-7.87a3.19,3.19,0,1,0,3.19,3.19A3.19,3.19,0,0,0,47.41,45.59Z"/><polygon class="cls-1" points="39.78 37.09 32.12 27.04 21.3 27.04 21.3 25.84 32.72 25.84 40.73 36.37 39.78 37.09"/><polygon class="cls-1" points="35.32 42.31 25.66 30.21 26.59 29.45 29.04 32.48 36.26 41.56 35.32 42.31"/><polygon class="cls-1" points="34.25 35.89 29.84 30.33 18.51 30.33 18.51 29.33 30.32 29.33 35.03 35.27 34.25 35.89"/><circle class="cls-1" cx="34.64" cy="35.58" r="1.15"/><path class="cls-1" d="M36.86,45.56a2.06,2.06,0,1,1,2.06-2.06A2.06,2.06,0,0,1,36.86,45.56Zm0-3.12a1.06,1.06,0,1,0,1.06,1.06A1.05,1.05,0,0,0,36.86,42.44Z"/><circle class="cls-1" cx="40.83" cy="37.24" r="1.83"/><polygon class="cls-1" points="47.53 21.85 47.54 15.3 45.74 15.3 47.53 21.85"/><polygon class="cls-1" points="47.54 15.3 47.55 21.85 49.33 15.3 47.54 15.3"/><polygon class="cls-1" points="47.53 76.11 47.54 82.67 45.74 82.67 47.53 76.11"/><polygon class="cls-1" points="47.54 82.67 47.55 76.11 49.33 82.67 47.54 82.67"/><polygon class="cls-1" points="73.77 48.97 80.33 48.98 80.33 47.19 73.77 48.97"/><polygon class="cls-1" points="80.33 48.98 73.77 48.99 80.33 50.77 80.33 48.98"/><polygon class="cls-1" points="19.51 48.97 12.95 48.98 12.96 47.19 19.51 48.97"/><polygon class="cls-1" points="12.95 48.98 19.51 48.99 12.96 50.77 12.95 48.98"/><polygon class="cls-1" points="73.49 70.55 62 70.55 53.94 59.96 55.14 59.05 62.74 69.05 73.49 69.05 73.49 70.55"/><polygon class="cls-1" points="68.72 66.87 66.13 63.68 58.53 54.11 59.7 53.17 69.88 65.93 68.72 66.87"/><polygon class="cls-1" points="76.28 67 64.43 67 59.68 61.03 60.62 60.28 65.01 65.8 76.28 65.8 76.28 67"/><circle class="cls-1" cx="60.15" cy="60.65" r="1.15"/><path class="cls-1" d="M58.27,54.78a2.07,2.07,0,1,1,2.06-2.07A2.07,2.07,0,0,1,58.27,54.78Zm0-3.13a1.07,1.07,0,1,0,1.06,1.06A1.07,1.07,0,0,0,58.27,51.65Z"/><circle class="cls-1" cx="53.96" cy="58.99" r="1.83"/><polygon class="cls-1" points="94.17 94.75 91.05 97.5 91.05 0 94.17 2.75 94.17 94.75"/><polygon class="cls-1" points="0 94.98 3.13 97.73 3.13 0.23 0 2.98 0 94.98"/><rect class="cls-1" x="-1.56" y="82.21" width="26.08" height="5" transform="translate(-56.54 32.93) rotate(-45)"/><rect class="cls-1" x="69.47" y="11.18" width="26.08" height="5" transform="translate(14.49 62.35) rotate(-45)"/><rect class="cls-1" x="81.76" y="66.81" width="1.5" height="30.27" transform="translate(-32.94 68.02) rotate(-37.92)"/><rect class="cls-1" x="83.13" y="63.79" width="1.5" height="28.3" transform="translate(-30.19 68.02) rotate(-37.93)"/><rect class="cls-1" x="9.44" y="4.42" width="1.5" height="28.3" transform="translate(-9.26 10.19) rotate(-37.92)"/><rect class="cls-1" x="10.56" y="0.15" width="1.5" height="29.85" transform="translate(-6.88 10.13) rotate(-37.92)"/><rect class="cls-1" x="2.43" y="94.93" width="1.38" height="1.38" transform="translate(68.53 25.8) rotate(45)"/><rect class="cls-1" x="90.31" y="1.89" width="1.63" height="1.63" transform="translate(28.6 -63.64) rotate(45)"/></g></g></svg>