<svg xmlns="http://www.w3.org/2000/svg" viewBox="0 0 156.55 194.17"><defs><style>.cls-1{fill:#cedfe7;}.cls-2{fill:#7b8c9c;}.cls-3{fill:#abbecd;}.cls-4,.cls-5{fill:#f1f2f2;}.cls-5{stroke:#fff;stroke-linecap:round;stroke-miterlimit:10;stroke-width:6px;}</style></defs><title>silver-trophy</title><g id="Layer_2" data-name="Layer 2"><g id="Layer_1-2" data-name="Layer 1"><g id="silver-trophy"><rect class="cls-1" x="0.05" y="17" width="156.33" height="8"/><path class="cls-1" d="M156.5,17h-11c.95,6,3,24.52-8.17,41.83-3.56,5.52-10.6,16.43-24.5,20.17-15.94,4.29-29.58-3.91-33.95-7v-.88l-.61.45-.6-.45v.88c-4.37,3-18,11.24-34,7-13.89-3.74-20.94-14.65-24.5-20.17C8,41.52,10.1,23,11.05,17H.05c-.3,9.87.23,37,18.89,56.89,3.5,3.72,9,9.44,18.08,12.53,18.9,6.41,36.73-4.23,41.25-7.19,4.53,3,22.36,13.6,41.26,7.19,9.07-3.09,14.58-8.81,18.07-12.53C156.27,54,156.8,26.87,156.5,17Z"/><path class="cls-2" d="M156.06,30l-9.35,4.17a59.17,59.17,0,0,1-9.38,24.66c-4,5.92-11.06,16.56-24.5,20.17-15.94,4.29-29.58-3.91-33.95-7v-.88l-.61.45-.6-.45v.88c-4.37,3-18,11.24-34,7-13.93-3.75-21.25-15.16-24.5-20.17a54.08,54.08,0,0,1-7.08-16.35l-7.25,5A57.38,57.38,0,0,0,18.94,73.89c3,3.18,8.93,9.42,18.08,12.53,18.9,6.41,36.73-4.23,41.25-7.19,4.53,3,22.36,13.6,41.26,7.19,8.88-3,14.33-8.63,18.07-12.53C152.41,58.45,155.35,39.08,156.06,30Z"/><rect class="cls-2" x="75.46" y="100.96" width="6.13" height="13.63"/><path class="cls-1" d="M28.38,3.33A165.37,165.37,0,0,0,35.55,61c8.31,26.55,18.58,34.79,22.66,37.67,3.55,2.49,10.72,7.4,20.5,7.16,9.15-.21,15.67-4.8,19.17-7.33,4.18-3,14.65-11.62,23-37.83A161.53,161.53,0,0,0,128.1,3.36Z"/><path class="cls-3" d="M45.21,82.21A91.47,91.47,0,0,0,87.46,55,91.84,91.84,0,0,0,109.34,4.21l18.12,5.25a164.9,164.9,0,0,1-7,51.21c-8.34,27.42-18.92,35.68-21.87,37.83C95,101.1,88.16,106,78.71,105.83s-16.22-5.12-20.12-8A46,46,0,0,1,45.21,82.21Z"/><path class="cls-2" d="M28.71,12.33l99.38-.25c-.08-2.87-.17-5.75-.25-8.62L28.59,3.08Z"/><rect class="cls-1" x="25.38" width="106.17" height="6.83" rx="2.9" ry="2.9"/><path class="cls-1" d="M84.44,108.27H72.61c-.77,4.32-1.47,8.85-2.08,13.56-.71,5.45-1.22,10.68-1.59,15.67H88.11c-.31-4.94-.79-10.18-1.5-15.67Q85.68,114.69,84.44,108.27Z"/><path class="cls-3" d="M58.8,142.92c-.34-2.3,9.75-6.47,19-6.67,10.42-.23,21.12,4.55,20.75,6.92C97.87,147.5,59.44,147.27,58.8,142.92Z"/><rect class="cls-2" x="39.21" y="139.83" width="78.75" height="37.17"/><rect class="cls-1" x="45.8" y="144.83" width="63.08" height="29.17"/><rect class="cls-2" x="56.38" y="153.58" width="43.83" height="11.25"/><polygon class="cls-1" points="39.21 177 117.96 177 127.13 185 29.63 185 39.21 177"/><rect class="cls-2" x="29.63" y="185" width="97.5" height="9.17"/><circle class="cls-4" cx="45.65" cy="3.52" r="3.19"/><path class="cls-5" d="M46.21,18.33a105.46,105.46,0,0,0,6.5,37.5"/></g></g></g></svg>