<svg xmlns="http://www.w3.org/2000/svg" viewBox="0 0 199.25 227.7"><defs><style>.cls-1{fill:#005eb3;}.cls-2{fill:#0072d9;}.cls-3{fill:#ffd34d;}.cls-4,.cls-5{fill:#f2ba49;}.cls-5{font-size:36.15px;font-family:CocogooseNarrowTrial-Regular, Cocogoose Narrow Trial;}</style></defs><title>IITBHU-medal</title><g id="Layer_2" data-name="Layer 2"><g id="Layer_1-2" data-name="Layer 1"><g id="IITBHU-medal"><rect class="cls-1" x="44.41" width="110.42" height="35.69"/><rect class="cls-2" x="61.31" y="55.6" width="156.63" height="50.56" transform="translate(1.87 164.9) rotate(-61.46)"/><rect class="cls-2" x="-18.69" y="55.6" width="156.63" height="50.56" transform="translate(17.06 171.9) rotate(-118.54)"/><circle class="cls-3" cx="99.63" cy="154.83" r="67.28"/><path class="cls-4" d="M99.63,212.22A57.39,57.39,0,1,1,157,154.83,57.45,57.45,0,0,1,99.63,212.22Zm0-110.32a52.94,52.94,0,1,0,52.93,52.93A53,53,0,0,0,99.63,101.9Z"/><polygon class="cls-4" points="153.28 217.05 153.28 210.2 149.49 210.2 149.49 217.05 142.64 217.05 142.64 220.85 149.49 220.85 149.49 227.7 153.28 227.7 153.28 220.85 160.13 220.85 160.13 217.05 153.28 217.05"/><polygon class="cls-3" points="26.09 108.63 26.09 103.21 23.09 103.21 23.09 108.63 17.67 108.63 17.67 111.63 23.09 111.63 23.09 117.05 26.09 117.05 26.09 111.63 31.51 111.63 31.51 108.63 26.09 108.63"/><path class="cls-4" d="M21.49,147.41a3.88,3.88,0,1,1-3.88-3.88A3.88,3.88,0,0,1,21.49,147.41Z"/><circle class="cls-3" cx="30.96" cy="194.24" r="4.44"/><path class="cls-4" d="M46.47,210.2a5.93,5.93,0,1,1-5.92-5.92A5.93,5.93,0,0,1,46.47,210.2Z"/><circle class="cls-3" cx="187.01" cy="155.69" r="7.18"/><text class="cls-5" transform="translate(77.61 145.15)">IIT<tspan x="-16.26" y="39.38">BHU</tspan></text><text class="cls-5" transform="translate(77.61 145.15)">IIT<tspan x="-16.26" y="39.38">BHU</tspan></text></g></g></g></svg>