<svg xmlns="http://www.w3.org/2000/svg" viewBox="0 0 378.77 241.39"><defs><style>.cls-1,.cls-10{fill:#231f20;}.cls-1,.cls-2,.cls-3{stroke:#fff;}.cls-1,.cls-10,.cls-2,.cls-3,.cls-7,.cls-8,.cls-9{stroke-miterlimit:10;}.cls-2,.cls-9{fill:none;}.cls-3,.cls-4{fill:#fff;}.cls-5,.cls-7,.cls-8{fill:#57a300;}.cls-6{fill:#86ff00;}.cls-7,.cls-8{stroke:#57a300;}.cls-7,.cls-9{stroke-width:3px;}.cls-10,.cls-8{stroke-width:4px;}.cls-10,.cls-9{stroke:#86ff00;}</style></defs><title>timeline-image</title><g id="Layer_2" data-name="Layer 2"><g id="Layer_1-2" data-name="Layer 1"><g id="phone"><path class="cls-1" d="M368.19,97.88,124,238.88a15,15,0,0,1-15,0l-99-57.2c-10-5.77-13.41-29.65-3.4-35.43L254.12,14.68a15,15,0,0,1,15,0L372.62,63.5C382.63,69.27,378.2,92.1,368.19,97.88Z"/><path class="cls-1" d="M368.25,85.71l-244.2,141a15,15,0,0,1-15,0L10,169.52a15,15,0,0,1,0-26l244.19-141a15,15,0,0,1,15,0l99.05,57.2A15,15,0,0,1,368.25,85.71Z"/><path class="cls-1" d="M74.48,195.69,53,183.29a5.85,5.85,0,0,1,0-10.12l4.28-2.47c1.81-1,4-1,7.84,2L86.6,185.1c1.9.25,1.9,5.88-2,8.13l-4.27,2.46A5.83,5.83,0,0,1,74.48,195.69Z"/><polygon class="cls-2" points="26.12 140.53 240.25 16.89 355.55 85.84 145.54 207.1 26.12 140.53"/><path class="cls-1" d="M319.7,52.87,288.4,34.8a3.07,3.07,0,0,1,0-5.32l.74-.43a3.06,3.06,0,0,1,3.07,0l31.31,18.08a3.07,3.07,0,0,1,0,5.31l-.75.43A3.06,3.06,0,0,1,319.7,52.87Z"/><ellipse class="cls-3" cx="333.6" cy="56.2" rx="4.22" ry="2.43"/><ellipse class="cls-3" cx="342.03" cy="61.06" rx="4.22" ry="2.43"/><polygon class="cls-2" points="26.12 157.41 29.41 164.5 38.39 159.31 26.12 157.41"/><polygon class="cls-2" points="104.59 211.29 97.34 207.1 104.59 202.92 111.84 207.1 104.59 211.29"/></g><ellipse class="cls-4" cx="94.49" cy="147.47" rx="1.01" ry="1.75" transform="translate(-55.21 238.4) rotate(-88.63)"/><ellipse class="cls-4" cx="102.43" cy="143.14" rx="1.01" ry="1.75" transform="translate(-43.12 242.11) rotate(-88.63)"/><ellipse class="cls-4" cx="110.37" cy="138.8" rx="1.01" ry="1.75" transform="translate(-31.03 245.82) rotate(-88.63)"/><ellipse class="cls-4" cx="118.32" cy="134.47" rx="1.01" ry="1.75" transform="translate(-18.95 249.52) rotate(-88.63)"/><ellipse class="cls-4" cx="126.26" cy="130.13" rx="1.01" ry="1.75" transform="translate(-6.86 253.23) rotate(-88.63)"/><ellipse class="cls-4" cx="134.2" cy="125.79" rx="1.01" ry="1.75" transform="translate(5.23 256.94) rotate(-88.63)"/><ellipse class="cls-4" cx="142.15" cy="121.46" rx="1.01" ry="1.75" transform="translate(17.32 260.65) rotate(-88.63)"/><ellipse class="cls-4" cx="150.09" cy="117.12" rx="1.01" ry="1.75" transform="translate(29.4 264.36) rotate(-88.63)"/><ellipse class="cls-4" cx="158.03" cy="112.79" rx="1.01" ry="1.75" transform="translate(41.49 268.07) rotate(-88.63)"/><ellipse class="cls-4" cx="165.98" cy="108.45" rx="1.01" ry="1.75" transform="translate(53.58 271.78) rotate(-88.63)"/><ellipse class="cls-4" cx="173.92" cy="104.11" rx="1.01" ry="1.75" transform="translate(65.67 275.49) rotate(-88.63)"/><ellipse class="cls-4" cx="181.86" cy="99.78" rx="1.01" ry="1.75" transform="translate(77.75 279.2) rotate(-88.63)"/><ellipse class="cls-4" cx="189.81" cy="95.44" rx="1.01" ry="1.75" transform="translate(89.84 282.91) rotate(-88.63)"/><ellipse class="cls-4" cx="197.75" cy="91.11" rx="1.01" ry="1.75" transform="translate(101.93 286.62) rotate(-88.63)"/><ellipse class="cls-4" cx="205.69" cy="86.77" rx="1.01" ry="1.75" transform="translate(114.02 290.32) rotate(-88.63)"/><ellipse class="cls-4" cx="213.64" cy="82.43" rx="1.01" ry="1.75" transform="translate(126.1 294.03) rotate(-88.63)"/><ellipse class="cls-4" cx="221.58" cy="78.1" rx="1.01" ry="1.75" transform="translate(138.19 297.74) rotate(-88.63)"/><ellipse class="cls-4" cx="229.52" cy="73.76" rx="1.01" ry="1.75" transform="translate(150.28 301.45) rotate(-88.63)"/><ellipse class="cls-4" cx="237.47" cy="69.43" rx="1.01" ry="1.75" transform="translate(162.37 305.16) rotate(-88.63)"/><ellipse class="cls-4" cx="245.41" cy="65.09" rx="1.01" ry="1.75" transform="translate(174.46 308.87) rotate(-88.63)"/><ellipse class="cls-4" cx="253.35" cy="60.75" rx="1.01" ry="1.75" transform="translate(186.54 312.58) rotate(-88.63)"/><ellipse class="cls-4" cx="261.3" cy="56.42" rx="1.01" ry="1.75" transform="translate(198.63 316.29) rotate(-88.63)"/><ellipse class="cls-4" cx="101.28" cy="151.62" rx="1.01" ry="1.75" transform="translate(-52.72 249.24) rotate(-88.63)"/><ellipse class="cls-4" cx="109.23" cy="147.28" rx="1.01" ry="1.75" transform="translate(-40.63 252.95) rotate(-88.63)"/><ellipse class="cls-4" cx="117.17" cy="142.95" rx="1.01" ry="1.75" transform="translate(-28.54 256.66) rotate(-88.63)"/><ellipse class="cls-4" cx="125.11" cy="138.61" rx="1.01" ry="1.75" transform="translate(-16.46 260.37) rotate(-88.63)"/><ellipse class="cls-4" cx="133.06" cy="134.27" rx="1.01" ry="1.75" transform="translate(-4.37 264.07) rotate(-88.63)"/><ellipse class="cls-4" cx="141" cy="129.94" rx="1.01" ry="1.75" transform="translate(7.72 267.78) rotate(-88.63)"/><ellipse class="cls-4" cx="148.94" cy="125.6" rx="1.01" ry="1.75" transform="translate(19.81 271.49) rotate(-88.63)"/><ellipse class="cls-4" cx="156.89" cy="121.27" rx="1.01" ry="1.75" transform="translate(31.89 275.2) rotate(-88.63)"/><ellipse class="cls-4" cx="164.83" cy="116.93" rx="1.01" ry="1.75" transform="translate(43.98 278.91) rotate(-88.63)"/><ellipse class="cls-4" cx="172.77" cy="112.59" rx="1.01" ry="1.75" transform="translate(56.07 282.62) rotate(-88.63)"/><ellipse class="cls-4" cx="180.72" cy="108.26" rx="1.01" ry="1.75" transform="translate(68.16 286.33) rotate(-88.63)"/><ellipse class="cls-4" cx="188.66" cy="103.92" rx="1.01" ry="1.75" transform="translate(80.24 290.04) rotate(-88.63)"/><ellipse class="cls-4" cx="196.6" cy="99.59" rx="1.01" ry="1.75" transform="translate(92.33 293.75) rotate(-88.63)"/><ellipse class="cls-4" cx="204.55" cy="95.25" rx="1.01" ry="1.75" transform="translate(104.42 297.46) rotate(-88.63)"/><ellipse class="cls-4" cx="212.49" cy="90.92" rx="1.01" ry="1.75" transform="translate(116.51 301.17) rotate(-88.63)"/><ellipse class="cls-4" cx="220.43" cy="86.58" rx="1.01" ry="1.75" transform="translate(128.59 304.87) rotate(-88.63)"/><ellipse class="cls-4" cx="228.38" cy="82.24" rx="1.01" ry="1.75" transform="translate(140.68 308.58) rotate(-88.63)"/><ellipse class="cls-4" cx="236.32" cy="77.91" rx="1.01" ry="1.75" transform="translate(152.77 312.29) rotate(-88.63)"/><ellipse class="cls-4" cx="244.26" cy="73.57" rx="1.01" ry="1.75" transform="translate(164.86 316) rotate(-88.63)"/><ellipse class="cls-4" cx="252.21" cy="69.24" rx="1.01" ry="1.75" transform="translate(176.95 319.71) rotate(-88.63)"/><ellipse class="cls-4" cx="260.15" cy="64.9" rx="1.01" ry="1.75" transform="translate(189.03 323.42) rotate(-88.63)"/><ellipse class="cls-4" cx="268.09" cy="60.56" rx="1.01" ry="1.75" transform="translate(201.12 327.13) rotate(-88.63)"/><path class="cls-5" d="M179.1,85.33c-.74-2.61,4.75-9.67,4.06-12.1-1.48-5.18-2.95-10.36-4.45-15.54a22.75,22.75,0,0,0-1-2.75c-2-4.74-4.16-9.46-6.16-14.2-1.6-3.79-8.87-9.09-9.47-12.81-1.39-8.48,6.34-12.57,11.34-14.91s10.91-.37,17.3,5.7a39.7,39.7,0,0,1,12,22.34,24.07,24.07,0,0,1-1.43,13.76,28.46,28.46,0,0,1-5.51,9,51.68,51.68,0,0,0-5.13,4.38c-1.61,4-3.36,7.9-5.05,11.84C185.52,80.22,179.25,85,179.1,85.33Zm14.84-45.27c0-5.52-3.91-12.23-8.69-15s-8.6-.45-8.59,5,3.9,12.22,8.69,15S194,45.55,193.94,40.06Z"/><path class="cls-6" d="M179.1,85.33c-.74-2.61-1.43-5-2.13-7.46-1.48-5.18-2.94-10.36-4.44-15.54a25.48,25.48,0,0,0-1-2.76c-2.05-4.73-4.16-9.45-6.17-14.19a51.14,51.14,0,0,1-3.58-11.33c-1.38-8.48.46-14,5.46-16.39s10.91-.37,17.3,5.69a39.82,39.82,0,0,1,12,22.35,20.47,20.47,0,0,1-1.74,13.43,25.82,25.82,0,0,1-6.31,7.79,14.78,14.78,0,0,0-4,5.91c-1.61,4-3.36,7.9-5.05,11.84C179.34,84.85,179.25,85,179.1,85.33Zm8.66-40.63c0-5.53-3.92-12.23-8.69-15s-8.61-.45-8.6,5,3.91,12.22,8.69,15S187.78,50.19,187.76,44.7Z"/><line class="cls-7" x1="87.24" y1="148.5" x2="271.04" y2="47.89"/><path class="cls-8" d="M95.39,143c-3.18-1.74-10.2-2.32-13.38-.58s-2.29,6.69.89,8.43a13.34,13.34,0,0,0,11.51,0C97.59,149.14,98.57,144.77,95.39,143Z"/><path class="cls-8" d="M184.06,93.41c-2.23-1.22-6.36,1.16-8.59,2.38s-2.23,3.2,0,4.42a9.42,9.42,0,0,0,8.07,0C185.76,99,186.29,94.63,184.06,93.41Z"/><path class="cls-5" d="M275.78,43.44c-2.23-1.22-6.55,1-8.78,2.24s-2.23,3.2,0,4.42a9.35,9.35,0,0,0,8.07,0C277.3,48.88,278,44.66,275.78,43.44Z"/><ellipse class="cls-5" cx="151.39" cy="113.39" rx="3.37" ry="1.84"/><ellipse class="cls-5" cx="205.45" cy="83.79" rx="3.37" ry="1.84"/><ellipse class="cls-5" cx="134.94" cy="122.39" rx="3.37" ry="1.84"/><ellipse class="cls-5" cx="117.66" cy="131.85" rx="3.37" ry="1.84"/><ellipse class="cls-5" cx="235.88" cy="67.14" rx="3.37" ry="1.84"/><line class="cls-9" x1="87.24" y1="145.79" x2="271.04" y2="45.18"/><ellipse class="cls-10" cx="88.65" cy="145.01" rx="8.14" ry="4.46"/><ellipse class="cls-10" cx="179.5" cy="95.28" rx="5.7" ry="3.12"/><ellipse class="cls-6" cx="271.04" cy="45.18" rx="5.7" ry="3.12"/><ellipse class="cls-6" cx="151.39" cy="110.67" rx="3.37" ry="1.84"/><ellipse class="cls-6" cx="205.45" cy="81.08" rx="3.37" ry="1.84"/><ellipse class="cls-6" cx="134.94" cy="119.68" rx="3.37" ry="1.84"/><ellipse class="cls-6" cx="117.66" cy="129.13" rx="3.37" ry="1.84"/><ellipse class="cls-6" cx="235.88" cy="64.43" rx="3.37" ry="1.84"/></g></g></svg>