<svg xmlns="http://www.w3.org/2000/svg" viewBox="0 0 264.48 264.48"><title>lb_countries</title><g id="Layer_2" data-name="Layer 2"><g id="Layer_1-2" data-name="Layer 1"><path d="M264.48,122.64v19.68a9.85,9.85,0,0,0-.69,2.16A122.12,122.12,0,0,1,258.62,171a116.74,116.74,0,0,1-5.12,13.65A166.33,166.33,0,0,1,245.71,200a123.93,123.93,0,0,1-19,24.71,126.87,126.87,0,0,1-26,20.55c-3.94,2.32-8,4.48-12.12,6.47-3.51,1.7-7.15,3.14-10.8,4.52-3,1.13-6,2.07-9.09,3a86.61,86.61,0,0,1-9.16,2.34c-5.23.9-10.51,1.51-15.77,2.28a6.13,6.13,0,0,0-1.45.63H122.4a12.77,12.77,0,0,0-2.42-.7,118.87,118.87,0,0,1-26.4-5.16c-5.35-1.68-10.54-3.87-15.74-6a103.28,103.28,0,0,1-16.33-8.74A131.65,131.65,0,0,1,40,226.79,122.81,122.81,0,0,1,21.1,203.6c-3-4.85-5.69-9.89-8.26-15a110,110,0,0,1-4.54-10.8c-1.13-3-2.06-6-3-9.1A85.25,85.25,0,0,1,3,159.58c-.92-5.31-1.53-10.67-2.31-16A4.23,4.23,0,0,0,0,142.32V122.64a5.61,5.61,0,0,0,.68-1.56A129.78,129.78,0,0,1,5.45,95.32a137.46,137.46,0,0,1,6-16.53,126,126,0,0,1,9.65-17.9A133,133,0,0,1,49.22,29.51,125.09,125.09,0,0,1,67.75,17c3.74-2.06,7.57-4,11.47-5.69A102.74,102.74,0,0,1,89.94,7.2a151.22,151.22,0,0,1,15-4.16c5.4-1.1,10.91-1.58,16.37-2.37.39-.05.74-.44,1.11-.67h19.68c.37.23.73.63,1.12.66a107.3,107.3,0,0,1,19.27,3.07C167.2,5,172,6.25,176.6,7.79c3.47,1.15,6.81,2.71,10.18,4.14a112.87,112.87,0,0,1,16.32,8.78,131,131,0,0,1,24.34,19.9,121.62,121.62,0,0,1,16.95,21.81c2.77,4.65,5.38,9.43,7.76,14.29a112.68,112.68,0,0,1,4.76,11.61c1.25,3.49,2.27,7.07,3.18,10.66,1,3.83,1.8,7.7,2.46,11.59.59,3.42.86,6.89,1.32,10.34A8.31,8.31,0,0,0,264.48,122.64Zm-9.12,9.53a123.14,123.14,0,0,0-123.1-123C64.33,9.2,9.12,64.45,9.19,132.33a123.09,123.09,0,1,0,246.17-.16Z"/><path d="M145.24,93.16a13.26,13.26,0,0,0,3.37-.06,12.65,12.65,0,0,0,3.51-1.74A31.34,31.34,0,0,0,155,88.78q1.86-1.65,2.74.62c.88,2.21,2.88,2.75,4.81,1.36a5.64,5.64,0,0,1,1.61-.6c.3-.1.73,0,.92-.18,1.36-1.3,2.82-.41,4.19-.15s1.83,1.14,1.5,2.62c-.17.78.08,1.17.81,1.27,2.31.31,3,2.16,3.71,4a3.39,3.39,0,0,1-.19,1.72c-.07.3-.38.56-.41.85a10.45,10.45,0,0,0,.07,1.58,5.08,5.08,0,0,0,1.27-.58c1.45-1.25,1.41-1.15,2.68.24a4.82,4.82,0,0,1,.84,6,5.94,5.94,0,0,0-.37,2.46c0,1.26.77,1.88,2,1.46a9.26,9.26,0,0,0,2.91-1.59c2.07-1.81,4.05-3.75,6-5.69a1.48,1.48,0,0,0,.32-1.33c-1.28-2.38.66-3.89,2.56-4.37.93-.23,1.89-.34,2.82-.57a3.18,3.18,0,0,0,2.65-4,5.23,5.23,0,0,1,.6-3,7.84,7.84,0,0,1,6.36-5,25.35,25.35,0,0,0,3.92-1.44c1.94-.7,3.08-2.35,4.45-3.73.26-.26.21-.89.21-1.36,0-2.35-.15-4.7-.1-7,.05-2.68,3.36-3.68,5.35-3.22a2,2,0,0,1,1.17,1.09A17.88,17.88,0,0,0,226,77.59a1.41,1.41,0,0,1,.23,1.36,23.38,23.38,0,0,1-2.7,3.88c-1.67,1.78-3.55,3.37-4.5,5.69-.87,2.12-.23,4.1.78,6a2.11,2.11,0,0,0,2.18,1,4.44,4.44,0,0,1,1.57.51,5.65,5.65,0,0,1-1,1.27,21.3,21.3,0,0,1-2.31,1.24,4.68,4.68,0,0,0-2.45,3,6.81,6.81,0,0,1-3.59,4.14,2.63,2.63,0,0,0-1.59,2.79,13.89,13.89,0,0,1-1,6.1,4.17,4.17,0,0,0-.1,2.54,6,6,0,0,1,.1,3.63c-.25.94-.39,1.91-.57,2.86l-.31,0-1.57-2.32c-.36,2.47.5,4,2.19,4.71a1.54,1.54,0,0,1,.69,1.19c0,1.2.08,2.27,1.19,3.07a1.58,1.58,0,0,1,.19,1.43,5.42,5.42,0,0,0-.67,3.57,1.48,1.48,0,0,1-.18,1.13q-2.15,2.74-4.39,5.42a24.39,24.39,0,0,0-2.76,3.11c-1.89,3.3-3.64,6.7-5.35,10.11a7.79,7.79,0,0,0,.64,8c1.32,2.08,3,3.92,4.54,5.87.1.12.28.23.3.37.36,2.75,2.94,4,4.14,6.24.94,1.73,1.78,3.38,1.54,5.4a7.69,7.69,0,0,0,0,1c0,2.52,0,2.57-2.35,3.43a1.9,1.9,0,0,1-1.59-.29c-2.48-2.2-4.93-4.44-7.31-6.75a8.3,8.3,0,0,1-2.72-6.3,2.53,2.53,0,0,0-1.09-1.77c-1.45-1-3-1.75-4.56-2.62a2.87,2.87,0,0,0-3.81.57,3,3,0,0,1-3.92.61,7.09,7.09,0,0,0-5.66-.52c-2.44.6-4.91,1.07-7.36,1.59a9,9,0,0,0-1.17.25,1.72,1.72,0,0,0-1,2.74c.43.72,1,1.37,1.39,2.1a1.47,1.47,0,0,1,.16,1.16,1.1,1.1,0,0,1-1.05.23c-1.42-.77-2.73-.4-4.14.06a6.25,6.25,0,0,1-4.75-.51,5,5,0,0,0-3.21,0,5.42,5.42,0,0,1-3.62,0,2.73,2.73,0,0,0-2.6.28,13.83,13.83,0,0,1-3.26,1.4c-1.24.36-1.74,1.37-2.32,2.3a5.69,5.69,0,0,1-2.67,2.4,8.7,8.7,0,0,0-5.67,7.9c-.07,1.34.67,2.75,1.18,4.09.45,1.19.09,2.1-1.18,2.21-2.66.23-7.88-1.75-8.6-5.06a7.11,7.11,0,0,0-2.13-3.24c-1.41-1.5-2.57-3.23-3.9-4.82s-2.36-3.15-4.46-3.61a3.54,3.54,0,0,0-4.09,1.7c-1.24,2-1.24,1.93-3.41,1.5-2.33-.47-4.2-1.46-5-3.87-.69-2-2.26-3.27-3.73-4.61a39.82,39.82,0,0,0-3.43-2.62c-1.9-1.39-4-.92-6.13-.71a1,1,0,0,0-.68.44c-.71,1.18-1.85,1.29-3,1.3-2.11,0-4.23.06-6.35,0a9.9,9.9,0,0,1-5.13-1.37c-1-.65-2.45-.66-3.59-1.18q-4.25-2-8.36-4.15a8.47,8.47,0,0,0-4.52-.87l-3.35.18a2.39,2.39,0,0,1-2.57-1.74,10.54,10.54,0,0,0-3.86-5.06c-1.2-.87-2.28-1.9-3.52-2.7a10.48,10.48,0,0,0-2.91-1.26c-1.3-.34-1.7-.76-1.83-2.1a6.29,6.29,0,0,0-.69-2.23c-.82-1.59-1.76-3.12-2.63-4.68a3.08,3.08,0,0,1-.36-.88c-.47-2-.86-4.13-1.39-6.16a5.39,5.39,0,0,0-1.12-2.18A5.75,5.75,0,0,1,34.6,133a45.36,45.36,0,0,0-.87-6.17c-.7-2.87.28-5.55.56-8.31a17.38,17.38,0,0,0,0-2.6,40.83,40.83,0,0,1-.21-4.27,8.6,8.6,0,0,1,.85-2.43c.58-1.52,1.29-3,1.73-4.57a56.37,56.37,0,0,0,1.63-7,25.41,25.41,0,0,0,0-5c-.08-1.63-.36-3.26-.46-4.89-.09-1.39.33-1.66,1.64-1.16S41.8,87.56,43,88a2.24,2.24,0,0,0,1.68.06c.29-.2.27-1.07.16-1.6-.52-2.63-.46-2.59,2.2-2.21,4.51.65,9,1.21,13.57,1.63,6.17.58,12.35,1.29,18.53,1.41,10.26.19,20.54.15,30.8-.18,5.88-.19,11.73-1.12,17.6-1.75A22.89,22.89,0,0,1,136,86a4.22,4.22,0,0,0,2.19-.16,3.68,3.68,0,0,1,3,.2,6.73,6.73,0,0,0,4.52.77,16.19,16.19,0,0,1,3.33-.31,2.16,2.16,0,0,0,2.23-1.26c.17-.34.65-.53,1-.8,0,.5.15,1.17-.11,1.47-1,1.14-2.1,2.18-3.19,3.24s-2.13,2-3.16,3.09A4,4,0,0,0,145.24,93.16Z"/></g></g></svg>