<svg xmlns="http://www.w3.org/2000/svg" viewBox="0 0 520.74 498.69"><defs><style>.cls-1{fill:#ffffff;}</style></defs>
<title>lb_participant</title><g id="Layer_2" data-name="Layer 2"><g id="Layer_1-2" data-name="Layer 1"><path class="cls-1" d="M520.74,361.52c-3,.68-6,1.93-8.92,1.93q-93.66.17-187.32.07a5.4,5.4,0,0,1-1.83-.16c8.08-15.73,16.32-31.85,24.68-47.91a7,7,0,0,1,3.21-3.17c14.15-5.61,27.08-14.59,44.24-7.33,14,5.95,29.29,3.86,44.06-.86a32.47,32.47,0,0,1,16.94-.58c25.09,6.29,45.73,20.7,64.94,37.41Z"/><path class="cls-1" d="M0,340.92c2.69-1.94,5.54-3.69,8-5.86,17.18-14.94,36.47-26.12,58.55-31.86a28.16,28.16,0,0,1,15.15.54c16.93,5.67,33.57,6.05,50.3-.25,14.3-5.38,35.93,4.93,42.29,18.51,6.64,14.16,15.08,27.48,22.94,41.54h-7.88q-88.36,0-176.72-.09c-4.22,0-8.45-1.25-12.67-1.93Z"/><path class="cls-1" d="M269.74,0C283.9,7.06,295.4,16.53,297.8,33.31c1.34,9.3,1.78,18.72,2.59,28.09a3.39,3.39,0,0,1-.29,1.82C294.39,73.59,289.92,85,282.63,94.07c-16.14,20.19-43.15,13.75-54-11.92-2.44-5.75-5.82-11.1-8.64-16.69a9.1,9.1,0,0,1-1.19-4.41c.57-8.45,1.15-16.91,2.12-25.33C223,17.23,234.49,6.45,251,0Z"/><path class="cls-1" d="M259,498.63q-83.34,0-166.68,0c-12.37,0-12.06-1.35-13.81-13.22-2.89-19.59,5.61-31.78,20.47-43.08C129,419.54,161.27,402,198,393.15a26.56,26.56,0,0,1,15.18,1.28c31.07,12.57,61.83,12.5,92.93,0a27.8,27.8,0,0,1,16-1.1c41.69,10.41,78,30.87,110,59.51,5.81,5.2,8.55,10.47,8.37,18.48-.68,30.5,3.57,27.2-27.83,27.25Q335.82,498.73,259,498.63Z"/><path class="cls-1" d="M341.23,234.32c-.47,4.65-.66,9.35-1.47,13.93-1.25,7.13-3.19,13.44,3,20.3,5.38,6,1.91,16.56-5.75,19.6-5.82,2.31-6.64,6-7.62,11.16-4.15,21.87-14.44,40.4-31.88,54.55-23.61,19.15-52.87,19.05-76.34-.34-17.28-14.28-27.55-32.83-31.57-54.74-.88-4.86-1.67-8.17-7.1-10.44a13.72,13.72,0,0,1-5-21.92c3.94-4.46,3.88-8,2.78-13.24-9.52-45.59,15.64-90.24,57.42-102.5,49.24-14.44,99.51,22.68,103,76.13.16,2.48,0,5,0,7.48Z"/><path class="cls-1" d="M414.56,155.8c29.25-.06,51.9,28.13,47.27,58.37-.6,3.87,1.3,8.06,1.38,12.12a25.93,25.93,0,0,1-1.43,10.22c-1.88,4.53-4.82,8.62-7.3,12.9a4.43,4.43,0,0,0-.33.88c-6.25,20.73-22.84,34.87-40.44,34.47-17-.39-33-15.21-39-35.25-1.38-4.6-5.12-8.45-7.24-12.9-1.25-2.61-3-7.1-1.88-8.36,5.16-5.8,2-11.78,1.61-17.69C365.28,180.54,386.61,155.86,414.56,155.8Z"/><path class="cls-1" d="M107.61,155.8c27.52.41,49.46,26,46.71,54.57-.58,6-2.74,11.87,1.76,17.7,1.15,1.48-.21,7.36-1.85,8.11-6.35,2.91-6.27,8.67-7.79,13.84-.18.6-.27,1.22-.47,1.81-6.37,19.37-22.27,32.85-38.83,32.94-17,.09-33.26-13.63-39.42-33.4-1.79-5.74-1.78-12.07-8.47-15.49-1.54-.79-1.56-5.57-1.39-8.46.27-4.92,2.18-9.87,1.78-14.67C57,181.18,78.56,155.37,107.61,155.8Z"/><path class="cls-1" d="M170.67,157.44c2.63-4.12,4.39-9.43,8.06-12.12a260.59,260.59,0,0,1,32.13-20.53c10.73-5.65,21.6-7.92,34.77-3.91,10.21,3.1,22.45-.52,33.78-1.09,4.79-.24,9.88-1.42,14.33-.25,18.08,4.75,33.55,14.43,47.9,26.31,7,5.8,5.05,12.89,4.44,19.68-.37,4.09-12.76,4.8-17.22,1.14a54.82,54.82,0,0,1-3.87-4c-37.16-37.42-94.12-37.21-131.4.23a22.62,22.62,0,0,1-10.76,5.69C175.23,170.18,170.46,167.55,170.67,157.44Z"/></g></g></svg>