<svg xmlns="http://www.w3.org/2000/svg" viewBox="0 0 355.57 557.52">
<defs><style>.cls-1{fill:#ffffff;}</style></defs>
<title>lb_prize</title><g id="Layer_2" data-name="Layer 2"><g id="Layer_1-2" data-name="Layer 1">
<path class="cls-1" d="M289.78,557.52H208.9a4.08,4.08,0,0,0-.67-.23,11.33,11.33,0,0,1-7.1-4.1q-14-16.76-28-33.49-48.63-57.81-98.4-114.62c-23.37-26.53-47-52.82-71.25-78.57a11.73,11.73,0,0,1-3.38-8.33q0-25.32,0-50.64a13.14,13.14,0,0,1,.67-4c1.77-5.27,6.64-8.53,12.6-8.53,15.52,0,31,0,46.56-.05a221.55,221.55,0,0,0,48.43-5.12c13.45-3.06,26.3-7.66,38.11-14.9,15.81-9.69,27.33-22.94,33.5-40.59.66-1.91,1.22-3.85,1.88-5.93H13.16C5,188.42.09,183.48.07,175.35v-11c0-9.8,0-19.6,0-29.4a11.81,11.81,0,0,1,4.55-9.51c2.66-2.17,5.8-2.66,9.12-2.66q80.28,0,160.56,0c.57,0,1.13,0,1.83-.09-.28-.57-.45-1-.65-1.35a65.38,65.38,0,0,0-16.1-19.63c-9.94-8.23-21.41-13.42-33.7-17C109,79.89,91.82,78.18,74.5,78q-30.54-.24-61.08,0A13.37,13.37,0,0,1,0,64.67C.25,51.11.07,37.55.07,24c0-4.16-.06-8.32,0-12.48A11.83,11.83,0,0,1,9.06.47L10.9,0H344a3.6,3.6,0,0,0,.54.22c6.11,1.13,10.18,5.78,10.21,12q.09,20.7,0,41.39a11.78,11.78,0,0,1-4.38,9.36c-2.64,2.2-5.74,2.81-9.07,2.81q-44.94,0-89.88,0h-1.57c13.11,17.13,21.05,36.23,25.35,57H307.3q17.7,0,35.4,0c7.82,0,12.85,5,12.86,12.84,0,13.32,0,26.64,0,40a16,16,0,0,1-.68,4.71c-1.6,5.06-6.15,8.13-11.88,8.13H301c-7.8,0-15.6,0-23.4,0-.89,0-1.24.23-1.38,1.14-.37,2.41-.83,4.81-1.32,7.19a151.11,151.11,0,0,1-19.5,49.71c-14.72,23.63-34.89,41.37-59.27,54.49-23.38,12.57-48.54,19.45-74.7,23-1.7.24-3.41.46-5.33.72l1.4,1.54q30.59,32.68,59.71,66.68,35.31,41.24,70.19,82.84c17.06,20.35,33.78,41,50.66,61.48a12.53,12.53,0,0,1,2.79,5.49c.73,3.54-.7,6.52-2.41,9.4a10.33,10.33,0,0,1-6.79,4.93Z"/></g></g></svg>