<svg xmlns="http://www.w3.org/2000/svg" viewBox="0 0 329.54 327.43">
<defs><style>.cls-1{fill:#ffffff;}</style></defs>
<title>lb_registration</title>
<g id="Layer_2" data-name="Layer 2">
<g id="Layer_1-2" data-name="Layer 1">
<path class="cls-1" d="M0,269.35c4-17,16-27.66,29.37-37.2,18.45-13.17,38.93-22.44,60-30.57,12.25-4.74,17.29-13.63,14.14-26.36-.85-3.46-3.06-6.83-5.38-9.64C72.67,134.64,60.23,99.77,67,59.61,73.11,23.35,103-.39,140.57,0c37.86.4,67.07,24.44,72.67,60.74,6.09,39.43-5.73,74-30.82,104.24-5.17,6.23-6.76,12.93-6.6,20.33.18,8.64,4.16,13.33,12.44,16.11,1.77.6,3.52,1.27,6.58,2.37-4.51,4.35-8.52,8.15-12.44,12-9.41,9.34-19.14,18.39-28,28.23a48.76,48.76,0,0,0-9.83,16.47c-5.33,15.7-10,31.65-14.19,47.7-1.6,6.12-1.12,12.78-1.59,19.2H117.42c-5.63-.47-11.26-1-16.89-1.41-24.57-1.87-49.08-4.08-72.28-13.3C14.4,307.21,3.07,299.15,0,283.24Z"/>
<path class="cls-1" d="M156.56,327.43c-.53-3.7-2.25-7.69-1.4-11,4.06-15.84,8.75-31.53,13.41-47.21a17,17,0,0,1,3.78-7q36.36-36.29,73-72.33a18.57,18.57,0,0,1,2-1.4l45.28,47.13c-9.63,9.81-20.12,20.67-30.8,31.34-13.53,13.52-27.08,27-40.9,40.23a27.67,27.67,0,0,1-10.48,6.22c-13.41,4.22-27,7.85-40.5,11.77a60.43,60.43,0,0,0-5.75,2.3Zm23.75-52.09c-2.24,7.67-4.81,16.07-7.11,24.55-1,3.61,4.07,9.42,7.6,8.52,8.88-2.26,17.62-5,24.86-7.13-1.36-8-2.58-15.19-3.8-22.34Z"/>
<path class="cls-1" d="M329.54,193.59l-10.42,15.1-45.73-46.21c1.7-1.54,4.13-3.86,6.67-6,6.07-5.18,14.33-5.72,20.19-.35,8.67,7.95,16.87,16.43,25,24.92,1.94,2,2.88,5,4.27,7.53Z"/>
<path class="cls-1" d="M255.91,179.54l8.19-8.64L311.2,218c-2.77,2.47-6.15,5.48-9.27,8.24Z"/></g></g></svg>