<svg xmlns="http://www.w3.org/2000/svg" viewBox="0 0 269.02 484.77">
<defs><style>.cls-1{fill:#ffffff;}</style></defs>
<title>lb_visitor</title>
<g id="Layer_2" data-name="Layer 2"><g id="Layer_1-2" data-name="Layer 1">
<path class="cls-1" d="M127.33,0a5.53,5.53,0,0,0,1.43.69A51.51,51.51,0,0,1,169.54,35,51.56,51.56,0,0,1,171.87,58,49.08,49.08,0,0,1,165.52,77a51.29,51.29,0,0,1-18.12,18.6,50.76,50.76,0,0,1-17.35,6.58A55.15,55.15,0,0,1,119,103a48.38,48.38,0,0,1-16.37-3.25A51.44,51.44,0,0,1,71.42,66.39,49.71,49.71,0,0,1,70.1,42,50.93,50.93,0,0,1,92.54,8.45,52.35,52.35,0,0,1,110.1,1.1C111,.88,112,.86,112.94.65A5,5,0,0,0,114.13,0Z"/>
<path class="cls-1" d="M121.06,306.87c-.3,1.17-.65,2.33-.89,3.51q-1.65,8.1-3.25,16.22c-1,4.9-1.89,9.8-2.87,14.7s-2,9.86-3,14.8c-.7,3.45-1.35,6.9-2,10.35s-1.45,7.13-2.17,10.69-1.38,7-2.07,10.46l-2.16,10.69q-1,5.23-2.09,10.47t-2.14,10.69q-1.06,5.35-2.12,10.7c-.7,3.53-1.42,7.05-2.12,10.58s-1.39,7.13-2.14,10.69c-1.12,5.27-2,10.62-3.55,15.77a23.75,23.75,0,0,1-9.25,12.36,25.9,25.9,0,0,1-35.13-3.78,25.75,25.75,0,0,1-6.94-19.66,89.33,89.33,0,0,1,1.67-9.81c.72-3.88,1.49-7.76,2.25-11.64.72-3.65,1.46-7.29,2.17-10.94s1.36-7.14,2.06-10.71,1.46-7.37,2.18-11.05c.69-3.53,1.36-7.07,2-10.6s1.41-7.29,2.12-10.94l2.13-10.94q1.09-5.6,2.18-11.18c.7-3.6,1.39-7.22,2.09-10.82s1.43-7.3,2.15-10.94,1.38-7.14,2.08-10.71c.73-3.76,1.49-7.52,2.2-11.29,1-5.3,2-10.6,2.92-15.92.7-4.13,1.34-8.29,1.81-12.45.75-6.51,1.49-13,1.95-19.57.4-5.78.54-11.59.56-17.38.07-19.44,0-38.88,0-58.32a4.07,4.07,0,0,0-.37-1.17,5.06,5.06,0,0,0-.88.69c-3.45,4.41-6.84,8.86-10.34,13.22a10.73,10.73,0,0,0-1.84,4.1c-1,3.62-1.91,7.26-2.89,10.88s-2,7.39-3,11.09-1.91,7.26-2.88,10.88-2,7.4-3,11.1c-.66,2.43-1.3,4.86-2,7.28a21.33,21.33,0,0,1-10.36,13.08,21.31,21.31,0,0,1-14.46,2.6c-8.46-1.46-14.55-6-17.93-14a21.63,21.63,0,0,1-.86-14.54c1.84-6.78,3.61-13.59,5.44-20.37C7.85,220,9.48,214.26,11,208.52s3.05-11.5,4.59-17.25A41.65,41.65,0,0,1,24,175.43c7.77-9.44,15.27-19.1,22.92-28.65,3.65-4.55,7.22-9.18,11.1-13.52A47.1,47.1,0,0,1,76.14,121a51,51,0,0,1,19-3.62c15.88,0,31.76,0,47.64,0a47.06,47.06,0,0,0,13.84-1.9,70.3,70.3,0,0,0,8.75-3.55c3.88-1.77,7.69-3.69,11.54-5.55l13.59-6.52c3.52-1.7,7-3.4,10.58-5.06,3.74-1.75,5.71-4.73,6.57-8.71.91-4.22,2.12-8.36,3.19-12.54,1-3.79,1.9-7.59,2.87-11.38s2-7.64,3-11.47,1.9-7.43,2.85-11.14c1-3.9,2-7.82,3.05-11.71a52.09,52.09,0,0,1,2-6.5,22,22,0,0,1,10.45-11.13,22.55,22.55,0,0,1,9.49-2.64c7.38-.4,13.35,2.47,18.16,7.83,5.23,5.83,7,12.81,6,20.48a67,67,0,0,1-1.94,7.78l-3,11.71c-1,3.91-2,7.81-3,11.71q-1.44,5.57-2.86,11.14c-1,3.79-1.93,7.59-2.91,11.37-.7,2.71-1.5,5.39-2.13,8.11a54.27,54.27,0,0,1-11.4,23.09,56,56,0,0,1-19.07,14.6c-7.38,3.51-14.72,7.11-22.09,10.66-5.46,2.63-10.89,5.35-16.41,7.83-4,1.81-8.18,3.36-12.32,4.91a1.62,1.62,0,0,0-1.31,1.78c.05,5.64,0,11.28,0,16.92q0,36.18,0,72.36a256.61,256.61,0,0,0,1.9,32.32c1,7.8,2.49,15.54,3.84,23.29.88,5,1.88,10,2.86,14.95s2,10,3,15,1.91,10,2.89,14.95,2,9.95,3,14.92c.7,3.57,1.38,7.14,2.08,10.71s1.36,6.9,2,10.35l2.22,11.29c.7,3.52,1.42,7.05,2.12,10.58s1.39,7.05,2.08,10.58l2.16,10.93q1.06,5.42,2.12,10.83c.67,3.45,1.21,6.93,2.06,10.34a26.92,26.92,0,0,1-12.52,30.1,25,25,0,0,1-20.45,2.61A26.29,26.29,0,0,1,154.3,468a32.66,32.66,0,0,1-1.71-6.1c-1.58-7.75-3-15.53-4.59-23.28-1.27-6.35-2.61-12.68-3.89-19-1-4.93-1.9-9.88-2.89-14.82s-2-9.78-3-14.68-1.92-9.88-2.9-14.82c-.71-3.52-1.46-7-2.17-10.56s-1.35-6.9-2-10.35-1.36-6.82-2-10.22q-1.11-5.65-2.24-11.29c-.7-3.48-1.43-7-2.14-10.45s-1.39-7-2.1-10.46c-.33-1.67-.7-3.33-1-5Z"/></g></g></svg>