<svg xmlns="http://www.w3.org/2000/svg" viewBox="0 0 94.5 95.1"><defs><style>.cls-1{fill:#ffffff;}</style></defs>
<title>lines-of-code</title><g id="Layer_2" data-name="Layer 2"><g id="Layer_1-2" data-name="Layer 1"><path class="cls-1" d="M18.5,50.7H75.8a.9.9,0,0,0,.9-.9V45.3a.9.9,0,0,0-.9-.9H18.5a.9.9,0,0,0-.9.9v4.5A.9.9,0,0,0,18.5,50.7Z"/><path class="cls-1" d="M18.5,37.2H75.8a.9.9,0,0,0,.9-.9V31.8a.9.9,0,0,0-.9-.9H18.5a.9.9,0,0,0-.9.9v4.5A.9.9,0,0,0,18.5,37.2Z"/><path class="cls-1" d="M18.5,23.8H75.8a.9.9,0,0,0,.9-.9V18.4a.9.9,0,0,0-.9-.9H18.5a.9.9,0,0,0-.9.9v4.5A.9.9,0,0,0,18.5,23.8Z"/><path class="cls-1" d="M89.5,0H4.7A4.72,4.72,0,0,0,0,4.8V70.3a4.8,4.8,0,0,0,4.8,4.8H37.7v8.7H33.6a8.92,8.92,0,0,0-8.9,8.9h0a2.43,2.43,0,0,0,2.4,2.4H67.4a2.43,2.43,0,0,0,2.4-2.4,8.92,8.92,0,0,0-8.9-8.9H56.8V75.1H89.7a4.8,4.8,0,0,0,4.8-4.8V4.8A5.18,5.18,0,0,0,89.5,0ZM47.1,69.9a3.3,3.3,0,1,1,3.3-3.3A3.33,3.33,0,0,1,47.1,69.9ZM84.6,58.3H9.6V9.6h75Z"/></g></g></svg>