<svg xmlns="http://www.w3.org/2000/svg" viewBox="0 0 335.71 293.38">
<defs><style>.cls-1{fill:#86ff00;}</style></defs>
<title>cf-new-chartreuse-chartreuse</title>
<g id="Layer_2" data-name="Layer 2">
<g id="Layer_1-2" data-name="Layer 1">
<path class="cls-1" d="M170.18,293.38V49.4c-1.81-.58-119.63-.82-124.31-.3-.51,1.78-.76,142.54-.23,148.75,5.27.28,10.59.09,15.9.12s10.72,0,16.08,0h65c-7.7,16.54-15.36,32.66-22.92,48.77H0V.44C.08.36.13.3.19.25S.31.12.38.11A6,6,0,0,1,1.32,0Q168.24,0,335.15,0c.13,0,.26.13.56.3a12.17,12.17,0,0,1-1,1.23Q311.86,24.64,289,47.75a4.24,4.24,0,0,1-3.44,1.19H215.78c-.52,1.91-.7,45.89-.23,50.23,2.79.27,5.64.09,8.48.12s5.92,0,8.88,0h52.44c-.8.91-1.23,1.45-1.71,1.94q-21.66,21.94-43.3,43.92a5,5,0,0,1-4,1.62c-6-.09-12,0-18,0h-2.94c0,1.15,0,2.15,0,3.16q0,46.56,0,93.11a15.68,15.68,0,0,0,0,1.68,4.34,4.34,0,0,1-1.49,3.8Q194.9,268,176,287.64C174.23,289.47,172.38,291.21,170.18,293.38Z"/>
</g>
</g>
</svg>