<svg xmlns="http://www.w3.org/2000/svg" viewBox="0 0 711.34 173.5"><defs><style>.cls-1{fill:#86ff00;}.cls-2{fill:#fff;}.cls-3{fill:#f90;}</style></defs><title>cf19-hero-logo</title><g id="Layer_2" data-name="Layer 2"><g id="Layer_1-2" data-name="Layer 1"><path class="cls-1" d="M637.29,43.05q2-.84,4.25-1.93c1.48-.73,2.92-1.52,4.32-2.39s2.76-1.78,4-2.75a28.13,28.13,0,0,0,3.48-3h7.32V81.66H650.23V46.57a32.3,32.3,0,0,1-4.72,2.57q-2.6,1.15-5.06,2Z"/><path class="cls-1" d="M699.88,62.32a12.76,12.76,0,0,1-3.27,1,18.28,18.28,0,0,1-3.06.32,24.53,24.53,0,0,1-7.81-1.09,13.84,13.84,0,0,1-5.31-3.1,12.24,12.24,0,0,1-3.06-4.81,19,19,0,0,1,0-12,15.78,15.78,0,0,1,3-5.38,16.26,16.26,0,0,1,5.16-4,16.7,16.7,0,0,1,7.57-1.58q9.06,0,13.67,5.59t4.61,16.07a37.93,37.93,0,0,1-1.79,12.17A21.64,21.64,0,0,1,704,74.42a24.43,24.43,0,0,1-9.6,5.45,47,47,0,0,1-13.85,1.93c0-1.5-.12-3-.21-4.36s-.19-2.86-.29-4.36a50.16,50.16,0,0,0,7.25-.59,20.28,20.28,0,0,0,5.7-1.76,13,13,0,0,0,4.18-3.27A14.82,14.82,0,0,0,699.88,62.32Zm-5.14-6.82a19.18,19.18,0,0,0,3.38-.32,7,7,0,0,0,2.6-.88v-.63a3.52,3.52,0,0,1,0-.56,4.73,4.73,0,0,0,0-.49,38.32,38.32,0,0,0-.42-4.75,12.84,12.84,0,0,0-1.2-3.87,6.64,6.64,0,0,0-2.28-2.6,6.35,6.35,0,0,0-3.55-.95,6.11,6.11,0,0,0-3,.7,6,6,0,0,0-2,1.83,8.68,8.68,0,0,0-1.16,2.46,9.31,9.31,0,0,0-.38,2.61q0,3.8,1.86,5.62T694.74,55.5Z"/><path class="cls-2" d="M35.87,173.09a39.69,39.69,0,0,1-15.54-2.81,31.25,31.25,0,0,1-11.26-7.87,32.72,32.72,0,0,1-6.82-12A49.9,49.9,0,0,1,0,135,46.63,46.63,0,0,1,2.46,119.5a36.55,36.55,0,0,1,7-12.16,31.16,31.16,0,0,1,11-8A35.72,35.72,0,0,1,35,96.44a58.4,58.4,0,0,1,9.85.84A45.05,45.05,0,0,1,54.29,100l-2.95,11.12a31.71,31.71,0,0,0-6.82-2.26,38.78,38.78,0,0,0-8.23-.84q-11,0-16.81,6.89T13.64,135A41.29,41.29,0,0,0,15,145.81a22.43,22.43,0,0,0,4.22,8.44,18.77,18.77,0,0,0,7.38,5.41,28.15,28.15,0,0,0,11,1.9,42,42,0,0,0,9.43-1,34.94,34.94,0,0,0,6.61-2.11l1.83,11a13.61,13.61,0,0,1-3.24,1.33,43.44,43.44,0,0,1-4.78,1.13q-2.67.49-5.69.84A49.5,49.5,0,0,1,35.87,173.09Z"/><path class="cls-2" d="M136.44,134.84a46.22,46.22,0,0,1-2.53,15.75,36.23,36.23,0,0,1-7.1,12.1,31.38,31.38,0,0,1-10.91,7.8,35.9,35.9,0,0,1-27.56,0,31.38,31.38,0,0,1-10.91-7.8,36.06,36.06,0,0,1-7.1-12.1,50.1,50.1,0,0,1,0-31.44A35.85,35.85,0,0,1,77.43,107a31.27,31.27,0,0,1,10.91-7.81,36,36,0,0,1,27.56,0A31.27,31.27,0,0,1,126.81,107a36,36,0,0,1,7.1,12.16A46.44,46.44,0,0,1,136.44,134.84Zm-13.64,0q0-12.37-5.56-19.63A18.06,18.06,0,0,0,102.12,108,18,18,0,0,0,87,115.21q-5.56,7.26-5.56,19.63T87,154.46q5.55,7.24,15.12,7.24a18,18,0,0,0,15.12-7.24Q122.79,147.21,122.8,134.84Z"/><path class="cls-2" d="M206.35,64.51l13.08-2.25v107q-4.5,1.26-11.54,2.53a92.5,92.5,0,0,1-16.17,1.26,41,41,0,0,1-15.19-2.67A32.59,32.59,0,0,1,165,162.83a33.42,33.42,0,0,1-7.38-12,46,46,0,0,1-2.6-16,51.9,51.9,0,0,1,2.18-15.48,34.52,34.52,0,0,1,6.4-12.09,29,29,0,0,1,10.33-7.88,33.27,33.27,0,0,1,14-2.81,34.09,34.09,0,0,1,11.18,1.68,35.72,35.72,0,0,1,7.25,3.24Zm0,49.23a27.22,27.22,0,0,0-6.9-3.8,25.88,25.88,0,0,0-9.84-1.83,21.07,21.07,0,0,0-9.64,2,17.75,17.75,0,0,0-6.54,5.63,23.73,23.73,0,0,0-3.65,8.51,46.69,46.69,0,0,0-1.13,10.55q0,12.79,6.33,19.76t16.88,7a67.18,67.18,0,0,0,8.93-.49,44.05,44.05,0,0,0,5.56-1Z"/><path class="cls-2" d="M242.07,135A46.59,46.59,0,0,1,244.89,118a35.42,35.42,0,0,1,7.45-12A30.16,30.16,0,0,1,263,98.83a33.28,33.28,0,0,1,12.38-2.39q14.76,0,22.64,9.21t7.88,28.06v2.18a20.67,20.67,0,0,1-.14,2.46H255.72q.84,11.4,6.61,17.3t18,5.91a48.49,48.49,0,0,0,11.61-1.19A41.26,41.26,0,0,0,299,158l1.83,11a39.52,39.52,0,0,1-8.37,2.67,60,60,0,0,1-13.57,1.4,43.1,43.1,0,0,1-16.53-2.88,30.8,30.8,0,0,1-11.47-8,32.47,32.47,0,0,1-6.68-12A51,51,0,0,1,242.07,135Zm50.22-7.18q.13-8.85-4.43-14.55t-12.59-5.7a17.3,17.3,0,0,0-7.95,1.76,18.69,18.69,0,0,0-5.84,4.57,20.8,20.8,0,0,0-3.72,6.47A31.42,31.42,0,0,0,256,127.8Z"/><path class="cls-1" d="M329.7,171.41V67.84h69.35V87.42H353v21.67H394v19.57H353v42.75Z"/><path class="cls-1" d="M413.24,132.7a48,48,0,0,1,3.22-18.31,39.07,39.07,0,0,1,8.44-13.07,35.17,35.17,0,0,1,12-7.93,37.7,37.7,0,0,1,14-2.68q16.74,0,26.46,10.23t9.71,30.12q0,1.94-.15,4.26t-.3,4.11H436.11a14.82,14.82,0,0,0,6.42,10.91q5.69,4,15.25,4a64.19,64.19,0,0,0,12-1.12,46,46,0,0,0,9.64-2.76l3,18.08a31,31,0,0,1-4.78,1.79,63.13,63.13,0,0,1-6.66,1.57q-3.66.67-7.84,1.12a78.23,78.23,0,0,1-8.37.45,49.58,49.58,0,0,1-18.46-3.14,35.89,35.89,0,0,1-13-8.59,34.07,34.07,0,0,1-7.62-12.93A51,51,0,0,1,413.24,132.7Zm52.31-8.52a22.9,22.9,0,0,0-1-5.53,14,14,0,0,0-2.54-4.78,13.65,13.65,0,0,0-4.34-3.44,14.07,14.07,0,0,0-6.5-1.34,14.85,14.85,0,0,0-6.42,1.27,13.25,13.25,0,0,0-4.49,3.36,15.1,15.1,0,0,0-2.76,4.86,31.71,31.71,0,0,0-1.42,5.6Z"/><path class="cls-1" d="M531.31,155.42q6.12,0,8.66-1.2t2.55-4.63c0-1.8-1.1-3.36-3.29-4.71a63.49,63.49,0,0,0-10-4.56,102.52,102.52,0,0,1-9.5-4,28.17,28.17,0,0,1-7.24-5,20.2,20.2,0,0,1-4.64-7,25.81,25.81,0,0,1-1.64-9.71q0-11.07,8.22-17.49T537,90.71A72.19,72.19,0,0,1,550.74,92a63.32,63.32,0,0,1,10.46,2.76l-3.89,17.34a79,79,0,0,0-8.44-2.39,45.74,45.74,0,0,0-10.24-1q-10.46,0-10.46,5.83a6,6,0,0,0,.45,2.39,5.08,5.08,0,0,0,1.79,2,25.36,25.36,0,0,0,3.66,2.1c1.55.75,3.51,1.58,5.9,2.48a91.81,91.81,0,0,1,12.11,5.35,29.19,29.19,0,0,1,7.55,5.69,17.59,17.59,0,0,1,3.88,6.79,30,30,0,0,1,1.13,8.65q0,11.63-8.75,17.6t-24.73,6a71.32,71.32,0,0,1-17.41-1.79,70.28,70.28,0,0,1-9.64-3l3.73-18.09a73.15,73.15,0,0,0,11.66,3.52A57.19,57.19,0,0,0,531.31,155.42Z"/><path class="cls-1" d="M585,73.22l22.26-3.59V92.8H634v18.53H607.22V139q0,7,2.47,11.21t9.94,4.18a42.41,42.41,0,0,0,7.4-.67,38,38,0,0,0,7-1.87l3.14,17.34a64.91,64.91,0,0,1-9,2.84A52.68,52.68,0,0,1,616,173.2q-9.12,0-15.09-2.46a23.72,23.72,0,0,1-9.57-6.88,25.53,25.53,0,0,1-5-10.68,62.92,62.92,0,0,1-1.42-13.9Z"/><g id="aws-logo"><path class="cls-3" d="M48.18,56.92c-2.24-.09-4-.11-5.79-.24a71.55,71.55,0,0,1-10.71-1.62,69.26,69.26,0,0,1-15.41-5.51,68.31,68.31,0,0,1-15-10.13C1,39.23.8,39,.6,38.83a.8.8,0,0,1-.2-1,.84.84,0,0,1,1.09-.21c.56.27,1.1.6,1.65.9a91.12,91.12,0,0,0,17.2,7.32,90,90,0,0,0,11.07,2.75c2.49.44,5,.77,7.52,1.07,1.72.21,3.46.32,5.19.4,2,.1,4.06.2,6.09.14,2.48-.06,5-.22,7.43-.46a92.7,92.7,0,0,0,27.05-6.8,1.94,1.94,0,0,1,1.4-.19,1.22,1.22,0,0,1,.56,2.09,9.52,9.52,0,0,1-1.27,1,57.67,57.67,0,0,1-13.71,6.91,70.89,70.89,0,0,1-11.8,3.09q-2.8.48-5.64.75C52.07,56.72,49.89,56.81,48.18,56.92Z"/><path class="cls-3" d="M95.43,38.73a21.2,21.2,0,0,1-1.81,7.63,17.1,17.1,0,0,1-3.85,5.76,6.69,6.69,0,0,1-.76.65c-.26.19-.58.36-.88.13s-.19-.58-.07-.88c.69-1.89,1.44-3.77,2.07-5.68a35.1,35.1,0,0,0,.92-3.77,6.12,6.12,0,0,0,0-1.6,1.42,1.42,0,0,0-1-1.3,10.56,10.56,0,0,0-2.15-.46,28.18,28.18,0,0,0-5.51.13l-3.86.4c-.29,0-.64,0-.72-.28a.88.88,0,0,1,.22-.74,10.05,10.05,0,0,1,1.59-1.07,17.8,17.8,0,0,1,6.69-1.94,21.1,21.1,0,0,1,7,.34c.23.06.47.12.69.2,1.15.42,1.27.63,1.4,1.92A5.19,5.19,0,0,1,95.43,38.73Z"/><path class="cls-2" d="M22.19,25.3c-.64.6-1.22,1.23-1.88,1.74a11.39,11.39,0,0,1-10.88,2,7.17,7.17,0,0,1-5.14-6.27,8.87,8.87,0,0,1,.83-5.66A9,9,0,0,1,11,12.74a16.47,16.47,0,0,1,6.37-.28c1.4.18,2.79.49,4.18.73l.19,0s0-.06,0-.08a22.49,22.49,0,0,0-.2-4.64c-.46-2.37-1.83-3.6-4.31-4A17,17,0,0,0,9,5.62c-.65.24-1.3.49-2,.69s-.91,0-.94-.63c0-.76,0-1.53,0-2.29a1.26,1.26,0,0,1,.85-1.17A34.77,34.77,0,0,1,10.3.9a19.35,19.35,0,0,1,10-.37,7.9,7.9,0,0,1,6.44,6.92A22.17,22.17,0,0,1,27,10.6c0,3.19,0,6.37,0,9.56a20,20,0,0,0,.18,2.31,10.3,10.3,0,0,0,1.21,3.25A1.17,1.17,0,0,1,28,27.5c-.62.42-1.24.84-1.87,1.24a1.26,1.26,0,0,1-1.91-.28c-.59-.75-1.08-1.58-1.6-2.39C22.43,25.83,22.32,25.56,22.19,25.3ZM16.25,16c-.89.09-1.79.13-2.66.3A4.3,4.3,0,0,0,9.85,19.6a7.45,7.45,0,0,0-.11,2.11A3.74,3.74,0,0,0,13,25.39a8.51,8.51,0,0,0,5.75-1.09,5.38,5.38,0,0,0,2.89-3.93c.15-1.05.14-2.13.22-3.19a.41.41,0,0,0-.39-.51A33.11,33.11,0,0,0,16.25,16Z"/><path class="cls-2" d="M57.39,23.43l1-3.83q2.2-8.54,4.42-17.07a.22.22,0,0,1,0-.08c.37-1.36.71-1.61,2.12-1.62h2.65c.64,0,.88.26.82.9a3.64,3.64,0,0,1-.17.86q-3.84,12.33-7.7,24.67c-.44,1.43-.76,1.66-2.27,1.66-.78,0-1.55,0-2.33,0-1.19,0-1.58-.33-1.85-1.47L51.56,17q-1.14-4.77-2.3-9.54a.72.72,0,0,0-.18-.36c-.27,1.15-.55,2.3-.82,3.45q-2,8.36-4,16.71s0,.08,0,.12c-.34,1.27-.65,1.52-2,1.53-1,0-1.92,0-2.89,0A1.3,1.3,0,0,1,38,27.94c-.4-1.17-.76-2.34-1.12-3.51q-3.3-10.82-6.58-21.62a10,10,0,0,1-.25-1,.7.7,0,0,1,.76-.92c1.11,0,2.22,0,3.33,0a1.32,1.32,0,0,1,1.41,1c.33,1.16.65,2.34,1,3.51Q38.77,14.11,41,22.84a.93.93,0,0,0,.17.35c.07-.28.15-.55.22-.83Q43.7,12.45,46,2.51c.34-1.42.66-1.67,2.13-1.68h2.45a1.45,1.45,0,0,1,1.66,1.34c.36,1.46.7,2.93,1,4.4l3.93,16.66.06.18Z"/><path class="cls-2" d="M80.3,29.77a21.58,21.58,0,0,1-7.45-1.4,9.05,9.05,0,0,1-1.28-.65,1.68,1.68,0,0,1-.88-1.52c0-.58,0-1.15,0-1.73,0-.79.41-1.07,1.16-.82s1.64.66,2.48.92a17,17,0,0,0,8.07.69,6.08,6.08,0,0,0,2.35-.9,3.38,3.38,0,0,0-.24-5.86,37.1,37.1,0,0,0-3.77-1.44c-1.53-.53-3.12-.95-4.62-1.55a7.64,7.64,0,0,1-4.87-5.39,7.18,7.18,0,0,1,2.6-7.71A10.78,10.78,0,0,1,80,.06a18.47,18.47,0,0,1,7.73,1,7.71,7.71,0,0,1,1.46.74A1.59,1.59,0,0,1,90,3.25c0,.61,0,1.23,0,1.84s-.39.9-1,.71-1.34-.53-2-.76a14.65,14.65,0,0,0-7.63-.5,7,7,0,0,0-1.09.37,3.28,3.28,0,0,0-.52,5.7A14.07,14.07,0,0,0,80.84,12c1.94.64,3.91,1.21,5.81,1.94a7,7,0,0,1,4.56,4.64,8,8,0,0,1-3.69,9.34,13,13,0,0,1-5.46,1.72C81.48,29.72,80.89,29.74,80.3,29.77Z"/></g><path class="cls-2" d="M26.33,73.23a5.38,5.38,0,0,1-.21,1.55A3.41,3.41,0,0,1,25.5,76a2.64,2.64,0,0,1-1,.78,3.19,3.19,0,0,1-1.39.28A3.59,3.59,0,0,1,22.3,77a4.34,4.34,0,0,1-.72-.24v2.77H19.49V69.8c.19,0,.4-.11.65-.16l.76-.13q.39-.06.81-.09c.27,0,.54,0,.79,0a4.33,4.33,0,0,1,1.62.28,3.2,3.2,0,0,1,1.2.76,3.34,3.34,0,0,1,.75,1.21A4.75,4.75,0,0,1,26.33,73.23Zm-2.13,0a2.51,2.51,0,0,0-.43-1.54,1.5,1.5,0,0,0-1.28-.58l-.52,0a2.9,2.9,0,0,0-.39,0V75a2.06,2.06,0,0,0,.51.21,2.72,2.72,0,0,0,.63.08C23.71,75.28,24.2,74.62,24.2,73.28Z"/><path class="cls-2" d="M32.37,71.4l-.66-.15a4.12,4.12,0,0,0-.81-.08,2.88,2.88,0,0,0-.47,0,3.71,3.71,0,0,0-.41.07V76.9H27.94v-7a13.15,13.15,0,0,1,1.32-.37A8,8,0,0,1,31,69.4a3,3,0,0,1,.4,0l.48,0,.47.09a1.83,1.83,0,0,1,.41.12Z"/><path class="cls-2" d="M33.35,73.28a4.5,4.5,0,0,1,.3-1.71,3.53,3.53,0,0,1,.79-1.22,3.22,3.22,0,0,1,1.12-.74,3.5,3.5,0,0,1,1.31-.25,3.23,3.23,0,0,1,2.47,1,3.94,3.94,0,0,1,.91,2.82c0,.12,0,.25,0,.4s0,.27,0,.38H35.48a1.38,1.38,0,0,0,.61,1,2.41,2.41,0,0,0,1.42.38,6.09,6.09,0,0,0,1.13-.1,4.29,4.29,0,0,0,.9-.26l.28,1.69a4,4,0,0,1-.45.17c-.19,0-.39.1-.62.14s-.47.08-.74.11a6.79,6.79,0,0,1-.78,0,4.69,4.69,0,0,1-1.72-.29A3.43,3.43,0,0,1,34.29,76a3.13,3.13,0,0,1-.71-1.21A4.6,4.6,0,0,1,33.35,73.28Zm4.89-.79a2.27,2.27,0,0,0-.09-.52,1.22,1.22,0,0,0-.24-.45,1.19,1.19,0,0,0-.41-.32,1.5,1.5,0,0,0-1.2,0,1.23,1.23,0,0,0-.42.32,1.26,1.26,0,0,0-.26.45,3.18,3.18,0,0,0-.14.53Z"/><path class="cls-2" d="M44,75.41a2.19,2.19,0,0,0,.81-.11.44.44,0,0,0,.24-.44.54.54,0,0,0-.31-.44,5.54,5.54,0,0,0-.94-.42,9.28,9.28,0,0,1-.88-.38,2.48,2.48,0,0,1-.68-.47,1.8,1.8,0,0,1-.43-.65,2.25,2.25,0,0,1-.16-.91A2,2,0,0,1,42.39,70a3.35,3.35,0,0,1,2.11-.6,7.65,7.65,0,0,1,1.29.11,6.68,6.68,0,0,1,1,.26l-.37,1.62c-.24-.08-.5-.15-.79-.22a4.57,4.57,0,0,0-1-.1c-.65,0-1,.18-1,.55a.51.51,0,0,0,0,.22.43.43,0,0,0,.17.19,1.91,1.91,0,0,0,.34.2,5.43,5.43,0,0,0,.55.23,9.09,9.09,0,0,1,1.13.5,2.58,2.58,0,0,1,.71.53,1.63,1.63,0,0,1,.36.64,2.78,2.78,0,0,1,.11.81,1.87,1.87,0,0,1-.82,1.64A4.11,4.11,0,0,1,44,77.1a6.68,6.68,0,0,1-1.63-.17,5.18,5.18,0,0,1-.9-.28L41.78,75a6.55,6.55,0,0,0,1.09.33A5.22,5.22,0,0,0,44,75.41Z"/><path class="cls-2" d="M48.29,73.28a4.5,4.5,0,0,1,.3-1.71,3.53,3.53,0,0,1,.79-1.22,3.31,3.31,0,0,1,1.12-.74,3.5,3.5,0,0,1,1.31-.25,3.25,3.25,0,0,1,2.48,1,4,4,0,0,1,.9,2.82c0,.12,0,.25,0,.4s0,.27,0,.38H50.43a1.34,1.34,0,0,0,.6,1,2.43,2.43,0,0,0,1.43.38,6,6,0,0,0,1.12-.1,4.29,4.29,0,0,0,.9-.26l.28,1.69a4,4,0,0,1-.45.17c-.18,0-.39.1-.62.14l-.73.11a6.85,6.85,0,0,1-.79,0,4.73,4.73,0,0,1-1.72-.29A3.43,3.43,0,0,1,49.23,76a3.13,3.13,0,0,1-.71-1.21A4.88,4.88,0,0,1,48.29,73.28Zm4.89-.79a2.27,2.27,0,0,0-.09-.52,1.22,1.22,0,0,0-.24-.45,1.16,1.16,0,0,0-.4-.32,1.38,1.38,0,0,0-.61-.13,1.4,1.4,0,0,0-.6.12,1.23,1.23,0,0,0-.42.32,1.43,1.43,0,0,0-.26.45,3.16,3.16,0,0,0-.13.53Z"/><path class="cls-2" d="M56.8,69.8a12.94,12.94,0,0,1,1.37-.28,11.11,11.11,0,0,1,1.76-.14,4.11,4.11,0,0,1,1.56.25,2.33,2.33,0,0,1,1,.69A2.68,2.68,0,0,1,63,71.38a5.31,5.31,0,0,1,.16,1.37V76.9H61.07V73a2.75,2.75,0,0,0-.27-1.42,1.09,1.09,0,0,0-1-.42l-.48,0-.45,0V76.9H56.8Z"/><path class="cls-2" d="M65,67.72l2.08-.34v2.17h2.5v1.73h-2.5v2.59a2.1,2.1,0,0,0,.23,1,1,1,0,0,0,.93.39,4.2,4.2,0,0,0,.69-.06,3.09,3.09,0,0,0,.65-.18l.29,1.62A4.75,4.75,0,0,1,69,77a5.24,5.24,0,0,1-1.14.11,3.78,3.78,0,0,1-1.41-.23,2.2,2.2,0,0,1-.89-.64,2.38,2.38,0,0,1-.47-1A5.84,5.84,0,0,1,65,73.9Z"/><path class="cls-2" d="M73.35,75.41a2.19,2.19,0,0,0,.81-.11.44.44,0,0,0,.24-.44.54.54,0,0,0-.31-.44,5.37,5.37,0,0,0-.93-.42,8.5,8.5,0,0,1-.89-.38,2.64,2.64,0,0,1-.68-.47,1.8,1.8,0,0,1-.43-.65,2.25,2.25,0,0,1-.16-.91A2,2,0,0,1,71.77,70a3.37,3.37,0,0,1,2.11-.6,7.65,7.65,0,0,1,1.29.11,6.35,6.35,0,0,1,1,.26l-.37,1.62c-.24-.08-.5-.15-.79-.22A4.54,4.54,0,0,0,74,71c-.66,0-1,.18-1,.55a.51.51,0,0,0,0,.22.43.43,0,0,0,.17.19,2.36,2.36,0,0,0,.34.2c.15.07.33.15.55.23a9.31,9.31,0,0,1,1.14.5,2.67,2.67,0,0,1,.7.53,1.52,1.52,0,0,1,.36.64,2.78,2.78,0,0,1,.11.81,1.85,1.85,0,0,1-.82,1.64,4.06,4.06,0,0,1-2.31.56,6.73,6.73,0,0,1-1.63-.17,5.85,5.85,0,0,1-.9-.28L71.16,75a6.85,6.85,0,0,0,1.09.33A5.22,5.22,0,0,0,73.35,75.41Z"/></g></g></svg>