<svg xmlns="http://www.w3.org/2000/svg" viewBox="0 0 711.49 220.87"><defs><style>.cls-1{fill:#fff;}.cls-2{fill:none;stroke:#fff;stroke-miterlimit:10;stroke-width:2px;}.cls-3{fill:#f90;}</style></defs><title>cf19-white-logo</title><g id="Layer_2" data-name="Layer 2"><g id="Layer_1-2" data-name="Layer 1"><path class="cls-1" d="M637.44,43.05q2-.84,4.25-1.93c1.48-.73,2.92-1.52,4.32-2.39s2.76-1.78,4-2.75a28.13,28.13,0,0,0,3.48-3h7.32V81.66H650.38V46.57a32.3,32.3,0,0,1-4.72,2.57q-2.6,1.15-5.06,2Z"/><path class="cls-1" d="M700,62.32a12.76,12.76,0,0,1-3.27,1,18.28,18.28,0,0,1-3.06.32,24.53,24.53,0,0,1-7.81-1.09,14,14,0,0,1-5.31-3.09,12.35,12.35,0,0,1-3.06-4.82,19,19,0,0,1,0-12,15.78,15.78,0,0,1,3-5.38,16.26,16.26,0,0,1,5.16-4,16.7,16.7,0,0,1,7.57-1.58q9.06,0,13.67,5.59t4.61,16.07a37.93,37.93,0,0,1-1.79,12.17,21.64,21.64,0,0,1-5.56,8.86,24.43,24.43,0,0,1-9.6,5.45,47.3,47.3,0,0,1-13.85,1.94c-.05-1.5-.12-3-.21-4.37s-.19-2.85-.29-4.36a50.16,50.16,0,0,0,7.25-.59,20.28,20.28,0,0,0,5.7-1.76,13,13,0,0,0,4.18-3.27A14.82,14.82,0,0,0,700,62.32Zm-5.14-6.82a19.14,19.14,0,0,0,3.38-.31,7.35,7.35,0,0,0,2.6-.88v-.64a3.6,3.6,0,0,1,0-.56,4.73,4.73,0,0,0,0-.49,38.32,38.32,0,0,0-.42-4.75,12.84,12.84,0,0,0-1.2-3.87A6.64,6.64,0,0,0,697,41.4a6.35,6.35,0,0,0-3.55-.95,6.11,6.11,0,0,0-3,.7,6,6,0,0,0-2,1.83,8.68,8.68,0,0,0-1.16,2.46,9.31,9.31,0,0,0-.38,2.61c0,2.53.62,4.41,1.86,5.62S692.08,55.5,694.89,55.5Z"/><path class="cls-1" d="M36,173.1a39.69,39.69,0,0,1-15.54-2.82,31.25,31.25,0,0,1-11.26-7.87,32.72,32.72,0,0,1-6.82-12A49.9,49.9,0,0,1,.15,135,46.63,46.63,0,0,1,2.61,119.5a36.55,36.55,0,0,1,7-12.16,31.16,31.16,0,0,1,11.05-8,35.72,35.72,0,0,1,14.55-2.88,58.4,58.4,0,0,1,9.85.84A45.67,45.67,0,0,1,54.44,100l-2.95,11.12a31.71,31.71,0,0,0-6.82-2.26,38.78,38.78,0,0,0-8.23-.84q-11,0-16.81,6.89T13.79,135a41.29,41.29,0,0,0,1.34,10.83,22.35,22.35,0,0,0,4.22,8.44,18.77,18.77,0,0,0,7.38,5.41,28.15,28.15,0,0,0,11,1.9,42,42,0,0,0,9.43-1,34.94,34.94,0,0,0,6.61-2.11l1.83,11a14,14,0,0,1-3.24,1.34,46,46,0,0,1-4.78,1.12q-2.67.49-5.69.85A51.74,51.74,0,0,1,36,173.1Z"/><path class="cls-1" d="M136.59,134.84a46.22,46.22,0,0,1-2.53,15.75,36.23,36.23,0,0,1-7.1,12.1,31.25,31.25,0,0,1-10.91,7.8,35.9,35.9,0,0,1-27.56,0,31.25,31.25,0,0,1-10.91-7.8,36.06,36.06,0,0,1-7.1-12.1,50.1,50.1,0,0,1,0-31.44A35.85,35.85,0,0,1,77.58,107a31.27,31.27,0,0,1,10.91-7.81,36,36,0,0,1,27.56,0A31.27,31.27,0,0,1,127,107a36,36,0,0,1,7.1,12.16A46.44,46.44,0,0,1,136.59,134.84Zm-13.64,0q0-12.37-5.56-19.63A18,18,0,0,0,102.27,108a18,18,0,0,0-15.12,7.24q-5.57,7.26-5.56,19.63t5.56,19.62q5.55,7.24,15.12,7.24t15.12-7.24Q122.94,147.21,123,134.84Z"/><path class="cls-1" d="M206.5,64.51l13.08-2.25v107q-4.5,1.26-11.54,2.53a92.43,92.43,0,0,1-16.17,1.27,41,41,0,0,1-15.19-2.68,32.59,32.59,0,0,1-11.54-7.59,33.42,33.42,0,0,1-7.38-12,46,46,0,0,1-2.6-16,51.78,51.78,0,0,1,2.18-15.47,34.48,34.48,0,0,1,6.4-12.1,29,29,0,0,1,10.33-7.88,33.27,33.27,0,0,1,14-2.81,33.82,33.82,0,0,1,11.18,1.69,35.24,35.24,0,0,1,7.25,3.23Zm0,49.23a27.22,27.22,0,0,0-6.9-3.8,25.88,25.88,0,0,0-9.84-1.83,21.07,21.07,0,0,0-9.64,2,17.75,17.75,0,0,0-6.54,5.63,23.73,23.73,0,0,0-3.65,8.51,46.69,46.69,0,0,0-1.13,10.55q0,12.79,6.33,19.76t16.88,7a67.18,67.18,0,0,0,8.93-.49,44.05,44.05,0,0,0,5.56-1Z"/><path class="cls-1" d="M242.22,135A46.59,46.59,0,0,1,245,118a35.42,35.42,0,0,1,7.45-12,30.29,30.29,0,0,1,10.69-7.17,33.28,33.28,0,0,1,12.38-2.39q14.76,0,22.65,9.21t7.87,28.06v2.18a20.67,20.67,0,0,1-.14,2.46H255.87q.84,11.4,6.61,17.3t18,5.91a48.49,48.49,0,0,0,11.61-1.19,42.3,42.3,0,0,0,7.1-2.32L301,169a39.52,39.52,0,0,1-8.37,2.67,59.37,59.37,0,0,1-13.57,1.41,43.09,43.09,0,0,1-16.53-2.89,30.89,30.89,0,0,1-11.47-7.94,32.59,32.59,0,0,1-6.68-12A51,51,0,0,1,242.22,135Zm50.22-7.18q.13-8.85-4.43-14.55t-12.59-5.7a17.3,17.3,0,0,0-7.95,1.76,18.69,18.69,0,0,0-5.84,4.57,21.12,21.12,0,0,0-3.72,6.47,31.42,31.42,0,0,0-1.76,7.45Z"/><path class="cls-1" d="M329.85,171.41V67.84H399.2V87.42h-46v21.67h40.95v19.58H353.16v42.74Z"/><path class="cls-1" d="M413.39,132.7a48,48,0,0,1,3.22-18.31,39.07,39.07,0,0,1,8.44-13.07,35,35,0,0,1,12-7.92,37.51,37.51,0,0,1,14-2.69q16.74,0,26.46,10.23t9.71,30.12q0,1.94-.15,4.26t-.3,4.11H436.26a14.82,14.82,0,0,0,6.42,10.91q5.69,4,15.25,4a64.19,64.19,0,0,0,12-1.12,46,46,0,0,0,9.64-2.76l3,18.08a31,31,0,0,1-4.78,1.79,63.13,63.13,0,0,1-6.66,1.57q-3.66.67-7.84,1.12a78.23,78.23,0,0,1-8.37.45,49.58,49.58,0,0,1-18.46-3.14,35.89,35.89,0,0,1-13-8.59,34.07,34.07,0,0,1-7.62-12.93A51,51,0,0,1,413.39,132.7Zm52.31-8.52a22.9,22.9,0,0,0-1-5.53,14,14,0,0,0-2.54-4.78,13.65,13.65,0,0,0-4.34-3.44,14.19,14.19,0,0,0-6.5-1.34,14.85,14.85,0,0,0-6.42,1.27,13.38,13.38,0,0,0-4.49,3.36,15.1,15.1,0,0,0-2.76,4.86,31.71,31.71,0,0,0-1.42,5.6Z"/><path class="cls-1" d="M531.46,155.42q6.12,0,8.67-1.2t2.54-4.63c0-1.8-1.1-3.36-3.29-4.71a63.49,63.49,0,0,0-10-4.56,102.52,102.52,0,0,1-9.5-4,28.17,28.17,0,0,1-7.24-5,20.2,20.2,0,0,1-4.64-7,25.81,25.81,0,0,1-1.64-9.71q0-11.06,8.22-17.49t22.57-6.42A72.19,72.19,0,0,1,550.89,92a64.34,64.34,0,0,1,10.46,2.76l-3.89,17.34a79,79,0,0,0-8.44-2.39,45.74,45.74,0,0,0-10.24-1q-10.46,0-10.46,5.83a6,6,0,0,0,.45,2.39,5.08,5.08,0,0,0,1.79,2,25.36,25.36,0,0,0,3.66,2.1c1.55.75,3.51,1.58,5.91,2.48a92.21,92.21,0,0,1,12.1,5.35,29,29,0,0,1,7.55,5.7,17.48,17.48,0,0,1,3.88,6.78,30,30,0,0,1,1.13,8.65q0,11.63-8.75,17.6t-24.73,6a71.32,71.32,0,0,1-17.41-1.79,70.28,70.28,0,0,1-9.64-3L508,150.63a73.15,73.15,0,0,0,11.66,3.52A57.19,57.19,0,0,0,531.46,155.42Z"/><path class="cls-1" d="M585.11,73.22l22.26-3.59V92.8h26.76v18.53H607.37V139q0,7,2.47,11.21t9.94,4.18a42.41,42.41,0,0,0,7.4-.67,38,38,0,0,0,7-1.87l3.14,17.34a64.91,64.91,0,0,1-9,2.84,52.68,52.68,0,0,1-12.11,1.19q-9.12,0-15.09-2.46a23.72,23.72,0,0,1-9.57-6.88,25.53,25.53,0,0,1-5-10.68,62.92,62.92,0,0,1-1.42-13.9Z"/><path class="cls-1" d="M348.65,203.37a4.43,4.43,0,0,1-.38,1.76,9.1,9.1,0,0,1-1,1.67,13.67,13.67,0,0,1-1.33,1.57c-.5.51-1,1-1.5,1.49q-.41.38-.9.9c-.33.35-.65.7-.95,1.05a9,9,0,0,0-.77,1,1.69,1.69,0,0,0-.35.81h7.69v2.55h-11a3.48,3.48,0,0,1,0-.49v-.44a6.11,6.11,0,0,1,.39-2.21,8.31,8.31,0,0,1,1-1.88,12.22,12.22,0,0,1,1.4-1.65c.51-.52,1-1,1.55-1.52s.78-.76,1.14-1.13a11.65,11.65,0,0,0,1-1.08,6,6,0,0,0,.66-1.1,3,3,0,0,0,.25-1.16,2.13,2.13,0,0,0-.75-1.85,3,3,0,0,0-1.82-.55,3.89,3.89,0,0,0-1.3.2,5.2,5.2,0,0,0-1.06.47,8.32,8.32,0,0,0-.82.56c-.23.2-.4.35-.52.47l-1.5-2.13a8.52,8.52,0,0,1,2.46-1.61,7.68,7.68,0,0,1,3-.61,5.6,5.6,0,0,1,4.08,1.31A4.87,4.87,0,0,1,348.65,203.37Z"/><path class="cls-1" d="M356.72,216.55a11,11,0,0,1-1.39-.09c-.48-.06-.93-.13-1.35-.22s-.81-.19-1.16-.3a4.63,4.63,0,0,1-.8-.31l.6-2.58a12.07,12.07,0,0,0,1.52.57,8.35,8.35,0,0,0,2.47.31,4.34,4.34,0,0,0,2.85-.76,2.59,2.59,0,0,0,.88-2,2.42,2.42,0,0,0-1.27-2.26,4.25,4.25,0,0,0-1.34-.47,9.31,9.31,0,0,0-1.62-.14h-1v-2.45h1.25a5.76,5.76,0,0,0,1.16-.11,3.07,3.07,0,0,0,1.06-.4,2.13,2.13,0,0,0,1.08-2,2.21,2.21,0,0,0-.23-1,2.1,2.1,0,0,0-.59-.7,2.56,2.56,0,0,0-.83-.4,4.09,4.09,0,0,0-1-.12,5.41,5.41,0,0,0-2,.34,8.28,8.28,0,0,0-1.55.76l-1.1-2.25a9,9,0,0,1,.85-.47,10.77,10.77,0,0,1,1.12-.48,8.06,8.06,0,0,1,1.31-.36,7.64,7.64,0,0,1,1.47-.14,8,8,0,0,1,2.5.35,4.57,4.57,0,0,1,1.73,1,4,4,0,0,1,1,1.5,5.19,5.19,0,0,1,.33,1.88,3.67,3.67,0,0,1-.66,2.15,4.38,4.38,0,0,1-1.71,1.45,4.93,4.93,0,0,1,2.24,1.57,4.34,4.34,0,0,1,.88,2.82,5.58,5.58,0,0,1-.4,2.14,4.25,4.25,0,0,1-1.22,1.69,6,6,0,0,1-2.09,1.13A9.84,9.84,0,0,1,356.72,216.55Z"/><path class="cls-1" d="M374.37,205.84a10.36,10.36,0,0,0-1-.26,7,7,0,0,0-1.53-.14,5.66,5.66,0,0,0-1.06.1,5.4,5.4,0,0,0-.79.17v10.47h-3V203.74a15.85,15.85,0,0,1,2.18-.61,13.79,13.79,0,0,1,2.91-.29,6.16,6.16,0,0,1,.7,0c.27,0,.53.06.8.1s.53.09.78.15l.59.16Z"/><path class="cls-1" d="M388,215.78a18.4,18.4,0,0,1-2.26.5,17.55,17.55,0,0,1-2.86.22,7.73,7.73,0,0,1-2.77-.47,5.87,5.87,0,0,1-2.09-1.36,6.17,6.17,0,0,1-1.32-2.15,8.17,8.17,0,0,1-.46-2.84,9.9,9.9,0,0,1,.38-2.81,6.19,6.19,0,0,1,1.14-2.16,5.15,5.15,0,0,1,1.82-1.38,5.87,5.87,0,0,1,2.48-.49,5.62,5.62,0,0,1,1.67.23,7.06,7.06,0,0,1,1.25.5V197.3l3-.5Zm-8.67-6.17a4.74,4.74,0,0,0,.95,3.13,3.25,3.25,0,0,0,2.63,1.14,10.74,10.74,0,0,0,1.23-.06,8.09,8.09,0,0,0,.84-.14v-7.49a4.56,4.56,0,0,0-1.06-.51,4.14,4.14,0,0,0-1.41-.24,2.69,2.69,0,0,0-2.41,1.12A5.36,5.36,0,0,0,379.36,209.61Z"/><path class="cls-1" d="M409.36,216.18c-.24-.69-.48-1.36-.73-2s-.49-1.35-.73-2h-7.31c-.23.69-.47,1.38-.71,2.06s-.48,1.34-.71,2h-3.28q1-2.77,1.85-5.12t1.71-4.45c.56-1.4,1.11-2.73,1.66-4s1.11-2.52,1.7-3.75h3c.58,1.23,1.15,2.48,1.7,3.75s1.1,2.59,1.66,4,1.13,2.88,1.72,4.45,1.21,3.27,1.86,5.12Zm-5.11-14c-.38.88-.82,1.95-1.31,3.22s-1,2.64-1.54,4.12h5.7c-.54-1.48-1.05-2.86-1.55-4.15S404.61,203.07,404.25,202.22Z"/><path class="cls-1" d="M425.16,215.78c-.58.15-1.34.3-2.27.46a18.22,18.22,0,0,1-3.07.24,6.71,6.71,0,0,1-2.63-.45,4.22,4.22,0,0,1-1.7-1.25,5,5,0,0,1-.92-1.91,10.3,10.3,0,0,1-.27-2.44v-7.31h3V210a5.63,5.63,0,0,0,.61,3,2.42,2.42,0,0,0,2.14.89c.36,0,.75,0,1.16,0a5.78,5.78,0,0,0,.91-.12V203.12h3Z"/><path class="cls-1" d="M439.8,214.85a5.89,5.89,0,0,1-1.59,4.57,7,7,0,0,1-4.86,1.45,13.74,13.74,0,0,1-2.33-.2,13.45,13.45,0,0,1-2.06-.52l.55-2.57a9.42,9.42,0,0,0,1.76.52,11,11,0,0,0,2.13.2,3.67,3.67,0,0,0,2.6-.75,2.94,2.94,0,0,0,.78-2.22v-.5a8,8,0,0,1-1.19.45,5.77,5.77,0,0,1-1.69.22,6.21,6.21,0,0,1-2.28-.4,4.89,4.89,0,0,1-1.78-1.17A5.3,5.3,0,0,1,428.7,212a7.85,7.85,0,0,1-.42-2.68,7.62,7.62,0,0,1,.44-2.62,5.59,5.59,0,0,1,3.31-3.37,7.29,7.29,0,0,1,2.72-.48,16.71,16.71,0,0,1,2.8.23c.88.15,1.63.3,2.25.47Zm-8.42-5.54a4,4,0,0,0,.84,2.81,2.84,2.84,0,0,0,2.16.88,4.3,4.3,0,0,0,1.36-.2,4,4,0,0,0,1-.47v-6.77c-.22-.05-.49-.09-.8-.13a8.06,8.06,0,0,0-1.2-.07,3.09,3.09,0,0,0-2.53,1.09A4.44,4.44,0,0,0,431.38,209.31Z"/><path class="cls-1" d="M448.11,207.66h6.72v2.77h-6.72Z"/><path class="cls-1" d="M479.05,203.37a4.42,4.42,0,0,1-.37,1.76,8.61,8.61,0,0,1-1,1.67,13.67,13.67,0,0,1-1.33,1.57c-.5.51-1,1-1.5,1.49q-.4.38-.9.9c-.33.35-.65.7-1,1.05a9,9,0,0,0-.77,1,1.79,1.79,0,0,0-.35.81h7.69v2.55h-11a3.48,3.48,0,0,1,0-.49v-.44A6.11,6.11,0,0,1,469,213a8.72,8.72,0,0,1,1-1.88,12.22,12.22,0,0,1,1.4-1.65c.52-.52,1-1,1.55-1.52l1.15-1.13a13.09,13.09,0,0,0,1-1.08,6,6,0,0,0,.66-1.1,2.79,2.79,0,0,0,.25-1.16,2.13,2.13,0,0,0-.75-1.85,3,3,0,0,0-1.82-.55,3.89,3.89,0,0,0-1.3.2,5.46,5.46,0,0,0-1.06.47,7.1,7.1,0,0,0-.81.56c-.24.2-.41.35-.53.47l-1.5-2.13a8.52,8.52,0,0,1,2.46-1.61,7.71,7.71,0,0,1,3-.61,5.59,5.59,0,0,1,4.08,1.31A4.87,4.87,0,0,1,479.05,203.37Z"/><path class="cls-1" d="M490.79,211.23a3.18,3.18,0,0,0-.33-1.47,2.61,2.61,0,0,0-1.13-1.1,6.85,6.85,0,0,0-2.18-.67,21.48,21.48,0,0,0-3.43-.23c.18-1.6.32-3.12.43-4.56s.18-2.88.25-4.33h8.84v2.55H487c0,.28,0,.6-.07,1s0,.72-.07,1.09-.05.71-.09,1-.06.62-.1.85a9.2,9.2,0,0,1,5.46,1.69,5,5,0,0,1,1.76,4.06,5.74,5.74,0,0,1-.4,2.17,4.44,4.44,0,0,1-1.22,1.72,5.84,5.84,0,0,1-2.08,1.14,9.44,9.44,0,0,1-2.92.41,9.12,9.12,0,0,1-1.37-.1c-.47-.07-.91-.14-1.34-.24s-.8-.18-1.13-.28a3.89,3.89,0,0,1-.75-.28l.57-2.55a9.84,9.84,0,0,0,1.51.54,8.78,8.78,0,0,0,2.41.29,5.93,5.93,0,0,0,1.68-.21,3.1,3.1,0,0,0,1.13-.59,2.39,2.39,0,0,0,.64-.86A2.79,2.79,0,0,0,490.79,211.23Z"/><path class="cls-1" d="M497.18,199.67l3-.5v4h4.65v2.52H500.2V211a3.9,3.9,0,0,0,.5,2.25,2,2,0,0,0,1.7.67,5.35,5.35,0,0,0,1.46-.18,8.23,8.23,0,0,0,1-.32l.5,2.4a12,12,0,0,1-1.37.46,7.4,7.4,0,0,1-2,.24,6.37,6.37,0,0,1-2.34-.38,3.44,3.44,0,0,1-1.48-1.09,4.05,4.05,0,0,1-.77-1.72,10,10,0,0,1-.23-2.31Z"/><path class="cls-1" d="M507.77,216.18V197.3l3-.5v6.47A7.21,7.21,0,0,1,512,203a6.54,6.54,0,0,1,1.31-.13,6.77,6.77,0,0,1,2.61.44,4.09,4.09,0,0,1,1.66,1.22,4.66,4.66,0,0,1,.89,1.89,10.81,10.81,0,0,1,.26,2.44v7.35h-3v-6.87a10.08,10.08,0,0,0-.14-1.79,3,3,0,0,0-.45-1.19,1.78,1.78,0,0,0-.83-.68,3.54,3.54,0,0,0-1.3-.21,6.57,6.57,0,0,0-1.23.12,9.25,9.25,0,0,0-.92.23v10.39Z"/><path class="cls-1" d="M539.78,216.18c-.23-.69-.47-1.36-.73-2s-.49-1.35-.72-2H531c-.23.69-.47,1.38-.71,2.06s-.48,1.34-.72,2h-3.27q1-2.77,1.85-5.12t1.71-4.45c.55-1.4,1.11-2.73,1.66-4s1.11-2.52,1.69-3.75h3c.58,1.23,1.14,2.48,1.69,3.75s1.11,2.59,1.66,4,1.14,2.88,1.73,4.45,1.21,3.27,1.86,5.12Zm-5.11-14c-.38.88-.82,1.95-1.31,3.22s-1,2.64-1.53,4.12h5.69c-.53-1.48-1-2.86-1.55-4.15S535,203.07,534.67,202.22Z"/><path class="cls-1" d="M555.59,215.78c-.58.15-1.34.3-2.27.46a18.34,18.34,0,0,1-3.08.24,6.78,6.78,0,0,1-2.63-.45,4.29,4.29,0,0,1-1.7-1.25,5,5,0,0,1-.91-1.91,10.28,10.28,0,0,1-.28-2.44v-7.31h3V210a5.54,5.54,0,0,0,.61,3,2.41,2.41,0,0,0,2.13.89c.37,0,.76,0,1.17,0a6,6,0,0,0,.91-.12V203.12h3Z"/><path class="cls-1" d="M570.22,214.85a5.93,5.93,0,0,1-1.58,4.57,7,7,0,0,1-4.86,1.45,13.82,13.82,0,0,1-4.4-.72l.55-2.57a9.89,9.89,0,0,0,1.76.52,11,11,0,0,0,2.14.2,3.69,3.69,0,0,0,2.6-.75,3,3,0,0,0,.77-2.22v-.5a7.55,7.55,0,0,1-1.19.45,5.75,5.75,0,0,1-1.68.22,6.26,6.26,0,0,1-2.29-.4,4.77,4.77,0,0,1-1.77-1.17,5.46,5.46,0,0,1-1.15-1.94,8.11,8.11,0,0,1-.41-2.68,7.62,7.62,0,0,1,.44-2.62,5.59,5.59,0,0,1,1.27-2.05,5.71,5.71,0,0,1,2-1.32,7.21,7.21,0,0,1,2.72-.48,16.58,16.58,0,0,1,2.79.23,22.76,22.76,0,0,1,2.25.47Zm-8.41-5.54a4,4,0,0,0,.83,2.81,2.84,2.84,0,0,0,2.16.88,4.26,4.26,0,0,0,1.36-.2,3.89,3.89,0,0,0,1-.47v-6.77c-.22-.05-.48-.09-.8-.13a8,8,0,0,0-1.2-.07,3.05,3.05,0,0,0-2.52,1.09A4.44,4.44,0,0,0,561.81,209.31Z"/><path class="cls-1" d="M51.21,201.56h3.4v15.13h-3.4Z"/><path class="cls-1" d="M64.2,210.6a4.5,4.5,0,0,0-.4-2.23,1.5,1.5,0,0,0-1.39-.66c-.2,0-.41,0-.63,0l-.64.07v8.87H57.89V205.6c.28-.08.6-.15,1-.23s.77-.16,1.18-.22.84-.12,1.28-.15.87-.06,1.29-.06a5.44,5.44,0,0,1,2,.32,4.75,4.75,0,0,1,1.28.75,5.69,5.69,0,0,1,1.6-.79,6,6,0,0,1,1.67-.28,5.82,5.82,0,0,1,2.26.38,3.51,3.51,0,0,1,1.41,1.08,4.1,4.1,0,0,1,.72,1.66,10.81,10.81,0,0,1,.2,2.14v6.49H70.51V210.6a4.5,4.5,0,0,0-.4-2.23,1.5,1.5,0,0,0-1.39-.66,2.91,2.91,0,0,0-.73.14,2.62,2.62,0,0,0-.77.32,5.22,5.22,0,0,1,.19,1.06c0,.37,0,.77,0,1.19v6.27H64.2Z"/><path class="cls-1" d="M80.85,204.9a7.79,7.79,0,0,1,2.4.32,3.87,3.87,0,0,1,1.54.94,3.56,3.56,0,0,1,.82,1.49,7.31,7.31,0,0,1,.24,1.94v6.77q-.7.16-1.95.36a18.4,18.4,0,0,1-3,.21,9,9,0,0,1-2-.2,4.23,4.23,0,0,1-1.56-.64,2.93,2.93,0,0,1-1-1.17,4.07,4.07,0,0,1-.35-1.77,3.34,3.34,0,0,1,.41-1.7,3,3,0,0,1,1.08-1.11,5,5,0,0,1,1.55-.61,9,9,0,0,1,1.81-.18c.42,0,.8,0,1.13,0a5.08,5.08,0,0,1,.79.15v-.31a1.77,1.77,0,0,0-.5-1.33,2.41,2.41,0,0,0-1.75-.5,11,11,0,0,0-1.63.12,7.41,7.41,0,0,0-1.4.33L77,205.44c.19-.06.43-.12.71-.18s.6-.13.93-.18l1.06-.13C80.09,204.92,80.47,204.9,80.85,204.9Zm.26,9.52.91,0c.3,0,.53,0,.7-.07v-2.47l-.59-.08a6.39,6.39,0,0,0-.72-.05,5.9,5.9,0,0,0-.86.06,1.91,1.91,0,0,0-.71.21,1.28,1.28,0,0,0-.48.41,1.36,1.36,0,0,0,.34,1.72A2.91,2.91,0,0,0,81.11,214.42Z"/><path class="cls-1" d="M98.71,215.25a5.54,5.54,0,0,1-1.43,4.18,6.21,6.21,0,0,1-4.42,1.37,12.42,12.42,0,0,1-2.1-.19,12.78,12.78,0,0,1-1.94-.49l.56-2.73a10.36,10.36,0,0,0,1.61.48,9.19,9.19,0,0,0,1.91.18,2.65,2.65,0,0,0,2-.62,2.2,2.2,0,0,0,.58-1.57v-.41a5.16,5.16,0,0,1-1.09.36,5.7,5.7,0,0,1-1.21.12,4.64,4.64,0,0,1-3.64-1.41,5.66,5.66,0,0,1-1.27-3.94,6.51,6.51,0,0,1,.39-2.31,5,5,0,0,1,1.15-1.78,5.23,5.23,0,0,1,1.84-1.15,7.31,7.31,0,0,1,2.47-.4c.4,0,.8,0,1.21.06s.83.08,1.24.14.8.12,1.17.2.7.17,1,.26Zm-7.14-4.67c0,1.82.73,2.73,2.2,2.73a3.14,3.14,0,0,0,.94-.14,3.26,3.26,0,0,0,.75-.3v-5.2l-.57-.08c-.22,0-.48,0-.77,0a2.25,2.25,0,0,0-1.92.85A3.55,3.55,0,0,0,91.57,210.58Z"/><path class="cls-1" d="M105.33,201.88a1.8,1.8,0,0,1-.58,1.41,2,2,0,0,1-1.37.52,2,2,0,0,1-1.36-.52,1.77,1.77,0,0,1-.58-1.41,1.8,1.8,0,0,1,.58-1.41,2,2,0,0,1,1.36-.51,2,2,0,0,1,1.37.51A1.83,1.83,0,0,1,105.33,201.88ZM105,216.69h-3.25V205.2H105Z"/><path class="cls-1" d="M108.08,205.6a18.47,18.47,0,0,1,2.14-.45,17.33,17.33,0,0,1,2.75-.21,6.83,6.83,0,0,1,2.44.38A3.82,3.82,0,0,1,117,206.4a4.21,4.21,0,0,1,.8,1.66,8.38,8.38,0,0,1,.25,2.14v6.49h-3.26V210.6a4.48,4.48,0,0,0-.41-2.23,1.7,1.7,0,0,0-1.55-.66c-.24,0-.49,0-.75,0l-.7.07v8.87h-3.25Z"/><path class="cls-1" d="M120.4,211a6.88,6.88,0,0,1,.47-2.67,5.62,5.62,0,0,1,1.23-1.91,5.14,5.14,0,0,1,1.76-1.16,5.52,5.52,0,0,1,2-.39,5.11,5.11,0,0,1,3.87,1.49,6.21,6.21,0,0,1,1.42,4.4q0,.28,0,.63c0,.22,0,.42,0,.6h-7.38a2.12,2.12,0,0,0,.94,1.59,3.78,3.78,0,0,0,2.23.59,9.26,9.26,0,0,0,1.75-.16,6.52,6.52,0,0,0,1.41-.41l.44,2.65a6.36,6.36,0,0,1-.7.26,9.29,9.29,0,0,1-1,.23c-.36.06-.74.12-1.15.16s-.81.07-1.22.07a7.41,7.41,0,0,1-2.7-.46,5.35,5.35,0,0,1-1.9-1.26,5,5,0,0,1-1.11-1.89A7.44,7.44,0,0,1,120.4,211Zm7.64-1.24a3.13,3.13,0,0,0-.14-.81,2,2,0,0,0-.37-.7,2,2,0,0,0-.64-.5,2.06,2.06,0,0,0-1-.2,2.2,2.2,0,0,0-.93.19,1.93,1.93,0,0,0-.66.49,2.15,2.15,0,0,0-.4.71,4,4,0,0,0-.21.82Z"/><path class="cls-1" d="M142.13,215a1.83,1.83,0,0,1-.62,1.49,2.18,2.18,0,0,1-1.41.51,2.15,2.15,0,0,1-1.41-.51,2.11,2.11,0,0,1,0-3,2.15,2.15,0,0,1,1.41-.51,2.18,2.18,0,0,1,1.41.51A1.84,1.84,0,0,1,142.13,215Z"/><path class="cls-1" d="M156.67,217a7.35,7.35,0,0,1-5.62-2.06,8.16,8.16,0,0,1-1.93-5.83,8.82,8.82,0,0,1,.59-3.35,7.28,7.28,0,0,1,1.61-2.49,6.76,6.76,0,0,1,2.45-1.54,8.81,8.81,0,0,1,3.08-.52,10.12,10.12,0,0,1,3.12.47,6.11,6.11,0,0,1,1,.38,6.21,6.21,0,0,1,.57.3l-1,2.76a8.52,8.52,0,0,0-1.63-.64,7.94,7.94,0,0,0-2.1-.26,4.74,4.74,0,0,0-1.54.26,3.62,3.62,0,0,0-1.34.84,4.45,4.45,0,0,0-.93,1.5,6.34,6.34,0,0,0-.34,2.23,8,8,0,0,0,.22,1.95,4.2,4.2,0,0,0,.75,1.56,3.49,3.49,0,0,0,1.34,1,4.68,4.68,0,0,0,2,.38,10.56,10.56,0,0,0,1.33-.08,10.23,10.23,0,0,0,1.05-.21,4.49,4.49,0,0,0,.81-.28l.63-.28.94,2.73a8.33,8.33,0,0,1-2,.79A12,12,0,0,1,156.67,217Z"/><path class="cls-1" d="M170.63,208.09c-.29-.08-.63-.15-1-.23a6.27,6.27,0,0,0-1.26-.12,5.06,5.06,0,0,0-.73,0,5.6,5.6,0,0,0-.65.12v8.78h-3.25V205.81a20.15,20.15,0,0,1,2.06-.57,11.4,11.4,0,0,1,2.65-.28,5.33,5.33,0,0,1,.64,0l.74.08.74.13a3.79,3.79,0,0,1,.64.19Z"/><path class="cls-1" d="M172.16,211a7.07,7.07,0,0,1,.47-2.67,5.62,5.62,0,0,1,1.23-1.91,5.14,5.14,0,0,1,1.76-1.16,5.52,5.52,0,0,1,2-.39,5.11,5.11,0,0,1,3.87,1.49,6.21,6.21,0,0,1,1.42,4.4c0,.19,0,.4,0,.63s0,.42-.05.6H175.5a2.15,2.15,0,0,0,.94,1.59,3.8,3.8,0,0,0,2.23.59,9.45,9.45,0,0,0,1.76-.16,6.59,6.59,0,0,0,1.4-.41l.44,2.65a5.66,5.66,0,0,1-.7.26,9.29,9.29,0,0,1-1,.23c-.36.06-.74.12-1.15.16s-.81.07-1.22.07a7.41,7.41,0,0,1-2.7-.46,5.44,5.44,0,0,1-1.9-1.26,5,5,0,0,1-1.11-1.89A7.44,7.44,0,0,1,172.16,211Zm7.64-1.24a3.13,3.13,0,0,0-.14-.81,2,2,0,0,0-.37-.7,2.08,2.08,0,0,0-.63-.5,2.12,2.12,0,0,0-.95-.2,2.22,2.22,0,0,0-.94.19,2,2,0,0,0-.66.49,2.15,2.15,0,0,0-.4.71,4,4,0,0,0-.21.82Z"/><path class="cls-1" d="M189.59,204.9a7.79,7.79,0,0,1,2.4.32,3.87,3.87,0,0,1,1.54.94,3.45,3.45,0,0,1,.82,1.49,7.31,7.31,0,0,1,.24,1.94v6.77c-.47.11-1.11.23-1.94.36a18.53,18.53,0,0,1-3,.21,9,9,0,0,1-2-.2,4.38,4.38,0,0,1-1.56-.64,3,3,0,0,1-1-1.17,4.08,4.08,0,0,1-.34-1.77,3.34,3.34,0,0,1,.4-1.7,3,3,0,0,1,1.08-1.11,5,5,0,0,1,1.55-.61,9,9,0,0,1,1.81-.18c.43,0,.8,0,1.13,0a5.24,5.24,0,0,1,.8.15v-.31a1.78,1.78,0,0,0-.51-1.33,2.38,2.38,0,0,0-1.74-.5,11.11,11.11,0,0,0-1.64.12,7.41,7.41,0,0,0-1.4.33l-.41-2.62a6.54,6.54,0,0,1,.71-.18c.28-.07.59-.13.92-.18l1.06-.13C188.83,204.92,189.21,204.9,189.59,204.9Zm.26,9.52.92,0c.29,0,.52,0,.7-.07v-2.47l-.59-.08a6.71,6.71,0,0,0-.72-.05,5.94,5.94,0,0,0-.87.06,2,2,0,0,0-.71.21,1.28,1.28,0,0,0-.48.41,1.2,1.2,0,0,0-.17.66,1.12,1.12,0,0,0,.51,1.06A2.91,2.91,0,0,0,189.85,214.42Z"/><path class="cls-1" d="M197.43,202.34l3.25-.52v3.38h3.91v2.71h-3.91v4a3.22,3.22,0,0,0,.36,1.64,1.55,1.55,0,0,0,1.46.61,5.79,5.79,0,0,0,1.08-.1,4.8,4.8,0,0,0,1-.27l.46,2.53a9.62,9.62,0,0,1-1.31.42A8,8,0,0,1,202,217a5.78,5.78,0,0,1-2.2-.36,3.41,3.41,0,0,1-1.4-1,3.64,3.64,0,0,1-.73-1.56,9.17,9.17,0,0,1-.21-2Z"/><path class="cls-1" d="M206.25,211a7.07,7.07,0,0,1,.47-2.67,5.64,5.64,0,0,1,1.24-1.91,5.1,5.1,0,0,1,1.75-1.16,5.61,5.61,0,0,1,2-.39,5.08,5.08,0,0,1,3.86,1.49,6.16,6.16,0,0,1,1.42,4.4c0,.19,0,.4,0,.63s0,.42,0,.6h-7.39a2.18,2.18,0,0,0,.94,1.59,3.82,3.82,0,0,0,2.23.59,9.37,9.37,0,0,0,1.76-.16,6.88,6.88,0,0,0,1.41-.41l.43,2.65a5.43,5.43,0,0,1-.69.26c-.3.09-.62.16-1,.23s-.74.12-1.14.16-.82.07-1.23.07a7.31,7.31,0,0,1-2.69-.46,5.27,5.27,0,0,1-1.9-1.26,4.88,4.88,0,0,1-1.12-1.89A7.44,7.44,0,0,1,206.25,211Zm7.65-1.24a3.62,3.62,0,0,0-.15-.81,2,2,0,0,0-.37-.7,2,2,0,0,0-.63-.5,2.09,2.09,0,0,0-.95-.2,2.25,2.25,0,0,0-.94.19,1.89,1.89,0,0,0-.65.49,2.17,2.17,0,0,0-.41.71,5.8,5.8,0,0,0-.21.82Z"/><path class="cls-1" d="M228,215a1.8,1.8,0,0,1-.62,1.49A2.15,2.15,0,0,1,226,217a2.18,2.18,0,0,1-1.41-.51,2.11,2.11,0,0,1,0-3A2.18,2.18,0,0,1,226,213a2.15,2.15,0,0,1,1.41.51A1.81,1.81,0,0,1,228,215Z"/><path class="cls-1" d="M235.63,201.56H239v15.13h-3.4Z"/><path class="cls-1" d="M242.2,202.34l3.25-.52v3.38h3.91v2.71h-3.91v4a3.21,3.21,0,0,0,.37,1.64,1.53,1.53,0,0,0,1.45.61,5.79,5.79,0,0,0,1.08-.1,4.8,4.8,0,0,0,1-.27l.46,2.53a9.62,9.62,0,0,1-1.31.42,8,8,0,0,1-1.77.17,5.82,5.82,0,0,1-2.2-.36,3.47,3.47,0,0,1-1.4-1,3.76,3.76,0,0,1-.73-1.56,9.17,9.17,0,0,1-.21-2Z"/><path class="cls-1" d="M251,211a7.07,7.07,0,0,1,.47-2.67,5.79,5.79,0,0,1,1.24-1.91,5,5,0,0,1,1.76-1.16,5.52,5.52,0,0,1,2-.39,5.08,5.08,0,0,1,3.86,1.49,6.16,6.16,0,0,1,1.42,4.4c0,.19,0,.4,0,.63s0,.42,0,.6h-7.38a2.12,2.12,0,0,0,.94,1.59,3.77,3.77,0,0,0,2.22.59,9.29,9.29,0,0,0,1.76-.16,6.52,6.52,0,0,0,1.41-.41l.44,2.65a6.36,6.36,0,0,1-.7.26,9.94,9.94,0,0,1-1,.23c-.36.06-.74.12-1.15.16s-.82.07-1.22.07a7.33,7.33,0,0,1-2.7-.46,5.27,5.27,0,0,1-1.9-1.26,5.13,5.13,0,0,1-1.12-1.89A7.44,7.44,0,0,1,251,211Zm7.65-1.24a3.61,3.61,0,0,0-.14-.81,2.24,2.24,0,0,0-.37-.7,2,2,0,0,0-.64-.5,2.06,2.06,0,0,0-.95-.2,2.25,2.25,0,0,0-.94.19,1.89,1.89,0,0,0-.65.49,2.17,2.17,0,0,0-.41.71,4.67,4.67,0,0,0-.2.82Z"/><path class="cls-1" d="M271.25,208.09c-.29-.08-.63-.15-1-.23a6.27,6.27,0,0,0-1.26-.12,5.28,5.28,0,0,0-.74,0,5.35,5.35,0,0,0-.64.12v8.78h-3.25V205.81a20.15,20.15,0,0,1,2.06-.57A11.4,11.4,0,0,1,269,205a5.33,5.33,0,0,1,.64,0l.74.08.74.13a3.4,3.4,0,0,1,.63.19Z"/><path class="cls-1" d="M277.45,204.9a7.79,7.79,0,0,1,2.4.32,3.8,3.8,0,0,1,1.54.94,3.45,3.45,0,0,1,.82,1.49,7.31,7.31,0,0,1,.24,1.94v6.77c-.46.11-1.11.23-1.94.36a18.49,18.49,0,0,1-3,.21,9.07,9.07,0,0,1-2-.2,4.38,4.38,0,0,1-1.56-.64,3,3,0,0,1-1-1.17,4.07,4.07,0,0,1-.35-1.77,3.34,3.34,0,0,1,.4-1.7,3,3,0,0,1,1.08-1.11,5,5,0,0,1,1.56-.61,8.89,8.89,0,0,1,1.81-.18c.42,0,.8,0,1.12,0a5,5,0,0,1,.8.15v-.31a1.81,1.81,0,0,0-.5-1.33,2.43,2.43,0,0,0-1.75-.5,11.21,11.21,0,0,0-1.64.12,7.6,7.6,0,0,0-1.4.33l-.41-2.62c.19-.06.43-.12.71-.18s.59-.13.93-.18l1.06-.13C276.7,204.92,277.07,204.9,277.45,204.9Zm.26,9.52.92,0c.29,0,.52,0,.7-.07v-2.47l-.59-.08a6.39,6.39,0,0,0-.72-.05,5.81,5.81,0,0,0-.86.06,1.91,1.91,0,0,0-.71.21,1.14,1.14,0,0,0-.48.41,1.33,1.33,0,0,0,.34,1.72A2.89,2.89,0,0,0,277.71,214.42Z"/><path class="cls-1" d="M285.29,202.34l3.26-.52v3.38h3.91v2.71h-3.91v4a3.22,3.22,0,0,0,.36,1.64,1.53,1.53,0,0,0,1.45.61,5.79,5.79,0,0,0,1.08-.1,5.07,5.07,0,0,0,1-.27l.45,2.53a9.62,9.62,0,0,1-1.31.42,8,8,0,0,1-1.77.17,5.82,5.82,0,0,1-2.2-.36,3.47,3.47,0,0,1-1.4-1,3.76,3.76,0,0,1-.73-1.56,9.17,9.17,0,0,1-.21-2Z"/><path class="cls-1" d="M294.12,211a6.88,6.88,0,0,1,.47-2.67,5.62,5.62,0,0,1,1.23-1.91,5,5,0,0,1,1.76-1.16,5.52,5.52,0,0,1,2-.39,5.11,5.11,0,0,1,3.87,1.49,6.21,6.21,0,0,1,1.42,4.4q0,.28,0,.63c0,.22,0,.42,0,.6h-7.38a2.12,2.12,0,0,0,.94,1.59,3.77,3.77,0,0,0,2.22.59,9.29,9.29,0,0,0,1.76-.16,6.52,6.52,0,0,0,1.41-.41l.44,2.65a6.36,6.36,0,0,1-.7.26,9.94,9.94,0,0,1-1,.23c-.36.06-.74.12-1.15.16s-.82.07-1.22.07a7.33,7.33,0,0,1-2.7-.46,5.35,5.35,0,0,1-1.9-1.26,5,5,0,0,1-1.11-1.89A7.44,7.44,0,0,1,294.12,211Zm7.64-1.24a3.13,3.13,0,0,0-.14-.81,2.24,2.24,0,0,0-.37-.7,2,2,0,0,0-.64-.5,2.06,2.06,0,0,0-.95-.2,2.28,2.28,0,0,0-.94.19,1.89,1.89,0,0,0-.65.49,2.17,2.17,0,0,0-.41.71,4.67,4.67,0,0,0-.2.82Z"/><line class="cls-2" x1="319.88" y1="194.55" x2="319.88" y2="220.87"/><g id="aws-logo"><path class="cls-3" d="M47.9,56.92c-2.24-.09-4-.11-5.79-.24a71.88,71.88,0,0,1-10.72-1.62A69.36,69.36,0,0,1,16,49.55,68.31,68.31,0,0,1,1,39.42c-.22-.19-.45-.38-.65-.59a.8.8,0,0,1-.2-1,.84.84,0,0,1,1.09-.21c.56.27,1.1.6,1.65.9a91.12,91.12,0,0,0,17.2,7.32,89.5,89.5,0,0,0,11.07,2.75c2.49.44,5,.77,7.52,1.07,1.72.21,3.46.32,5.19.4,2,.1,4.06.2,6.09.14,2.48-.06,5-.22,7.43-.46a92.7,92.7,0,0,0,27.05-6.8,1.92,1.92,0,0,1,1.39-.19,1.22,1.22,0,0,1,.57,2.09,10.21,10.21,0,0,1-1.27,1,57.67,57.67,0,0,1-13.71,6.91,70.75,70.75,0,0,1-11.81,3.09q-2.79.48-5.63.75C51.79,56.72,49.61,56.81,47.9,56.92Z"/><path class="cls-3" d="M95.15,38.73a21.2,21.2,0,0,1-1.81,7.63,17.1,17.1,0,0,1-3.85,5.76,6.69,6.69,0,0,1-.76.65c-.26.19-.58.36-.89.13s-.18-.58-.07-.88c.7-1.89,1.45-3.77,2.08-5.68a32.83,32.83,0,0,0,.91-3.77,5.36,5.36,0,0,0,0-1.6,1.4,1.4,0,0,0-1-1.3,10.56,10.56,0,0,0-2.15-.46,28.18,28.18,0,0,0-5.51.13l-3.86.4c-.29,0-.64,0-.72-.28a.88.88,0,0,1,.22-.74,10.05,10.05,0,0,1,1.59-1.07A17.74,17.74,0,0,1,86,35.71a21.1,21.1,0,0,1,7,.34c.23.06.47.12.69.2,1.15.42,1.27.63,1.4,1.92A5.19,5.19,0,0,1,95.15,38.73Z"/><path class="cls-1" d="M21.91,25.3c-.65.6-1.22,1.23-1.88,1.74a11.39,11.39,0,0,1-10.88,2A7.19,7.19,0,0,1,4,22.81a9,9,0,0,1,.84-5.66,9,9,0,0,1,5.9-4.41,16.47,16.47,0,0,1,6.37-.28c1.4.18,2.79.49,4.18.73l.18,0s.06-.06.06-.08a22.49,22.49,0,0,0-.2-4.64c-.46-2.37-1.83-3.6-4.31-4a17,17,0,0,0-8.34,1.1c-.65.24-1.3.49-2,.69s-.91,0-.94-.63c0-.76,0-1.53,0-2.29a1.28,1.28,0,0,1,.86-1.17A34.77,34.77,0,0,1,10,.9,19.35,19.35,0,0,1,20,.53a7.9,7.9,0,0,1,6.44,6.92,22.17,22.17,0,0,1,.25,3.15c0,3.19,0,6.37,0,9.56a20,20,0,0,0,.18,2.31,10.3,10.3,0,0,0,1.21,3.25,1.17,1.17,0,0,1-.43,1.78c-.62.42-1.24.84-1.87,1.24a1.26,1.26,0,0,1-1.91-.28c-.59-.75-1.08-1.58-1.6-2.39A5.56,5.56,0,0,1,21.91,25.3ZM16,16c-.89.09-1.79.13-2.67.3A4.3,4.3,0,0,0,9.57,19.6a7.45,7.45,0,0,0-.11,2.11,3.74,3.74,0,0,0,3.29,3.68A8.51,8.51,0,0,0,18.5,24.3a5.34,5.34,0,0,0,2.88-3.93c.16-1.05.14-2.13.23-3.19,0-.32-.09-.45-.4-.51A32.84,32.84,0,0,0,16,16Z"/><path class="cls-1" d="M57.11,23.43l1-3.83L62.51,2.53s0,0,0-.08c.37-1.36.71-1.61,2.12-1.62H67.3c.64,0,.88.26.82.9A4.22,4.22,0,0,1,68,2.6q-3.84,12.33-7.7,24.67c-.45,1.43-.77,1.66-2.27,1.66-.78,0-1.55,0-2.33,0-1.19,0-1.58-.33-1.85-1.47L51.28,17Q50.14,12.21,49,7.44a.72.72,0,0,0-.18-.36c-.27,1.15-.55,2.3-.83,3.45q-2,8.36-4,16.71s0,.08,0,.12c-.34,1.27-.65,1.52-2,1.53-1,0-1.92,0-2.89,0a1.31,1.31,0,0,1-1.35-.93q-.59-1.76-1.11-3.51-3.3-10.82-6.58-21.62a10,10,0,0,1-.25-1,.7.7,0,0,1,.75-.92c1.12,0,2.23,0,3.34,0a1.32,1.32,0,0,1,1.41,1c.33,1.16.65,2.34,1,3.51l4.44,17.48a.93.93,0,0,0,.17.35c.07-.28.15-.55.22-.83q2.33-9.91,4.67-19.85c.33-1.42.66-1.67,2.13-1.68h2.45A1.45,1.45,0,0,1,52,2.18c.36,1.46.7,2.93,1,4.4L57,23.24l.06.18Z"/><path class="cls-1" d="M80,29.77a21.58,21.58,0,0,1-7.45-1.4,8.55,8.55,0,0,1-1.28-.65,1.68,1.68,0,0,1-.88-1.52c0-.58,0-1.15,0-1.73,0-.79.41-1.07,1.16-.82s1.64.66,2.48.92a17,17,0,0,0,8.07.69,6,6,0,0,0,2.34-.9,3.38,3.38,0,0,0-.23-5.86,37.1,37.1,0,0,0-3.77-1.44c-1.53-.53-3.12-.95-4.63-1.55A7.64,7.64,0,0,1,71,10.12a7.18,7.18,0,0,1,2.6-7.71A10.75,10.75,0,0,1,79.7.06a18.47,18.47,0,0,1,7.73,1,7.71,7.71,0,0,1,1.46.74,1.56,1.56,0,0,1,.78,1.41c0,.61,0,1.23,0,1.84s-.39.9-1,.71-1.33-.53-2-.76A14.65,14.65,0,0,0,79,4.54a7.49,7.49,0,0,0-1.1.37,3.28,3.28,0,0,0-.51,5.7A14.07,14.07,0,0,0,80.56,12c1.94.64,3.9,1.21,5.81,1.94a7,7,0,0,1,4.56,4.64,8,8,0,0,1-3.69,9.34,13,13,0,0,1-5.46,1.72C81.2,29.72,80.61,29.74,80,29.77Z"/></g><path class="cls-1" d="M26.05,73.23a5.38,5.38,0,0,1-.21,1.55,3.41,3.41,0,0,1-.62,1.2,2.64,2.64,0,0,1-1,.78,3.23,3.23,0,0,1-1.39.28A3.48,3.48,0,0,1,22,77a4.34,4.34,0,0,1-.72-.24v2.77H19.21V69.8c.19,0,.4-.11.65-.16l.76-.13q.39-.06.81-.09c.27,0,.54,0,.79,0a4.37,4.37,0,0,1,1.62.28,3.29,3.29,0,0,1,1.2.76,3.34,3.34,0,0,1,.75,1.21A4.75,4.75,0,0,1,26.05,73.23Zm-2.13,0a2.51,2.51,0,0,0-.43-1.54,1.5,1.5,0,0,0-1.29-.58l-.51,0a2.9,2.9,0,0,0-.39,0V75a2.06,2.06,0,0,0,.51.21,2.72,2.72,0,0,0,.63.08C23.43,75.28,23.92,74.62,23.92,73.28Z"/><path class="cls-1" d="M32.09,71.4l-.66-.15a4.12,4.12,0,0,0-.81-.08,2.88,2.88,0,0,0-.47,0,3.71,3.71,0,0,0-.41.07V76.9H27.66v-7A13.15,13.15,0,0,1,29,69.57a7.92,7.92,0,0,1,1.69-.17,3.1,3.1,0,0,1,.41,0l.48,0,.47.09a2,2,0,0,1,.41.12Z"/><path class="cls-1" d="M33.06,73.28a4.31,4.31,0,0,1,.31-1.71,3.53,3.53,0,0,1,.79-1.22,3.22,3.22,0,0,1,1.12-.74,3.47,3.47,0,0,1,1.31-.25,3.23,3.23,0,0,1,2.47,1A3.94,3.94,0,0,1,40,73.13c0,.12,0,.25,0,.4s0,.27,0,.38H35.2a1.4,1.4,0,0,0,.6,1,2.45,2.45,0,0,0,1.43.38,6.09,6.09,0,0,0,1.13-.1,4.69,4.69,0,0,0,.9-.26l.28,1.69a4,4,0,0,1-.45.17c-.19,0-.39.1-.62.14l-.74.11a6.79,6.79,0,0,1-.78,0,4.78,4.78,0,0,1-1.73-.29A3.48,3.48,0,0,1,34,76a3.13,3.13,0,0,1-.71-1.21A4.6,4.6,0,0,1,33.06,73.28Zm4.9-.79a2.27,2.27,0,0,0-.09-.52,1.22,1.22,0,0,0-.24-.45,1.19,1.19,0,0,0-.41-.32,1.33,1.33,0,0,0-.6-.13,1.41,1.41,0,0,0-.61.12,1.3,1.3,0,0,0-.41.32,1.26,1.26,0,0,0-.26.45,3.18,3.18,0,0,0-.14.53Z"/><path class="cls-1" d="M43.69,75.41a2.19,2.19,0,0,0,.81-.11.44.44,0,0,0,.24-.44.56.56,0,0,0-.31-.44,5.94,5.94,0,0,0-.94-.42,9.28,9.28,0,0,1-.88-.38,2.48,2.48,0,0,1-.68-.47,2,2,0,0,1-.44-.65,2.44,2.44,0,0,1-.15-.91A2,2,0,0,1,42.11,70a3.35,3.35,0,0,1,2.11-.6,7.65,7.65,0,0,1,1.29.11,6.18,6.18,0,0,1,1,.26l-.36,1.62c-.24-.08-.5-.15-.79-.22a4.57,4.57,0,0,0-1-.1c-.65,0-1,.18-1,.55a.51.51,0,0,0,0,.22.47.47,0,0,0,.16.19,2.54,2.54,0,0,0,.35.2,5.43,5.43,0,0,0,.55.23,9.09,9.09,0,0,1,1.13.5,2.58,2.58,0,0,1,.71.53,1.63,1.63,0,0,1,.36.64,2.78,2.78,0,0,1,.11.81A1.87,1.87,0,0,1,46,76.54a4.12,4.12,0,0,1-2.32.56,6.65,6.65,0,0,1-1.62-.17,5.7,5.7,0,0,1-.91-.28L41.49,75a7.18,7.18,0,0,0,1.09.33A5.38,5.38,0,0,0,43.69,75.41Z"/><path class="cls-1" d="M48,73.28a4.5,4.5,0,0,1,.3-1.71,3.53,3.53,0,0,1,.79-1.22,3.22,3.22,0,0,1,1.12-.74,3.5,3.5,0,0,1,1.31-.25,3.23,3.23,0,0,1,2.47,1,3.94,3.94,0,0,1,.91,2.82c0,.12,0,.25,0,.4s0,.27,0,.38H50.15a1.34,1.34,0,0,0,.6,1,2.41,2.41,0,0,0,1.42.38,6,6,0,0,0,1.13-.1,4.29,4.29,0,0,0,.9-.26l.28,1.69a4,4,0,0,1-.45.17c-.18,0-.39.1-.62.14l-.73.11a7,7,0,0,1-.79,0,4.73,4.73,0,0,1-1.72-.29A3.43,3.43,0,0,1,49,76a3.13,3.13,0,0,1-.71-1.21A4.6,4.6,0,0,1,48,73.28Zm4.89-.79a2.27,2.27,0,0,0-.09-.52,1.22,1.22,0,0,0-.24-.45,1.16,1.16,0,0,0-.4-.32,1.41,1.41,0,0,0-.61-.13,1.37,1.37,0,0,0-.6.12,1.23,1.23,0,0,0-.42.32,1.43,1.43,0,0,0-.26.45,2.42,2.42,0,0,0-.13.53Z"/><path class="cls-1" d="M56.52,69.8a12.94,12.94,0,0,1,1.37-.28,11.11,11.11,0,0,1,1.76-.14,4.32,4.32,0,0,1,1.56.25,2.33,2.33,0,0,1,1,.69,2.68,2.68,0,0,1,.51,1.06,5.31,5.31,0,0,1,.16,1.37V76.9H60.78V73a2.77,2.77,0,0,0-.26-1.42,1.09,1.09,0,0,0-1-.42l-.48,0-.45,0V76.9H56.52Z"/><path class="cls-1" d="M64.68,67.72l2.09-.34v2.17h2.5v1.73h-2.5v2.59a2,2,0,0,0,.23,1,1,1,0,0,0,.93.39,4.2,4.2,0,0,0,.69-.06,3.09,3.09,0,0,0,.65-.18l.29,1.62a4.6,4.6,0,0,1-.84.27,5.07,5.07,0,0,1-1.13.11,3.78,3.78,0,0,1-1.41-.23,2.2,2.2,0,0,1-.89-.64,2.38,2.38,0,0,1-.47-1,5.82,5.82,0,0,1-.14-1.3Z"/><path class="cls-1" d="M73.07,75.41a2.19,2.19,0,0,0,.81-.11.44.44,0,0,0,.24-.44.54.54,0,0,0-.31-.44,5.75,5.75,0,0,0-.93-.42,8.5,8.5,0,0,1-.89-.38,2.64,2.64,0,0,1-.68-.47,1.8,1.8,0,0,1-.43-.65,2.25,2.25,0,0,1-.16-.91A2,2,0,0,1,71.49,70a3.35,3.35,0,0,1,2.11-.6,7.65,7.65,0,0,1,1.29.11,6.68,6.68,0,0,1,1,.26l-.37,1.62c-.24-.08-.5-.15-.79-.22a4.54,4.54,0,0,0-.95-.1c-.66,0-1,.18-1,.55a.51.51,0,0,0,0,.22A.43.43,0,0,0,73,72a1.91,1.91,0,0,0,.34.2,5.43,5.43,0,0,0,.55.23,8.46,8.46,0,0,1,1.13.5,2.58,2.58,0,0,1,.71.53,1.63,1.63,0,0,1,.36.64,2.78,2.78,0,0,1,.11.81,1.85,1.85,0,0,1-.82,1.64,4.08,4.08,0,0,1-2.31.56,6.68,6.68,0,0,1-1.63-.17,5.5,5.5,0,0,1-.9-.28L70.88,75a6.55,6.55,0,0,0,1.09.33A5.22,5.22,0,0,0,73.07,75.41Z"/></g></g></svg>