<svg xmlns="http://www.w3.org/2000/svg" viewBox="0 0 323.74 88.39">
<defs>
<style>.cls-1{fill:#ffffff;}.cls-2{fill:#86ff00}</style>
</defs>
<title>codefest19-logo-white</title>
<g id="Layer_2" data-name="Layer 2">
<g id="Layer_1-2" data-name="Layer 1">
<path class="cls-1" d="M16.32,64.32A18,18,0,0,1,9.25,63a14.16,14.16,0,0,1-5.12-3.58A15,15,0,0,1,1,54a22.83,22.83,0,0,1-1-7,21.09,21.09,0,0,1,1.12-7A16.68,16.68,0,0,1,4.29,34.4a14.33,14.33,0,0,1,5-3.65,16.35,16.35,0,0,1,6.63-1.31,26.16,26.16,0,0,1,4.48.39A20.41,20.41,0,0,1,24.7,31L23.36,36.1a14.45,14.45,0,0,0-3.1-1,18.06,18.06,0,0,0-3.75-.38q-5,0-7.65,3.14T6.21,47a18.65,18.65,0,0,0,.61,4.93,10.06,10.06,0,0,0,1.92,3.84,8.59,8.59,0,0,0,3.36,2.46,12.72,12.72,0,0,0,5,.86,18.86,18.86,0,0,0,4.29-.44,15.64,15.64,0,0,0,3-1l.84,5a7,7,0,0,1-1.48.61,21.24,21.24,0,0,1-2.17.51c-.81.15-1.68.28-2.59.38A22.43,22.43,0,0,1,16.32,64.32Z"/>
<path class="cls-1" d="M62.08,46.91a21,21,0,0,1-1.15,7.17,16.53,16.53,0,0,1-3.23,5.51,14.29,14.29,0,0,1-5,3.55,16.38,16.38,0,0,1-12.55,0,14.29,14.29,0,0,1-5-3.55A16.53,16.53,0,0,1,32,54.08a21,21,0,0,1-1.15-7.17A21,21,0,0,1,32,39.78a16.48,16.48,0,0,1,3.23-5.54,14.29,14.29,0,0,1,5-3.55,16.38,16.38,0,0,1,12.55,0,14.29,14.29,0,0,1,5,3.55,16.48,16.48,0,0,1,3.23,5.54A21,21,0,0,1,62.08,46.91Zm-6.21,0c0-3.75-.84-6.73-2.53-8.92a8.19,8.19,0,0,0-6.88-3.3A8.21,8.21,0,0,0,39.58,38c-1.68,2.19-2.52,5.17-2.52,8.92s.84,6.74,2.52,8.93a8.21,8.21,0,0,0,6.88,3.3,8.19,8.19,0,0,0,6.88-3.3Q55.88,52.55,55.87,46.91Z"/>
<path class="cls-1" d="M93.89,14.91l6-1v48.7c-1.37.39-3.11.77-5.25,1.16a42.25,42.25,0,0,1-7.36.57,18.66,18.66,0,0,1-6.91-1.21,14.84,14.84,0,0,1-5.25-3.46,15.29,15.29,0,0,1-3.36-5.47,21,21,0,0,1-1.18-7.27,23.77,23.77,0,0,1,1-7,15.81,15.81,0,0,1,2.91-5.5,13.13,13.13,0,0,1,4.71-3.58,14.93,14.93,0,0,1,6.36-1.28,15.53,15.53,0,0,1,5.09.76,16.65,16.65,0,0,1,3.3,1.48Zm0,22.4a12.38,12.38,0,0,0-3.14-1.72,11.68,11.68,0,0,0-4.48-.84,9.51,9.51,0,0,0-4.38.93,8,8,0,0,0-3,2.56,10.78,10.78,0,0,0-1.66,3.87,21.67,21.67,0,0,0-.51,4.8c0,3.89,1,6.88,2.88,9a9.88,9.88,0,0,0,7.68,3.16,30.63,30.63,0,0,0,4.06-.22,19.55,19.55,0,0,0,2.53-.48Z"/>
<path class="cls-1" d="M110.14,47a21.25,21.25,0,0,1,1.28-7.71,16.44,16.44,0,0,1,3.39-5.48,13.83,13.83,0,0,1,4.87-3.26,15.28,15.28,0,0,1,5.63-1.09q6.72,0,10.31,4.19T139.2,46.4v1a9.59,9.59,0,0,1-.06,1.12H116.35c.26,3.46,1.26,6.08,3,7.88s4.48,2.68,8.19,2.68a22,22,0,0,0,5.28-.54,17.82,17.82,0,0,0,3.23-1.06l.84,5a17.8,17.8,0,0,1-3.81,1.21,26.92,26.92,0,0,1-6.18.64A19.68,19.68,0,0,1,119.39,63a13.89,13.89,0,0,1-5.21-3.62,14.63,14.63,0,0,1-3-5.47A22.82,22.82,0,0,1,110.14,47ZM133,43.71a10,10,0,0,0-2-6.62,7,7,0,0,0-5.73-2.59,7.91,7.91,0,0,0-3.62.8A8.36,8.36,0,0,0,119,37.38a9.32,9.32,0,0,0-1.7,2.94,14.41,14.41,0,0,0-.8,3.39Z"/>
<path class="cls-2" d="M150,63.55V16.43h31.55v8.91H160.62V35.2h18.63v8.91H160.62V63.55Z"/>
<path class="cls-2" d="M188,45.94a21.78,21.78,0,0,1,1.46-8.33,17.77,17.77,0,0,1,3.84-5.95,16,16,0,0,1,5.47-3.6,17.13,17.13,0,0,1,6.36-1.23q7.62,0,12,4.66t4.42,13.7c0,.59,0,1.24-.07,1.94s-.09,1.33-.14,1.87h-23a6.76,6.76,0,0,0,2.92,5,11.81,11.81,0,0,0,6.94,1.83,29.22,29.22,0,0,0,5.47-.51A20.57,20.57,0,0,0,218.15,54l1.36,8.23a13.73,13.73,0,0,1-2.18.82,27.57,27.57,0,0,1-3,.71q-1.67.32-3.57.51a34.75,34.75,0,0,1-3.81.21,22.59,22.59,0,0,1-8.4-1.43,16.33,16.33,0,0,1-5.91-3.91,15.56,15.56,0,0,1-3.47-5.88A23.29,23.29,0,0,1,188,45.94Zm23.8-3.87a10.75,10.75,0,0,0-.45-2.52,6.33,6.33,0,0,0-1.15-2.18,6.25,6.25,0,0,0-2-1.56,6.42,6.42,0,0,0-3-.61,6.75,6.75,0,0,0-2.93.58,6,6,0,0,0-2,1.53,6.75,6.75,0,0,0-1.25,2.21,14.46,14.46,0,0,0-.65,2.55Z"/>
<path class="cls-2" d="M241.75,56.28a10,10,0,0,0,3.94-.55,2.09,2.09,0,0,0,1.16-2.1,2.6,2.6,0,0,0-1.5-2.15,28.79,28.79,0,0,0-4.56-2.07,45.76,45.76,0,0,1-4.31-1.84,12.43,12.43,0,0,1-3.3-2.27,9.22,9.22,0,0,1-2.11-3.17,11.64,11.64,0,0,1-.75-4.42,9.56,9.56,0,0,1,3.74-7.95q3.75-2.93,10.27-2.93a33.42,33.42,0,0,1,6.26.58,30.1,30.1,0,0,1,4.76,1.26l-1.77,7.89a37.61,37.61,0,0,0-3.84-1.09,20.79,20.79,0,0,0-4.66-.48c-3.18,0-4.76.89-4.76,2.66a2.81,2.81,0,0,0,.2,1.08,2.31,2.31,0,0,0,.82.92,11,11,0,0,0,1.66,1c.71.34,1.6.72,2.69,1.13a41.07,41.07,0,0,1,5.51,2.43,13.31,13.31,0,0,1,3.43,2.59,8,8,0,0,1,1.77,3.09,13.7,13.7,0,0,1,.51,3.94,9.07,9.07,0,0,1-4,8q-4,2.71-11.25,2.72a31.9,31.9,0,0,1-12.31-2.18l1.7-8.23a32.68,32.68,0,0,0,5.3,1.6A25.59,25.59,0,0,0,241.75,56.28Z"/>
<path class="cls-2" d="M266.16,18.88l10.13-1.63V27.79h12.17v8.43H276.29V48.8a10,10,0,0,0,1.12,5.1q1.13,1.91,4.52,1.9a19.8,19.8,0,0,0,3.37-.3,18.15,18.15,0,0,0,3.16-.85l1.43,7.88a29.69,29.69,0,0,1-4.08,1.3,24,24,0,0,1-5.51.54,18.11,18.11,0,0,1-6.87-1.12,10.8,10.8,0,0,1-4.35-3.13,11.64,11.64,0,0,1-2.28-4.86,28.8,28.8,0,0,1-.64-6.33Z"/>
<path class="cls-2" d="M290,5.15c.62-.25,1.27-.55,1.94-.88a22.31,22.31,0,0,0,2-1.09c.64-.39,1.25-.81,1.84-1.24a12.62,12.62,0,0,0,1.58-1.4h3.33V22.72h-4.77v-16a14,14,0,0,1-2.14,1.17c-.79.35-1.56.66-2.31.91Z"/>
<path class="cls-2" d="M318.52,13.92a5.65,5.65,0,0,1-1.49.46,7.78,7.78,0,0,1-1.39.15,11.21,11.21,0,0,1-3.55-.5,6.2,6.2,0,0,1-2.41-1.41,5.46,5.46,0,0,1-1.4-2.19,8.41,8.41,0,0,1-.44-2.81A8.51,8.51,0,0,1,308.27,5a7.31,7.31,0,0,1,1.36-2.45A7.44,7.44,0,0,1,312,.72a8.78,8.78,0,0,1,9.66,1.82q2.1,2.55,2.1,7.32a17,17,0,0,1-.82,5.53,9.74,9.74,0,0,1-2.52,4A11.1,11.1,0,0,1,316,21.9a21.3,21.3,0,0,1-6.31.88q0-1-.09-2c-.05-.64-.09-1.3-.13-2a23,23,0,0,0,3.3-.28,8.84,8.84,0,0,0,2.59-.8,5.88,5.88,0,0,0,1.9-1.48A6.83,6.83,0,0,0,318.52,13.92Zm-2.33-3.1a8.25,8.25,0,0,0,1.53-.15,3.15,3.15,0,0,0,1.19-.4V10a2.09,2.09,0,0,1,0-.25,2.15,2.15,0,0,0,0-.23,18.08,18.08,0,0,0-.19-2.16,6,6,0,0,0-.55-1.76,3,3,0,0,0-1-1.18A2.82,2.82,0,0,0,315.55,4a2.68,2.68,0,0,0-2.28,1.15,3.82,3.82,0,0,0-.52,1.12,4.18,4.18,0,0,0-.18,1.18,3.41,3.41,0,0,0,.85,2.56A3.82,3.82,0,0,0,316.19,10.82Z"/>
</g></g></svg>