<svg xmlns="http://www.w3.org/2000/svg" viewBox="0 0 366.45 226.4"><defs><style>.cls-1{fill:#fff;}</style></defs><title>codefest-star-logo-white</title><g id="Layer_2" data-name="Layer 2"><g id="Layer_1-2" data-name="Layer 1"><path class="cls-1" d="M232.81,0c.52,2.2,2,4.66,1.42,6.57Q204.11,114.2,173.5,221.68c-.54,1.89-3.27,3.16-5,4.72-.49-2.12-1.86-4.49-1.35-6.33Q197.25,112.75,227.7,5.51c.55-1.95,1.85-3.68,2.81-5.51Z"/><path class="cls-1" d="M366.45,86.65c-16.15,17.87-31.38,34.87-46.83,51.66-3.14,3.41-4.2,6.51-3.38,11.25C320.36,173.35,324,197.21,328,222c-2.11-1-3.56-1.65-4.92-2.44-18.1-10.46-36.23-20.88-54.26-31.48-3.27-1.92-5.73-2.24-9.24-.08-17.64,10.86-35.49,21.38-53.28,32-1.57.94-3.21,1.77-5.61,3.09,20.72-73.31,41.17-145.67,61.95-219.17,1.17,2.35,1.92,3.74,2.56,5.18C274.49,29.7,283.82,50.29,293,71c1.47,3.31,3.29,4.86,7.1,5.41C321.89,79.53,343.64,83.08,366.45,86.65Z"/><path class="cls-1" d="M10.36,113.47l106.46,74c9.14,6.35,18.38,12.55,27.32,19.17,1.65,1.22,2,4.16,3,6.3-2.34-.18-5.27.48-7-.67q-68.68-47.34-137.15-95c-4.36-3-4.11-4.86,1.17-8.45Q40.84,83.85,77.48,59q30.69-20.86,61.39-41.72c1.43-1,2.82-2.34,4.39-2.63A5.3,5.3,0,0,1,147.53,16c.62.7.3,3.07-.45,4-1.32,1.57-3.27,2.62-5,3.81Q78.56,67,15,110.14C13.61,111.1,12.24,112.12,10.36,113.47Z"/></g></g></svg>