<svg xmlns="http://www.w3.org/2000/svg" viewBox="0 0 323.74 88.39"><defs><style>.cls-1{fill:#86ff00;}</style></defs><title>codefest19-logo-chartreuse</title><g id="Layer_2" data-name="Layer 2"><g id="Layer_1-2" data-name="Layer 1"><path class="cls-1" d="M290,5.15c.62-.25,1.27-.55,1.94-.88a22.31,22.31,0,0,0,2-1.09c.64-.39,1.25-.81,1.84-1.24a12.62,12.62,0,0,0,1.58-1.4h3.33V22.72h-4.77v-16a14,14,0,0,1-2.14,1.17c-.79.35-1.56.66-2.31.91Z"/><path class="cls-1" d="M318.52,13.92a5.65,5.65,0,0,1-1.49.46,7.78,7.78,0,0,1-1.39.15,11.21,11.21,0,0,1-3.55-.5,6.2,6.2,0,0,1-2.41-1.41,5.46,5.46,0,0,1-1.4-2.19,8.41,8.41,0,0,1-.44-2.81A8.51,8.51,0,0,1,308.27,5a7.31,7.31,0,0,1,1.36-2.45A7.44,7.44,0,0,1,312,.72a8.78,8.78,0,0,1,9.66,1.82q2.1,2.55,2.1,7.32a17,17,0,0,1-.82,5.53,9.74,9.74,0,0,1-2.52,4A11.1,11.1,0,0,1,316,21.9a21.3,21.3,0,0,1-6.31.88q0-1-.09-2c-.05-.64-.09-1.3-.13-2a23,23,0,0,0,3.3-.28,8.84,8.84,0,0,0,2.59-.8,5.88,5.88,0,0,0,1.9-1.48A6.83,6.83,0,0,0,318.52,13.92Zm-2.33-3.1a8.25,8.25,0,0,0,1.53-.15,3.15,3.15,0,0,0,1.19-.4V10a2.09,2.09,0,0,1,0-.25,2.15,2.15,0,0,0,0-.23,18.08,18.08,0,0,0-.19-2.16,6,6,0,0,0-.55-1.76,3,3,0,0,0-1-1.18A2.82,2.82,0,0,0,315.55,4a2.68,2.68,0,0,0-2.28,1.15,3.82,3.82,0,0,0-.52,1.12,4.18,4.18,0,0,0-.18,1.18,3.41,3.41,0,0,0,.85,2.56A3.82,3.82,0,0,0,316.19,10.82Z"/><path class="cls-1" d="M16.32,64.32A18,18,0,0,1,9.25,63a14.16,14.16,0,0,1-5.12-3.58A15,15,0,0,1,1,54a22.83,22.83,0,0,1-1-7,21.09,21.09,0,0,1,1.12-7A16.68,16.68,0,0,1,4.29,34.4a14.33,14.33,0,0,1,5-3.65,16.35,16.35,0,0,1,6.63-1.31,26.16,26.16,0,0,1,4.48.39A20.41,20.41,0,0,1,24.7,31L23.36,36.1a14.45,14.45,0,0,0-3.1-1,18.06,18.06,0,0,0-3.75-.38q-5,0-7.65,3.14T6.21,47a18.65,18.65,0,0,0,.61,4.93,10.06,10.06,0,0,0,1.92,3.84,8.59,8.59,0,0,0,3.36,2.46,12.72,12.72,0,0,0,5,.86,18.86,18.86,0,0,0,4.29-.44,15.64,15.64,0,0,0,3-1l.84,5a7,7,0,0,1-1.48.61,21.24,21.24,0,0,1-2.17.51c-.81.15-1.68.28-2.59.38A22.43,22.43,0,0,1,16.32,64.32Z"/><path class="cls-1" d="M62.08,46.91a21,21,0,0,1-1.15,7.17,16.53,16.53,0,0,1-3.23,5.51,14.29,14.29,0,0,1-5,3.55,16.38,16.38,0,0,1-12.55,0,14.29,14.29,0,0,1-5-3.55A16.53,16.53,0,0,1,32,54.08a21,21,0,0,1-1.15-7.17A21,21,0,0,1,32,39.78a16.48,16.48,0,0,1,3.23-5.54,14.29,14.29,0,0,1,5-3.55,16.38,16.38,0,0,1,12.55,0,14.29,14.29,0,0,1,5,3.55,16.48,16.48,0,0,1,3.23,5.54A21,21,0,0,1,62.08,46.91Zm-6.21,0c0-3.75-.84-6.73-2.53-8.92a8.19,8.19,0,0,0-6.88-3.3A8.21,8.21,0,0,0,39.58,38c-1.68,2.19-2.52,5.17-2.52,8.92s.84,6.74,2.52,8.93a8.21,8.21,0,0,0,6.88,3.3,8.19,8.19,0,0,0,6.88-3.3Q55.88,52.55,55.87,46.91Z"/><path class="cls-1" d="M93.89,14.91l6-1v48.7c-1.37.39-3.11.77-5.25,1.16a42.25,42.25,0,0,1-7.36.57,18.66,18.66,0,0,1-6.91-1.21,14.84,14.84,0,0,1-5.25-3.46,15.29,15.29,0,0,1-3.36-5.47,21,21,0,0,1-1.18-7.27,23.77,23.77,0,0,1,1-7,15.81,15.81,0,0,1,2.91-5.5,13.13,13.13,0,0,1,4.71-3.58,14.93,14.93,0,0,1,6.36-1.28,15.53,15.53,0,0,1,5.09.76,16.65,16.65,0,0,1,3.3,1.48Zm0,22.4a12.38,12.38,0,0,0-3.14-1.72,11.68,11.68,0,0,0-4.48-.84,9.51,9.51,0,0,0-4.38.93,8,8,0,0,0-3,2.56,10.78,10.78,0,0,0-1.66,3.87,21.67,21.67,0,0,0-.51,4.8c0,3.89,1,6.88,2.88,9a9.88,9.88,0,0,0,7.68,3.16,30.63,30.63,0,0,0,4.06-.22,19.55,19.55,0,0,0,2.53-.48Z"/><path class="cls-1" d="M110.14,47a21.25,21.25,0,0,1,1.28-7.71,16.44,16.44,0,0,1,3.39-5.48,13.83,13.83,0,0,1,4.87-3.26,15.28,15.28,0,0,1,5.63-1.09q6.72,0,10.31,4.19T139.2,46.4v1a9.59,9.59,0,0,1-.06,1.12H116.35c.26,3.46,1.26,6.08,3,7.88s4.48,2.68,8.19,2.68a22,22,0,0,0,5.28-.54,17.82,17.82,0,0,0,3.23-1.06l.84,5a17.8,17.8,0,0,1-3.81,1.21,26.92,26.92,0,0,1-6.18.64A19.68,19.68,0,0,1,119.39,63a13.89,13.89,0,0,1-5.21-3.62,14.63,14.63,0,0,1-3-5.47A22.82,22.82,0,0,1,110.14,47ZM133,43.71a10,10,0,0,0-2-6.62,7,7,0,0,0-5.73-2.59,7.91,7.91,0,0,0-3.62.8A8.36,8.36,0,0,0,119,37.38a9.32,9.32,0,0,0-1.7,2.94,14.41,14.41,0,0,0-.8,3.39Z"/><path class="cls-1" d="M150,63.55V16.43h31.55v8.91H160.62V35.2h18.63v8.91H160.62V63.55Z"/><path class="cls-1" d="M188,45.94a21.78,21.78,0,0,1,1.46-8.33,17.77,17.77,0,0,1,3.84-5.95,16,16,0,0,1,5.47-3.6,17.13,17.13,0,0,1,6.36-1.23q7.62,0,12,4.66t4.42,13.7c0,.59,0,1.24-.07,1.94s-.09,1.33-.14,1.87h-23a6.76,6.76,0,0,0,2.92,5,11.81,11.81,0,0,0,6.94,1.83,29.22,29.22,0,0,0,5.47-.51A20.57,20.57,0,0,0,218.15,54l1.36,8.23a13.73,13.73,0,0,1-2.18.82,27.57,27.57,0,0,1-3,.71q-1.67.32-3.57.51a34.75,34.75,0,0,1-3.81.21,22.59,22.59,0,0,1-8.4-1.43,16.33,16.33,0,0,1-5.91-3.91,15.56,15.56,0,0,1-3.47-5.88A23.29,23.29,0,0,1,188,45.94Zm23.8-3.87a10.75,10.75,0,0,0-.45-2.52,6.33,6.33,0,0,0-1.15-2.18,6.25,6.25,0,0,0-2-1.56,6.42,6.42,0,0,0-3-.61,6.75,6.75,0,0,0-2.93.58,6,6,0,0,0-2,1.53,6.75,6.75,0,0,0-1.25,2.21,14.46,14.46,0,0,0-.65,2.55Z"/><path class="cls-1" d="M241.75,56.28a10,10,0,0,0,3.94-.55,2.09,2.09,0,0,0,1.16-2.1,2.6,2.6,0,0,0-1.5-2.15,28.79,28.79,0,0,0-4.56-2.07,45.76,45.76,0,0,1-4.31-1.84,12.43,12.43,0,0,1-3.3-2.27,9.22,9.22,0,0,1-2.11-3.17,11.64,11.64,0,0,1-.75-4.42,9.56,9.56,0,0,1,3.74-7.95q3.75-2.93,10.27-2.93a33.42,33.42,0,0,1,6.26.58,30.1,30.1,0,0,1,4.76,1.26l-1.77,7.89a37.61,37.61,0,0,0-3.84-1.09,20.79,20.79,0,0,0-4.66-.48c-3.18,0-4.76.89-4.76,2.66a2.81,2.81,0,0,0,.2,1.08,2.31,2.31,0,0,0,.82.92,11,11,0,0,0,1.66,1c.71.34,1.6.72,2.69,1.13a41.07,41.07,0,0,1,5.51,2.43,13.31,13.31,0,0,1,3.43,2.59,8,8,0,0,1,1.77,3.09,13.7,13.7,0,0,1,.51,3.94,9.07,9.07,0,0,1-4,8q-4,2.71-11.25,2.72a31.9,31.9,0,0,1-12.31-2.18l1.7-8.23a32.68,32.68,0,0,0,5.3,1.6A25.59,25.59,0,0,0,241.75,56.28Z"/><path class="cls-1" d="M266.16,18.88l10.13-1.63V27.79h12.17v8.43H276.29V48.8a10,10,0,0,0,1.12,5.1q1.13,1.91,4.52,1.9a19.8,19.8,0,0,0,3.37-.3,18.15,18.15,0,0,0,3.16-.85l1.43,7.88a29.69,29.69,0,0,1-4.08,1.3,24,24,0,0,1-5.51.54,18.11,18.11,0,0,1-6.87-1.12,10.8,10.8,0,0,1-4.35-3.13,11.64,11.64,0,0,1-2.28-4.86,28.8,28.8,0,0,1-.64-6.33Z"/><path class="cls-1" d="M94.38,77.18a2.83,2.83,0,0,1-.24,1.13,6.88,6.88,0,0,1-.62,1.07,9.82,9.82,0,0,1-.86,1l-1,1q-.26.24-.57.57c-.22.23-.42.45-.61.68a8.11,8.11,0,0,0-.5.64,1.14,1.14,0,0,0-.22.52h4.93v1.64H87.67a2.73,2.73,0,0,1,0-.32v-.28a4,4,0,0,1,.25-1.41,5.42,5.42,0,0,1,.65-1.21,9,9,0,0,1,.9-1.06l1-1,.74-.72a9.23,9.23,0,0,0,.61-.7,3.48,3.48,0,0,0,.43-.7,1.94,1.94,0,0,0,.16-.75,1.34,1.34,0,0,0-.49-1.18,1.84,1.84,0,0,0-1.16-.35,2.55,2.55,0,0,0-.84.13,3,3,0,0,0-.67.3,4.86,4.86,0,0,0-.53.36,3.73,3.73,0,0,0-.33.3l-1-1.36a5.31,5.31,0,0,1,1.57-1,4.92,4.92,0,0,1,2-.39,3.6,3.6,0,0,1,2.62.84A3.15,3.15,0,0,1,94.38,77.18Z"/><path class="cls-1" d="M99.54,85.63a7,7,0,0,1-.89-.06l-.86-.14c-.27-.06-.52-.13-.74-.2a2.58,2.58,0,0,1-.52-.2l.39-1.64c.22.1.55.22,1,.36a5.55,5.55,0,0,0,1.59.2,2.77,2.77,0,0,0,1.82-.49,1.63,1.63,0,0,0,.56-1.31,1.49,1.49,0,0,0-.81-1.44,2.51,2.51,0,0,0-.86-.31,5.64,5.64,0,0,0-1-.09H98.5V78.75h.8a3.82,3.82,0,0,0,.75-.08,2,2,0,0,0,.68-.25,1.53,1.53,0,0,0,.49-.49,1.41,1.41,0,0,0,.2-.78,1.34,1.34,0,0,0-.15-.66,1.27,1.27,0,0,0-.38-.45,1.37,1.37,0,0,0-.53-.25,2.25,2.25,0,0,0-.64-.08,3.62,3.62,0,0,0-1.28.21,6.09,6.09,0,0,0-1,.49L96.74,75a3.89,3.89,0,0,1,.55-.3,6.85,6.85,0,0,1,.71-.31,6.4,6.4,0,0,1,.84-.23,4.76,4.76,0,0,1,.94-.09,5.05,5.05,0,0,1,1.6.23,2.86,2.86,0,0,1,1.11.63,2.44,2.44,0,0,1,.66,1,3.18,3.18,0,0,1,.22,1.21,2.28,2.28,0,0,1-.43,1.37,2.66,2.66,0,0,1-1.09.93,3.16,3.16,0,0,1,1.43,1,2.78,2.78,0,0,1,.57,1.81,3.58,3.58,0,0,1-.26,1.36,2.74,2.74,0,0,1-.78,1.09,3.65,3.65,0,0,1-1.34.72A6.11,6.11,0,0,1,99.54,85.63Z"/><path class="cls-1" d="M110.85,78.76c-.16-.05-.38-.11-.66-.17a4.79,4.79,0,0,0-1-.08,4.08,4.08,0,0,0-.68.06,4.42,4.42,0,0,0-.51.11v6.71h-1.93v-8a10,10,0,0,1,1.4-.39,8.25,8.25,0,0,1,1.86-.19l.45,0a4.43,4.43,0,0,1,.51.06l.5.1a3.33,3.33,0,0,1,.38.1Z"/><path class="cls-1" d="M119.61,85.13a12.06,12.06,0,0,1-1.45.32,10.78,10.78,0,0,1-1.83.14,5,5,0,0,1-1.78-.3,3.58,3.58,0,0,1-1.33-.87,3.74,3.74,0,0,1-.85-1.38,5.17,5.17,0,0,1-.3-1.81,5.89,5.89,0,0,1,.25-1.8,3.92,3.92,0,0,1,.73-1.39,3.31,3.31,0,0,1,1.17-.89,3.87,3.87,0,0,1,1.58-.31,3.5,3.5,0,0,1,1.07.15,4,4,0,0,1,.8.32v-4l1.94-.32Zm-5.56-3.95a3.09,3.09,0,0,0,.61,2,2.09,2.09,0,0,0,1.68.72,6.17,6.17,0,0,0,.8,0,4.67,4.67,0,0,0,.53-.08V79a2.87,2.87,0,0,0-.68-.33,2.66,2.66,0,0,0-.9-.15,1.74,1.74,0,0,0-1.55.72A3.47,3.47,0,0,0,114.05,81.18Z"/><path class="cls-1" d="M133.27,85.39c-.15-.44-.3-.87-.47-1.3s-.31-.86-.46-1.31h-4.68c-.15.45-.31.89-.46,1.32s-.31.86-.46,1.29h-2.09c.41-1.19.81-2.28,1.18-3.28s.74-2,1.09-2.85.72-1.75,1.07-2.56.71-1.61,1.08-2.4H131c.37.79.73,1.59,1.09,2.4s.7,1.66,1.06,2.56.73,1.84,1.11,2.85.77,2.09,1.19,3.28Zm-3.27-9c-.25.57-.53,1.25-.84,2.07s-.64,1.69-1,2.64h3.64c-.34-1-.67-1.84-1-2.66S130.23,77,130,76.44Z"/><path class="cls-1" d="M143.4,85.13c-.37.1-.86.19-1.46.3a11.87,11.87,0,0,1-2,.15,4.33,4.33,0,0,1-1.68-.29,2.65,2.65,0,0,1-1.09-.8,3.23,3.23,0,0,1-.59-1.22,7,7,0,0,1-.17-1.56V77h1.94V81.4a3.53,3.53,0,0,0,.39,1.92,1.51,1.51,0,0,0,1.37.58l.74,0a5.79,5.79,0,0,0,.58-.08V77h1.94Z"/><path class="cls-1" d="M152.77,84.54a3.79,3.79,0,0,1-1,2.93,4.55,4.55,0,0,1-3.11.92,9.29,9.29,0,0,1-1.5-.12,9.06,9.06,0,0,1-1.32-.34l.35-1.65a6.29,6.29,0,0,0,1.13.34,7.33,7.33,0,0,0,1.37.13,2.34,2.34,0,0,0,1.66-.48,1.91,1.91,0,0,0,.5-1.43v-.32a5.11,5.11,0,0,1-.76.29A3.62,3.62,0,0,1,149,85a4,4,0,0,1-1.46-.25A3,3,0,0,1,146.4,84a3.56,3.56,0,0,1-.74-1.24A5.32,5.32,0,0,1,145.4,81a4.78,4.78,0,0,1,.28-1.68,3.54,3.54,0,0,1,2.12-2.16,4.54,4.54,0,0,1,1.74-.31,10.41,10.41,0,0,1,1.8.15,13,13,0,0,1,1.43.3ZM147.38,81a2.55,2.55,0,0,0,.54,1.8,1.85,1.85,0,0,0,1.38.56,3.17,3.17,0,0,0,.88-.12,2.54,2.54,0,0,0,.66-.31V78.59a3,3,0,0,0-.51-.09,5.59,5.59,0,0,0-.77,0,2,2,0,0,0-1.62.69A2.88,2.88,0,0,0,147.38,81Z"/><path class="cls-1" d="M158.1,79.93h4.31v1.78H158.1Z"/><path class="cls-1" d="M177.93,77.18a2.83,2.83,0,0,1-.24,1.13,6.16,6.16,0,0,1-.62,1.07,9.82,9.82,0,0,1-.86,1l-1,1q-.25.24-.57.57c-.22.23-.42.45-.61.68a8.11,8.11,0,0,0-.5.64,1.14,1.14,0,0,0-.22.52h4.93v1.64h-7.06a3,3,0,0,1,0-.32v-.28a4,4,0,0,1,.24-1.41,5.86,5.86,0,0,1,.65-1.21,9,9,0,0,1,.9-1.06l1-1,.74-.72a7.43,7.43,0,0,0,.61-.7,3.48,3.48,0,0,0,.43-.7,1.94,1.94,0,0,0,.16-.75,1.36,1.36,0,0,0-.48-1.18,1.89,1.89,0,0,0-1.17-.35,2.45,2.45,0,0,0-.83.13,2.84,2.84,0,0,0-.68.3,3.9,3.9,0,0,0-.52.36,2.93,2.93,0,0,0-.34.3l-1-1.36a5.23,5.23,0,0,1,1.58-1,4.84,4.84,0,0,1,1.94-.39,3.59,3.59,0,0,1,2.62.84A3.11,3.11,0,0,1,177.93,77.18Z"/><path class="cls-1" d="M185.45,82.22a2.11,2.11,0,0,0-.21-1,1.71,1.71,0,0,0-.73-.7,4.31,4.31,0,0,0-1.39-.43,13.38,13.38,0,0,0-2.2-.15c.11-1,.21-2,.27-2.92s.12-1.84.16-2.77H187v1.63h-4c0,.18,0,.39,0,.62s0,.46-.05.69,0,.46-.06.67,0,.4-.06.55a5.81,5.81,0,0,1,3.5,1.08,3.21,3.21,0,0,1,1.12,2.6,3.73,3.73,0,0,1-.25,1.39,2.77,2.77,0,0,1-.79,1.1,3.65,3.65,0,0,1-1.32.73,5.92,5.92,0,0,1-1.88.27,6.79,6.79,0,0,1-.88-.07c-.29,0-.58-.09-.85-.15l-.73-.18-.48-.18.37-1.63a6.82,6.82,0,0,0,1,.34,5.62,5.62,0,0,0,1.54.19,3.7,3.7,0,0,0,1.07-.14,2,2,0,0,0,.73-.38,1.45,1.45,0,0,0,.41-.55A1.85,1.85,0,0,0,185.45,82.22Z"/><path class="cls-1" d="M189.54,74.81l1.94-.32V77h3v1.61h-3V82a2.43,2.43,0,0,0,.32,1.44,1.25,1.25,0,0,0,1.09.43,3.3,3.3,0,0,0,.93-.11,4.54,4.54,0,0,0,.65-.21l.32,1.54a8,8,0,0,1-.88.3,4.84,4.84,0,0,1-1.28.15,4.06,4.06,0,0,1-1.5-.24,2.19,2.19,0,0,1-.95-.7,2.7,2.7,0,0,1-.49-1.1,6.61,6.61,0,0,1-.15-1.48Z"/><path class="cls-1" d="M196.33,85.39V73.29l1.93-.32v4.14a6.77,6.77,0,0,1,.75-.19,4.78,4.78,0,0,1,.84-.08,4.44,4.44,0,0,1,1.67.28,2.6,2.6,0,0,1,1.06.79,2.91,2.91,0,0,1,.57,1.2,6.93,6.93,0,0,1,.17,1.57v4.71h-1.94V81a6.31,6.31,0,0,0-.09-1.15,2,2,0,0,0-.28-.77,1.26,1.26,0,0,0-.54-.43,2.23,2.23,0,0,0-.83-.13,3.59,3.59,0,0,0-.79.08,5.89,5.89,0,0,0-.59.14v6.66Z"/><path class="cls-1" d="M216.84,85.39c-.15-.44-.31-.87-.47-1.3s-.31-.86-.46-1.31h-4.69l-.45,1.32c-.16.43-.31.86-.46,1.29h-2.1c.42-1.19.81-2.28,1.19-3.28s.73-2,1.09-2.85.71-1.75,1.06-2.56.72-1.61,1.09-2.4h1.93q.56,1.19,1.08,2.4c.36.81.71,1.66,1.07,2.56s.72,1.84,1.1,2.85.78,2.09,1.19,3.28Zm-3.28-9c-.24.57-.52,1.25-.84,2.07s-.64,1.69-1,2.64h3.65c-.34-1-.67-1.84-1-2.66S213.8,77,213.56,76.44Z"/><path class="cls-1" d="M227,85.13c-.37.1-.85.19-1.45.3a12,12,0,0,1-2,.15,4.42,4.42,0,0,1-1.69-.29,2.79,2.79,0,0,1-1.09-.8,3.21,3.21,0,0,1-.58-1.22,6.42,6.42,0,0,1-.18-1.56V77h1.94V81.4a3.53,3.53,0,0,0,.39,1.92,1.53,1.53,0,0,0,1.37.58l.74,0c.27,0,.46-.05.59-.08V77H227Z"/><path class="cls-1" d="M236.34,84.54a3.79,3.79,0,0,1-1,2.93,4.51,4.51,0,0,1-3.11.92,9.08,9.08,0,0,1-1.49-.12,8.44,8.44,0,0,1-1.32-.34l.35-1.65a6.29,6.29,0,0,0,1.13.34,7.22,7.22,0,0,0,1.36.13,2.36,2.36,0,0,0,1.67-.48,1.91,1.91,0,0,0,.49-1.43v-.32a4.71,4.71,0,0,1-.76.29,3.54,3.54,0,0,1-1.08.14,4,4,0,0,1-1.46-.25A3.15,3.15,0,0,1,230,84a3.54,3.54,0,0,1-.73-1.24,5.39,5.39,0,0,1,0-3.4,3.64,3.64,0,0,1,.82-1.32,3.74,3.74,0,0,1,1.3-.84,4.62,4.62,0,0,1,1.75-.31,10.21,10.21,0,0,1,1.79.15,12.72,12.72,0,0,1,1.44.3ZM231,81a2.6,2.6,0,0,0,.53,1.8,1.85,1.85,0,0,0,1.39.56,3,3,0,0,0,.87-.12,2.54,2.54,0,0,0,.66-.31V78.59a2.79,2.79,0,0,0-.51-.09,5.5,5.5,0,0,0-.77,0,2,2,0,0,0-1.61.69A2.88,2.88,0,0,0,231,81Z"/></g></g></svg>