<svg xmlns="http://www.w3.org/2000/svg" viewBox="0 0 378.77 358.85"><defs><style>.cls-1,.cls-3{fill:#231f20;}.cls-1,.cls-4{stroke:#fff;stroke-miterlimit:10;}.cls-2{fill:#fff;}.cls-4{fill:none;}.cls-5{fill:#8dc63f;}.cls-6{fill:#396e00;}</style></defs><title>faq-image</title><g id="Layer_2" data-name="Layer 2"><g id="Layer_1-2" data-name="Layer 1"><path class="cls-1" d="M368.19,215.34,124,356.34a15,15,0,0,1-15,0l-99-57.2c-10-5.77-13.41-29.65-3.4-35.43l247.6-131.57a15,15,0,0,1,15,0L372.62,181C382.63,186.73,378.2,209.56,368.19,215.34Z"/><path class="cls-1" d="M368.25,203.17l-244.2,141a15,15,0,0,1-15,0L10,287a15,15,0,0,1,0-26L254.18,120a15,15,0,0,1,15,0l99.05,57.2A15,15,0,0,1,368.25,203.17Z"/><path class="cls-1" d="M74.48,313.15,53,300.75a5.85,5.85,0,0,1,0-10.12l4.28-2.47c1.81-1,4-1,7.84,2l21.48,12.4c1.9.25,1.9,5.88-2,8.13l-4.27,2.46A5.83,5.83,0,0,1,74.48,313.15Z"/><ellipse class="cls-2" cx="148.98" cy="235.95" rx="1.56" ry="0.9"/><path class="cls-2" d="M151.37,234.58a2.46,2.46,0,0,0,2.21,0,.68.68,0,0,0,0-1.28,2.46,2.46,0,0,0-2.21,0A.68.68,0,0,0,151.37,234.58Z"/><ellipse class="cls-2" cx="155.96" cy="231.92" rx="1.56" ry="0.9"/><ellipse class="cls-2" cx="159.45" cy="229.91" rx="1.56" ry="0.9"/><path class="cls-2" d="M161.84,228.53a2.46,2.46,0,0,0,2.21,0,.68.68,0,0,0,0-1.28,2.46,2.46,0,0,0-2.21,0A.68.68,0,0,0,161.84,228.53Z"/><ellipse class="cls-2" cx="166.44" cy="225.87" rx="1.56" ry="0.9"/><ellipse class="cls-2" cx="169.93" cy="223.86" rx="1.56" ry="0.9"/><ellipse class="cls-2" cx="173.42" cy="221.84" rx="1.56" ry="0.9"/><path class="cls-2" d="M175.81,220.46a2.4,2.4,0,0,0,2.21,0,.67.67,0,0,0,0-1.27,2.4,2.4,0,0,0-2.21,0A.67.67,0,0,0,175.81,220.46Z"/><ellipse class="cls-2" cx="180.4" cy="217.81" rx="1.56" ry="0.9"/><path class="cls-2" d="M182.79,216.43a2.46,2.46,0,0,0,2.21,0,.67.67,0,0,0,0-1.27,2.4,2.4,0,0,0-2.21,0A.67.67,0,0,0,182.79,216.43Z"/><ellipse class="cls-2" cx="152.07" cy="237.74" rx="1.56" ry="0.9"/><ellipse class="cls-2" cx="155.57" cy="235.72" rx="1.56" ry="0.9"/><ellipse class="cls-2" cx="159.06" cy="233.71" rx="1.56" ry="0.9"/><ellipse class="cls-2" cx="162.55" cy="231.69" rx="1.56" ry="0.9"/><ellipse class="cls-2" cx="166.04" cy="229.68" rx="1.56" ry="0.9"/><path class="cls-2" d="M168.43,228.3a2.46,2.46,0,0,0,2.21,0,.68.68,0,0,0,0-1.28,2.46,2.46,0,0,0-2.21,0A.68.68,0,0,0,168.43,228.3Z"/><path class="cls-2" d="M171.92,226.28a2.46,2.46,0,0,0,2.21,0,.67.67,0,0,0,0-1.27,2.4,2.4,0,0,0-2.21,0A.67.67,0,0,0,171.92,226.28Z"/><path class="cls-2" d="M175.41,224.27a2.46,2.46,0,0,0,2.21,0,.68.68,0,0,0,0-1.28,2.46,2.46,0,0,0-2.21,0A.68.68,0,0,0,175.41,224.27Z"/><path class="cls-2" d="M178.9,222.25a2.46,2.46,0,0,0,2.21,0,.68.68,0,0,0,0-1.28,2.46,2.46,0,0,0-2.21,0A.68.68,0,0,0,178.9,222.25Z"/><path class="cls-2" d="M182.39,220.23a2.4,2.4,0,0,0,2.21,0,.67.67,0,0,0,0-1.27,2.4,2.4,0,0,0-2.21,0A.67.67,0,0,0,182.39,220.23Z"/><path class="cls-2" d="M185.88,218.22a2.46,2.46,0,0,0,2.21,0,.68.68,0,0,0,0-1.28,2.46,2.46,0,0,0-2.21,0A.68.68,0,0,0,185.88,218.22Z"/><path class="cls-2" d="M156.27,238.89a2.4,2.4,0,0,0-2.21,0,.67.67,0,0,0,0,1.27,2.4,2.4,0,0,0,2.21,0A.67.67,0,0,0,156.27,238.89Z"/><path class="cls-2" d="M159.76,236.87a2.46,2.46,0,0,0-2.21,0,.68.68,0,0,0,0,1.28,2.46,2.46,0,0,0,2.21,0A.68.68,0,0,0,159.76,236.87Z"/><path class="cls-2" d="M163.26,234.85a2.46,2.46,0,0,0-2.21,0,.68.68,0,0,0,0,1.28,2.46,2.46,0,0,0,2.21,0A.68.68,0,0,0,163.26,234.85Z"/><path class="cls-2" d="M166.75,232.84a2.46,2.46,0,0,0-2.21,0,.68.68,0,0,0,0,1.28,2.46,2.46,0,0,0,2.21,0A.68.68,0,0,0,166.75,232.84Z"/><path class="cls-2" d="M170.24,230.82a2.46,2.46,0,0,0-2.21,0,.68.68,0,0,0,0,1.28,2.46,2.46,0,0,0,2.21,0A.68.68,0,0,0,170.24,230.82Z"/><ellipse class="cls-2" cx="172.62" cy="229.45" rx="1.56" ry="0.9"/><ellipse class="cls-2" cx="176.12" cy="227.43" rx="1.56" ry="0.9"/><path class="cls-2" d="M180.71,224.78a2.4,2.4,0,0,0-2.21,0,.67.67,0,0,0,0,1.27,2.46,2.46,0,0,0,2.21,0A.67.67,0,0,0,180.71,224.78Z"/><ellipse class="cls-2" cx="183.1" cy="223.4" rx="1.56" ry="0.9"/><path class="cls-2" d="M187.69,220.74a2.44,2.44,0,0,0-2.2,0c-.62.36-.62.93,0,1.28a2.44,2.44,0,0,0,2.2,0A.68.68,0,0,0,187.69,220.74Z"/><ellipse class="cls-2" cx="190.08" cy="219.37" rx="1.56" ry="0.9"/><ellipse class="cls-2" cx="158.26" cy="241.31" rx="1.56" ry="0.9"/><ellipse class="cls-2" cx="161.75" cy="239.3" rx="1.56" ry="0.9"/><ellipse class="cls-2" cx="165.24" cy="237.28" rx="1.56" ry="0.9"/><path class="cls-2" d="M167.63,235.9a2.46,2.46,0,0,0,2.21,0,.67.67,0,0,0,0-1.27,2.4,2.4,0,0,0-2.21,0A.67.67,0,0,0,167.63,235.9Z"/><ellipse class="cls-2" cx="172.23" cy="233.25" rx="1.56" ry="0.9"/><path class="cls-2" d="M174.61,231.87a2.46,2.46,0,0,0,2.21,0,.68.68,0,0,0,0-1.28,2.46,2.46,0,0,0-2.21,0A.68.68,0,0,0,174.61,231.87Z"/><ellipse class="cls-2" cx="179.21" cy="229.22" rx="1.56" ry="0.9"/><path class="cls-2" d="M181.6,227.84a2.46,2.46,0,0,0,2.21,0,.68.68,0,0,0,0-1.28,2.46,2.46,0,0,0-2.21,0A.68.68,0,0,0,181.6,227.84Z"/><ellipse class="cls-2" cx="186.19" cy="225.18" rx="1.56" ry="0.9"/><path class="cls-2" d="M188.58,223.81a2.46,2.46,0,0,0,2.21,0,.68.68,0,0,0,0-1.28,2.46,2.46,0,0,0-2.21,0A.68.68,0,0,0,188.58,223.81Z"/><path class="cls-2" d="M192.07,221.79a2.46,2.46,0,0,0,2.21,0,.68.68,0,0,0,0-1.28,2.46,2.46,0,0,0-2.21,0A.68.68,0,0,0,192.07,221.79Z"/><ellipse class="cls-2" cx="161.36" cy="243.1" rx="1.56" ry="0.9"/><ellipse class="cls-2" cx="164.85" cy="241.08" rx="1.56" ry="0.9"/><path class="cls-2" d="M169.44,238.43a2.4,2.4,0,0,0-2.21,0,.67.67,0,0,0,0,1.27,2.4,2.4,0,0,0,2.21,0A.67.67,0,0,0,169.44,238.43Z"/><path class="cls-2" d="M172.93,236.41a2.46,2.46,0,0,0-2.21,0,.68.68,0,0,0,0,1.28,2.46,2.46,0,0,0,2.21,0A.68.68,0,0,0,172.93,236.41Z"/><path class="cls-2" d="M176.43,234.4a2.4,2.4,0,0,0-2.21,0,.67.67,0,0,0,0,1.27,2.4,2.4,0,0,0,2.21,0A.67.67,0,0,0,176.43,234.4Z"/><path class="cls-2" d="M179.92,232.38a2.46,2.46,0,0,0-2.21,0,.68.68,0,0,0,0,1.28,2.46,2.46,0,0,0,2.21,0A.68.68,0,0,0,179.92,232.38Z"/><path class="cls-2" d="M183.41,230.36a2.46,2.46,0,0,0-2.21,0,.68.68,0,0,0,0,1.28,2.46,2.46,0,0,0,2.21,0A.68.68,0,0,0,183.41,230.36Z"/><path class="cls-2" d="M186.9,228.35a2.46,2.46,0,0,0-2.21,0,.67.67,0,0,0,0,1.27,2.4,2.4,0,0,0,2.21,0A.67.67,0,0,0,186.9,228.35Z"/><path class="cls-2" d="M190.39,226.33a2.46,2.46,0,0,0-2.21,0,.68.68,0,0,0,0,1.28,2.46,2.46,0,0,0,2.21,0A.68.68,0,0,0,190.39,226.33Z"/><ellipse class="cls-2" cx="192.78" cy="224.95" rx="1.56" ry="0.9"/><ellipse class="cls-2" cx="196.27" cy="222.94" rx="1.56" ry="0.9"/><path class="cls-2" d="M165.55,244.25a2.4,2.4,0,0,0-2.21,0,.67.67,0,0,0,0,1.27,2.46,2.46,0,0,0,2.21,0A.67.67,0,0,0,165.55,244.25Z"/><ellipse class="cls-2" cx="167.94" cy="242.87" rx="1.56" ry="0.9"/><path class="cls-2" d="M172.54,240.21a2.46,2.46,0,0,0-2.21,0,.68.68,0,0,0,0,1.28,2.46,2.46,0,0,0,2.21,0A.68.68,0,0,0,172.54,240.21Z"/><ellipse class="cls-2" cx="174.92" cy="238.84" rx="1.56" ry="0.9"/><path class="cls-2" d="M179.52,236.18a2.46,2.46,0,0,0-2.21,0,.68.68,0,0,0,0,1.28,2.46,2.46,0,0,0,2.21,0A.68.68,0,0,0,179.52,236.18Z"/><ellipse class="cls-2" cx="181.91" cy="234.8" rx="1.56" ry="0.9"/><path class="cls-2" d="M186.5,232.15a2.46,2.46,0,0,0-2.21,0,.68.68,0,0,0,0,1.28,2.46,2.46,0,0,0,2.21,0A.68.68,0,0,0,186.5,232.15Z"/><ellipse class="cls-2" cx="188.89" cy="230.77" rx="1.56" ry="0.9"/><ellipse class="cls-2" cx="192.38" cy="228.76" rx="1.56" ry="0.9"/><ellipse class="cls-2" cx="195.87" cy="226.74" rx="1.56" ry="0.9"/><ellipse class="cls-2" cx="199.36" cy="224.72" rx="1.56" ry="0.9"/><polygon class="cls-3" points="121.76 248.24 143.11 259.88 176.21 240.88 155.37 229.9 121.76 248.24"/><polygon class="cls-4" points="26.12 257.99 240.25 134.35 355.55 203.3 145.54 324.56 26.12 257.99"/><path class="cls-5" d="M213.32,51.19a44.91,44.91,0,0,1-4.43,19L186.74,123.5l-9.91,60.44-17.2-10.34V141.76a46.36,46.36,0,0,1,4.44-19.53L188.43,69.5V32.12L159.85,49.26l-7.59,59.42-17.2-8.93v-42q0-18,15.48-27.29l47.2-28.29C208.13-4.07,230.32,4,230.32,16ZM176.4,229.83l-17.2-8.93v-30l25.44-15.26,17.2,8.94Z"/><path class="cls-6" d="M230.53,60.13a44.74,44.74,0,0,1-4.44,19l-24.68,53.3v36.75l-24.58,14.73V150.69a46.36,46.36,0,0,1,4.44-19.53l24.36-52.73V41.05L177.05,58.19V93.81l-24.79,14.87v-42q0-18,15.48-27.28l47.2-28.3q15.59-9.34,15.59,8.65ZM201.84,214.58,176.4,229.83v-30l25.44-15.25Z"/><path class="cls-1" d="M319.7,170.33l-31.3-18.07a3.07,3.07,0,0,1,0-5.32l.74-.43a3.06,3.06,0,0,1,3.07,0l31.31,18.07a3.08,3.08,0,0,1,0,5.32l-.75.43A3.06,3.06,0,0,1,319.7,170.33Z"/><line class="cls-1" x1="26.43" y1="270.58" x2="39.08" y2="277.88"/><line class="cls-1" x1="22.21" y1="272.23" x2="34.86" y2="279.53"/><line class="cls-1" x1="18.11" y1="274.66" x2="30.75" y2="281.96"/><ellipse class="cls-2" cx="333.6" cy="173.65" rx="4.22" ry="2.43"/><ellipse class="cls-2" cx="342.03" cy="178.52" rx="4.22" ry="2.43"/></g></g></svg>