<svg xmlns="http://www.w3.org/2000/svg" viewBox="0 0 444 500">
<defs><style>.cls-1{fill:rgb(7,249,254);}</style></defs>
<title>moon-white</title><g id="Layer_2" data-name="Layer 2"><g id="Layer_1-2" data-name="Layer 1"><path class="cls-1" d="M444,396v5c-1.52,7.37-5.22,13.43-10.53,18.76-5.64,5.65-11.17,11.41-17.17,16.68q-57,50.06-132.06,60.76c-10.72,1.53-21.53,1.43-32.24,2.8h-5a43.52,43.52,0,0,0-4.91-.67c-35-1-68.41-8.77-99.62-24.43C63.5,435.26,17,371.47,2.91,284.23,1.45,275.23,1,266.08,0,257V242a42.31,42.31,0,0,0,.76-4.84A246.58,246.58,0,0,1,5.9,197.58C25.28,102.09,103.59,23.94,199.1,5,209,3,219,1.65,229,0h6a5.18,5.18,0,0,0,1.22.77c21,5.43,27.46,25.89,13.47,42.5-41.33,49.1-56.87,105.3-45.73,168.54C218,291.37,283.14,356.53,362.53,371a223.88,223.88,0,0,0,53.73,3.05c14-.84,23.58,6.74,26.89,20.21A8.59,8.59,0,0,0,444,396Z"/></g></g></svg>