<svg xmlns="http://www.w3.org/2000/svg" viewBox="0 0 84 83.1"><defs><style>.cls-1{fill:rgb(7,249,254);}</style></defs><title>sun-white</title><g id="Layer_2" data-name="Layer 2"><g id="Layer_1-2" data-name="Layer 1"><path class="cls-1" d="M44,0c3.29,4.28,1.94,9.2,1.71,13.89-.09,1.73-1.83,2.76-3.61,2.94A3.92,3.92,0,0,1,38,14.56C36.48,11.62,37.7,2.71,40,0Z"/><path class="cls-1" d="M0,40c2.6-2.27,11.6-3.53,14.56-2a3.91,3.91,0,0,1,2.3,4.06c-.17,1.81-1.25,3.45-3,3.59C9.18,46,4.3,47.24,0,44Z"/><path class="cls-1" d="M84,42c-2.54,3.6-11.25,5.6-15.08,3.45a4.27,4.27,0,0,1-.3-7.39c3.47-2,12.88-.2,15.38,2.94Z"/><path class="cls-1" d="M20.85,41.7A20.65,20.65,0,0,1,41.7,20.85a20.82,20.82,0,1,1,0,41.64A20.6,20.6,0,0,1,20.85,41.7Zm33.15,0C54,35,48.25,29.15,41.65,29.24A12.87,12.87,0,0,0,29.38,41.39,12.31,12.31,0,1,0,54,41.72Z"/><path class="cls-1" d="M46,74.81c0,.83,0,1.65,0,2.48.1,3.09-.43,5.81-4.31,5.81s-4.21-2.92-4.19-5.9c0-2,0-4,0-6,0-2.65,1.13-4.58,4-4.63,3-.05,4.44,1.76,4.45,4.72Z"/><path class="cls-1" d="M62.44,58.22c2.79.08,8.59,5.8,8.5,8.33a4.08,4.08,0,0,1-4.35,4.36c-2.71.06-8.4-5.64-8.3-8.31A4.2,4.2,0,0,1,62.44,58.22Z"/><path class="cls-1" d="M16.69,12.6c2.76-.06,8.38,5.32,8.42,8.17s-1.45,4.33-4.27,4.33-8.32-5.53-8.21-8.34C12.73,14.22,14.18,12.85,16.69,12.6Z"/><path class="cls-1" d="M61.94,25.07c-2.19-.18-3.54-1.68-3.68-4.11-.17-2.74,6-8.58,8.68-8.38a3.91,3.91,0,0,1,4,4.13C71,19.64,65.21,25.23,61.94,25.07Z"/><path class="cls-1" d="M25.12,62.44c0,2.58-5.66,8.42-8.25,8.32-2.76-.11-4.26-1.71-4.22-4.47,0-2.91,5.7-8.27,8.47-8.05C23.63,58.44,25,59.9,25.12,62.44Z"/></g></g></svg>