<svg xmlns="http://www.w3.org/2000/svg" viewBox="0 0 759.69 336.62"><defs><style>.cls-1{stroke:#fff;stroke-miterlimit:10;}.cls-2{fill:#86ff00;}.cls-3{fill:none;stroke-width:4px;stroke:#86ff00;stroke-miterlimit:10;}</style></defs><title>team</title><g id="Layer_2" data-name="Layer 2"><g id="Layer_1-2" data-name="Layer 1"><path class="cls-1" d="M133,217.11c-1,3.85-5.56,8.34-9.41,7.31s-5.55-7.17-4.53-11A7.21,7.21,0,1,1,133,217.11Z"/><path class="cls-1" d="M96.88,182.79a3.34,3.34,0,1,1-3.34-3.34A3.33,3.33,0,0,1,96.88,182.79Z"/><polygon class="cls-1" points="100.48 329.02 108.47 327.6 109.03 328.44 97.17 333.02 96.02 330.69 100.48 329.02"/><polygon class="cls-1" points="133.34 263.06 127.36 296.44 128.72 332.51 114.74 332.51 113.98 329.82 123.57 328.55 118.46 296.6 115.76 264.55 133.34 263.06"/><polygon class="cls-1" points="137.96 262.6 139.22 289.89 160.62 318.32 158.07 331.74 151.68 331.74 155.51 328.87 156.15 320.24 135.71 297.24 119.1 263.7 137.96 262.6"/><polygon class="cls-1" points="93.54 186.13 96.88 182.79 107.07 207.14 119.25 222.03 130.07 226.99 139.09 264.98 115.19 267.24 112.48 228.34 98.05 210.3 93.54 186.13"/><path class="cls-2" d="M128.52,215.4c-.05.78-.11,1.55-.17,2.33,1-.17,1.75,1.06,1.4,2a2.34,2.34,0,0,1-2.41,1.29,9.29,9.29,0,0,1,.19,3,15.47,15.47,0,0,0,5.42-3.87,6.86,6.86,0,0,0,1.48-6.26,10.27,10.27,0,0,0-.91-1.89c-.49-.88-1-1.75-1.48-2.62a3.43,3.43,0,0,0-3.72-2.27c-1.35,0-5.42-.25-4.19,1.91S127.07,213.3,128.52,215.4Z"/><polygon class="cls-1" points="55.93 273.89 61.5 300.06 58.16 333.47 62.61 334.03 71.52 298.95 67.62 268.32 54.26 268.88 55.93 273.89"/><polyline class="cls-1" points="80.43 267.76 67.62 268.32 96.02 330.69 100.48 329.02 80.43 267.76"/><polygon class="cls-1" points="54.26 268.88 50.36 228.78 45.35 185.9 49.25 185.34 58.16 226 72.08 227.11 86.56 185.9 90.45 186.46 79.87 230.45 80.43 267.76 54.26 268.88"/><path class="cls-1" d="M73.72,215.39c0,4-3.23,9.49-7.21,9.49s-7.21-5.51-7.21-9.49a7.21,7.21,0,1,1,14.42,0Z"/><path class="cls-1" d="M51.47,183.67a3.34,3.34,0,1,1-3.34-3.34A3.34,3.34,0,0,1,51.47,183.67Z"/><path class="cls-1" d="M90.45,184.79a3.34,3.34,0,1,1-3.34-3.34A3.34,3.34,0,0,1,90.45,184.79Z"/><path class="cls-2" d="M69.35,211.89a4.06,4.06,0,0,0,2.62-.83,1,1,0,0,0,.13-.17,7.18,7.18,0,0,0-12.8,4.5,11.45,11.45,0,0,0,4,8.3,12.93,12.93,0,0,0,.18-2.33c0-3.14,0-6.29-.17-9.42A38.76,38.76,0,0,0,69.35,211.89Z"/><path class="cls-1" d="M62.61,334h7.11s.19,1.31-.09,1.22-11.95.28-11.95.28l.48-2.07Z"/><path class="cls-1" d="M63.47,216.38a1.92,1.92,0,0,0-1.68-.78,1.55,1.55,0,0,0-.43.14,1.44,1.44,0,0,0-.62,1,2.92,2.92,0,0,0,1.38,2.85,2.07,2.07,0,0,0,.88.34,1.19,1.19,0,0,0,.9-.23C64.8,219,64.05,217.1,63.47,216.38Z"/><polygon class="cls-1" points="178.69 268.88 180.23 247.63 177.86 231.99 169.78 185.9 173.68 185.34 182.59 226 196.51 227.11 210.99 185.9 214.89 186.46 204.31 230.45 200.6 247.27 201.03 267.76 178.69 268.88"/><path class="cls-1" d="M198.16,215.39c0,4-3.23,9.49-7.21,9.49s-7.22-5.51-7.22-9.49a7.22,7.22,0,0,1,14.43,0Z"/><path class="cls-1" d="M175.91,183.67a3.34,3.34,0,1,1-3.34-3.34A3.35,3.35,0,0,1,175.91,183.67Z"/><path class="cls-1" d="M187.91,216.38a1.92,1.92,0,0,0-1.68-.78,1.55,1.55,0,0,0-.43.14,1.41,1.41,0,0,0-.62,1,2.92,2.92,0,0,0,1.38,2.85,2.07,2.07,0,0,0,.88.34,1.2,1.2,0,0,0,.9-.23C189.24,219,188.49,217.1,187.91,216.38Z"/><path class="cls-2" d="M187.91,216a.65.65,0,0,1-.52.09c-.17-.06-.25-.24-.36-.39a1.32,1.32,0,0,0-1.89-.06,1.69,1.69,0,0,0-.21,2,2.41,2.41,0,0,0,1.74,1.11,15.94,15.94,0,0,1,.57,5.1l-3.45.25a.69.69,0,0,1-.91-.67,28,28,0,0,1-.64-6,11,11,0,0,1,1.25-5.68c1.21-2,6.19-5.32,8.61-3.46C194.78,210.29,189.76,215.08,187.91,216Z"/><path class="cls-2" d="M194,213a8.15,8.15,0,0,0,4.58,3.57,7.46,7.46,0,0,0-1.27-6.28c-.75-1-3.47-3.4-4.92-2.83S193.26,211.92,194,213Z"/><polygon class="cls-1" points="179.51 253.81 200.81 252.81 217.19 326.19 224.79 321.56 215.54 332.8 193.72 272.31 194.05 299.75 179.26 319.35 178.32 326.42 177.92 329.43 175.29 329.12 174.81 318.34 186.26 299.72 178.18 268.9 179.51 253.81"/><polygon class="cls-1" points="178.16 205.78 173.55 207.4 169.78 185.9 173.68 185.34 178.16 205.78"/><polygon class="cls-1" points="205.01 202.92 210.42 205.05 214.89 186.46 210.99 185.9 205.01 202.92"/><polygon class="cls-1" points="186.95 226.34 190.95 233.44 192.96 226.83 186.95 226.34"/><polygon class="cls-1" points="336.2 273.89 341.77 300.06 338.43 333.47 342.88 334.03 351.79 298.95 347.89 268.32 334.53 268.88 336.2 273.89"/><polyline class="cls-1" points="360.7 267.76 347.89 268.32 376.3 330.69 380.75 329.02 360.7 267.76"/><polygon class="cls-1" points="334.53 268.88 330.63 228.78 325.62 185.9 329.52 185.34 338.43 226 352.35 227.11 366.83 185.9 370.73 186.46 360.15 230.45 360.7 267.76 334.53 268.88"/><path class="cls-1" d="M354,215.39c0,4-3.23,9.49-7.22,9.49s-7.21-5.51-7.21-9.49a7.22,7.22,0,0,1,14.43,0Z"/><path class="cls-1" d="M331.75,183.67a3.35,3.35,0,1,1-3.35-3.34A3.35,3.35,0,0,1,331.75,183.67Z"/><path class="cls-1" d="M370.73,184.79a3.35,3.35,0,1,1-3.34-3.34A3.35,3.35,0,0,1,370.73,184.79Z"/><path class="cls-2" d="M349.63,211.89a4.05,4.05,0,0,0,2.61-.83,1,1,0,0,0,.14-.17,7.19,7.19,0,0,0-12.81,4.5,11.45,11.45,0,0,0,4,8.3,12.08,12.08,0,0,0,.19-2.33c0-3.14,0-6.29-.18-9.42A38.9,38.9,0,0,0,349.63,211.89Z"/><path class="cls-1" d="M343.74,216.38a1.92,1.92,0,0,0-1.68-.78,1.48,1.48,0,0,0-.42.14,1.41,1.41,0,0,0-.62,1,2.88,2.88,0,0,0,1.38,2.85,2,2,0,0,0,.88.34,1.17,1.17,0,0,0,.89-.23C345.07,219,344.32,217.1,343.74,216.38Z"/><polygon class="cls-1" points="380.75 329.02 389.25 329.02 389.25 330.69 376.79 332.51 376.3 330.69 380.75 329.02"/><path class="cls-2" d="M314.5,206.71a1.68,1.68,0,0,1,1.9.35,4.92,4.92,0,0,0,1.69,1.16c.27.06.55.06.83.11a2,2,0,0,1,1.22,2.73,2,2,0,0,0-.37.71c-.1.61.57,1,.9,1.54.78,1.23-.45,2.92.1,4.27a5.11,5.11,0,0,0,1.29,1.46,1.82,1.82,0,0,1,.68,1.74c-.26.82-1.37,1-2.2.79a8.9,8.9,0,0,0-2.48-.68c-.45,0-.88.16-1.33.14a2.64,2.64,0,0,1-2.12-1.66,19.29,19.29,0,0,1-.79-2.72,8.86,8.86,0,0,0-1.68-3.2c-.67-.82-1.55-1.8-1.15-2.78.27-.67,1-1,1.61-1.37a1.58,1.58,0,0,0,.76-1.73C313.84,207.4,314.08,207,314.5,206.71Z"/><polygon class="cls-1" points="324.53 268.88 322.99 247.63 325.37 231.99 333.44 185.9 329.54 185.34 320.63 226 306.71 227.11 292.23 185.9 288.33 186.46 298.92 230.45 302.63 247.27 302.19 267.76 324.53 268.88"/><path class="cls-1" d="M305.07,215.39c0,4,3.23,9.49,7.21,9.49s7.21-5.51,7.21-9.49a7.21,7.21,0,0,0-14.42,0Z"/><path class="cls-1" d="M327.32,183.67a3.34,3.34,0,1,0,3.34-3.34A3.34,3.34,0,0,0,327.32,183.67Z"/><path class="cls-1" d="M315.32,216.38a1.92,1.92,0,0,1,1.68-.78,1.48,1.48,0,0,1,.42.14,1.42,1.42,0,0,1,.63,1,2.92,2.92,0,0,1-1.38,2.85,2.07,2.07,0,0,1-.88.34,1.19,1.19,0,0,1-.9-.23C314,219,314.74,217.1,315.32,216.38Z"/><polygon class="cls-1" points="302.29 253.81 323.59 252.81 339.97 326.19 354 332.51 338.32 332.8 316.5 272.31 316.84 299.75 302.04 319.35 301.1 326.42 300.71 329.43 298.07 329.12 297.59 318.34 309.04 299.72 300.96 268.9 302.29 253.81"/><polygon class="cls-1" points="325.06 205.78 329.68 207.4 333.44 185.9 329.54 185.34 325.06 205.78"/><polygon class="cls-1" points="298.21 202.92 292.81 205.05 288.33 186.46 292.23 185.9 298.21 202.92"/><path class="cls-1" d="M286.59,183.67a3.34,3.34,0,1,0,3.34-3.34A3.35,3.35,0,0,0,286.59,183.67Z"/><path class="cls-2" d="M316,210.63a3.7,3.7,0,0,1-1.9,1.31c-.72.32-1.48.83-1.57,1.61s.74,1.75.5,2.61c-.35,1.24-2.55,1.33-2.62,2.61a2.73,2.73,0,0,0,.38,1.19,1.73,1.73,0,0,1-.17,1.91,3.16,3.16,0,0,1-1.32.54c-.45.15-.94.49-.93,1s.58,1,.33,1.46-.69.31-1.08.22a2.93,2.93,0,0,1-2-1.05c-.23-.37-.28-.83-.48-1.23-.63-1.32-2.47-1.46-3.58-2.43a3,3,0,0,1,.2-4.48,11.53,11.53,0,0,0,1.66-1.08,2.87,2.87,0,0,0,.6-2.42c-.12-.85-.44-1.66-.6-2.51a1.84,1.84,0,0,1,.17-1.44,1.74,1.74,0,0,1,1.9-.36,6.94,6.94,0,0,0,2,.53c1.65,0,2.74-2,4.38-2.06,1.2,0,2,1,2.94,1.61S316.75,209.34,316,210.63Z"/><path class="cls-1" d="M626,175.43c.26.63-17.86,30.56-17.86,30.56l-10.47,21,7.42.12,9.29-23.49,12.27-24.53Z"/><path class="cls-1" d="M599.63,212.71c-1.15,3.81.34,10,4.15,11.18s8.51-3.18,9.66-7a7.22,7.22,0,1,0-13.81-4.19Z"/><polygon class="cls-1" points="594.42 263.06 600.4 296.44 599.05 332.51 613.02 332.51 613.78 329.82 604.19 328.55 609.3 296.6 608.67 263.7 594.42 263.06"/><polygon class="cls-1" points="589.8 262.6 588.54 289.89 567.14 318.32 569.7 331.74 576.08 331.74 572.25 328.87 571.61 320.24 592.05 297.24 608.67 263.7 589.8 262.6"/><path class="cls-2" d="M604.1,210.69c-.36.69-.44,4.33-.8,5a1.47,1.47,0,0,0-2.23.94,2.34,2.34,0,0,0,1.37,2.36,9.58,9.58,0,0,0-1.76,2.47,15.44,15.44,0,0,1-2.56-6.14,6.85,6.85,0,0,1,2-6.1,10,10,0,0,1,1.77-1.13l2.64-1.45a3.47,3.47,0,0,1,4.36,0c1.17.68,4.74,2.65,2.56,3.84S606.44,209.66,604.1,210.69Z"/><polygon class="cls-1" points="629.47 178.01 625.4 177.84 610.31 210.51 604.65 221.48 597.69 226.99 589.8 262.6 608.67 263.7 610.05 229.12 615.91 212.02 629.47 178.01"/><path class="cls-1" d="M631.31,177a3.35,3.35,0,1,1-3.35-3.34A3.34,3.34,0,0,1,631.31,177Z"/><polygon class="cls-1" points="546.49 268.88 548.03 247.63 545.65 231.99 537.58 185.9 541.48 185.34 550.39 226 564.31 227.11 578.79 185.9 582.69 186.46 572.11 230.45 568.39 247.27 568.83 267.76 546.49 268.88"/><path class="cls-1" d="M566,215.39c0,4-3.22,9.49-7.21,9.49s-7.21-5.51-7.21-9.49a7.21,7.21,0,0,1,14.42,0Z"/><path class="cls-1" d="M555.7,216.38a1.92,1.92,0,0,0-1.68-.78,1.48,1.48,0,0,0-.42.14,1.42,1.42,0,0,0-.63,1,2.92,2.92,0,0,0,1.38,2.85,2.06,2.06,0,0,0,.89.34,1.17,1.17,0,0,0,.89-.23C557,219,556.28,217.1,555.7,216.38Z"/><path class="cls-2" d="M555.71,216a.65.65,0,0,1-.52.09c-.17-.06-.26-.24-.37-.39a1.32,1.32,0,0,0-1.89-.06,1.7,1.7,0,0,0-.2,2,2.39,2.39,0,0,0,1.74,1.11,15.93,15.93,0,0,1,.56,5.1l-3.44.25a.9.9,0,0,1-.65-.11,1,1,0,0,1-.27-.56,28,28,0,0,1-.63-6,10.87,10.87,0,0,1,1.25-5.68c1.21-2,6.18-5.32,8.61-3.46C562.57,210.29,557.56,215.08,555.71,216Z"/><path class="cls-2" d="M561.79,213a8.19,8.19,0,0,0,4.58,3.57,7.46,7.46,0,0,0-1.27-6.28c-.75-1-3.47-3.4-4.92-2.83S561.06,211.92,561.79,213Z"/><polygon class="cls-1" points="547.3 253.81 568.6 252.81 584.99 326.19 592.59 321.56 583.33 332.8 561.52 272.31 561.85 299.75 547.05 319.35 546.11 326.42 545.72 329.43 543.08 329.12 542.6 318.34 554.05 299.72 545.97 268.9 547.3 253.81"/><polygon class="cls-1" points="545.96 205.78 541.35 207.4 537.58 185.9 541.48 185.34 545.96 205.78"/><polygon class="cls-1" points="572.81 202.92 578.22 205.05 582.69 186.46 578.79 185.9 572.81 202.92"/><polygon class="cls-1" points="554.74 226.34 558.74 233.44 560.75 226.83 554.74 226.34"/><path class="cls-1" d="M584.43,183.67a3.34,3.34,0,1,1-3.34-3.34A3.35,3.35,0,0,1,584.43,183.67Z"/><path class="cls-1" d="M542.49,184.3a3.35,3.35,0,1,1-3.35-3.34A3.35,3.35,0,0,1,542.49,184.3Z"/><path class="cls-1" d="M636.31,183.29c0,.59-.74,19.55-.74,19.55L631.31,227l7.41.12L641,202.54l-.65-19.27Z"/><path class="cls-1" d="M633.25,212.71c-1.16,3.81.33,10,4.15,11.18s8.5-3.18,9.65-7a7.21,7.21,0,1,0-13.8-4.19Z"/><polygon class="cls-1" points="626.5 260.18 634.01 296.44 619.24 332.51 633.22 332.51 633.97 329.82 624.39 328.55 642.92 296.6 640.52 258.98 626.5 260.18"/><path class="cls-2" d="M636.91,215.71a1.47,1.47,0,0,0-2.23.94,2.34,2.34,0,0,0,1.38,2.36,9.35,9.35,0,0,0-1.76,2.47,15.46,15.46,0,0,1-2.57-6.14,6.83,6.83,0,0,1,2-6.1,9.33,9.33,0,0,1,1.77-1.13l2.63-1.45a4.58,4.58,0,0,1,2.25-.76,4.49,4.49,0,0,1,2.11.78c1.17.68,4.74,2.65,2.56,3.84S637.27,215,636.91,215.71Z"/><path class="cls-1" d="M646.5,183.48l-4.06-.17-.2,24.59-4,13.58-7,5.51.31,22.45-5.12,10.74,17.36-1.49-3.34-8.33,1.17-7.06,1.73-4,1.43-2.58a5.39,5.39,0,0,0,.1-5l-1.29-2.58,5.17-17.59Z"/><path class="cls-1" d="M647.21,181.45a3.35,3.35,0,1,1-3.35-3.35A3.35,3.35,0,0,1,647.21,181.45Z"/><circle class="cls-2" cx="630.38" cy="210.95" r="3.88"/><path class="cls-2" d="M630.14,217.46c-.17,1.74,1,3.69,2.74,3.83a1.34,1.34,0,0,0,1.38-.67,2.39,2.39,0,0,0-.21-1.47,9.46,9.46,0,0,1,0-3.27C634.43,211.1,630.41,214.75,630.14,217.46Z"/><path class="cls-1" d="M643.86,258.69l13.87,32.59-12,26h8.6l-.42,1.15-13.71.86,9.57-26.44s-17.74-32.06-17.6-32.63S643.86,258.69,643.86,258.69Z"/><path class="cls-2" d="M442,229.16a1.8,1.8,0,0,0,1.08-.14,1.75,1.75,0,0,0,.64-1c2-5.45,1.18-11.5.09-17.2a6.5,6.5,0,0,0-.84-2.44c-1-1.39-2.82-1.8-4.51-1.79a5.61,5.61,0,0,0-2.22.37,4.92,4.92,0,0,0-2.65,4.21,14.9,14.9,0,0,0,.79,5.15q1.23,4.53,2.3,9.1c.23,1,.24,2.87,1.2,3.39S440.93,229.09,442,229.16Z"/><path class="cls-1" d="M433.43,217.11c1,3.85,5.57,8.34,9.42,7.31s5.55-7.17,4.53-11a7.22,7.22,0,1,0-13.95,3.71Z"/><path class="cls-1" d="M469.6,182.79a3.34,3.34,0,1,0,3.34-3.34A3.33,3.33,0,0,0,469.6,182.79Z"/><polygon class="cls-1" points="436.76 258 439.11 296.44 437.76 332.51 451.74 332.51 452.49 329.82 441.86 329.61 446.1 296.6 450.46 259.7 436.76 258"/><polygon class="cls-1" points="432.31 257.44 429.17 289.89 412.7 323.06 416.08 331.74 422.47 331.74 418.63 328.87 416.77 322.15 432.69 297.24 447.38 259.32 432.31 257.44"/><polygon class="cls-1" points="472.94 186.13 469.6 182.79 462.49 208.18 447.23 222.03 436.41 226.99 436.3 246.45 432.31 257.44 450.46 259.7 450.16 245.49 450.46 229.89 468.43 210.3 472.94 186.13"/><path class="cls-2" d="M441.55,211.67a12.77,12.77,0,0,1-1.49,4.28,1.87,1.87,0,0,0-2.81-.16,2.35,2.35,0,0,0,0,3,3.14,3.14,0,0,0,2.91,1.05,80.27,80.27,0,0,1-.55,11.81l-6.61-.25c-.71-5.61-1.42-11.28-.74-16.89a12.2,12.2,0,0,1,.83-3.48,5.42,5.42,0,0,1,2.29-2.66,6,6,0,0,1,2.56-.64,7,7,0,0,1,2.23,0C441.43,208.19,441.66,210.55,441.55,211.67Z"/><polygon class="cls-1" points="432.31 257.44 429.17 289.89 446.1 296.6 450.46 259.7 432.31 257.44"/><polygon class="cls-1" points="452.49 329.82 451.74 332.51 437.76 332.51 438 326.01 442.32 326.01 441.86 329.61 452.49 329.82"/><polygon class="cls-1" points="414.87 318.71 417.89 320.4 416.77 322.15 418.63 328.87 422.47 331.74 416.08 331.74 412.7 323.06 414.87 318.71"/><polygon class="cls-1" points="512.22 268.88 516.12 228.78 521.13 185.9 517.23 185.34 508.32 226 494.4 227.11 479.92 185.9 476.02 186.46 486.6 230.45 486.05 267.76 512.22 268.88"/><path class="cls-1" d="M507.18,215.39c0,4-3.23,9.49-7.21,9.49s-7.22-5.51-7.22-9.49a7.22,7.22,0,0,1,14.43,0Z"/><path class="cls-1" d="M515,183.67a3.35,3.35,0,1,0,3.35-3.34A3.35,3.35,0,0,0,515,183.67Z"/><path class="cls-1" d="M476,184.79a3.35,3.35,0,1,0,3.34-3.34A3.35,3.35,0,0,0,476,184.79Z"/><path class="cls-2" d="M502.81,211.89a4.06,4.06,0,0,0,2.62-.83,1,1,0,0,0,.13-.17,7.19,7.19,0,0,0-12.81,4.5,11.46,11.46,0,0,0,4.05,8.3,12.93,12.93,0,0,0,.18-2.33c0-3.14,0-6.29-.17-9.42A38.76,38.76,0,0,0,502.81,211.89Z"/><path class="cls-1" d="M496.93,216.38a1.92,1.92,0,0,0-1.68-.78,1.55,1.55,0,0,0-.43.14,1.44,1.44,0,0,0-.62,1,2.92,2.92,0,0,0,1.38,2.85,2.07,2.07,0,0,0,.88.34,1.19,1.19,0,0,0,.9-.23C498.26,219,497.51,217.1,496.93,216.38Z"/><polygon class="cls-1" points="486.05 267.76 489.91 329.26 494.17 329.26 497.78 268.26 501.58 268.42 503.9 330.76 507.18 330.69 512.22 268.88 512.96 261.26 486.14 261.61 486.05 267.76"/><polygon class="cls-1" points="489.91 329.26 480.56 330.29 480.89 331.74 494.59 331.74 494.17 329.26 489.91 329.26"/><polygon class="cls-1" points="503.9 330.76 503.9 332.51 516.75 333 516.75 331.39 507.18 330.69 503.9 330.76"/><polygon class="cls-1" points="704 273.89 709.56 300.06 706.22 333.47 710.68 334.03 719.59 298.95 715.69 268.32 702.33 268.88 704 273.89"/><polyline class="cls-1" points="728.5 267.76 715.69 268.32 744.09 330.69 748.55 329.02 728.5 267.76"/><polygon class="cls-1" points="702.33 268.88 698.43 228.78 706.94 182.94 710.92 183.24 706.22 226 720.14 227.11 734.62 185.9 738.52 186.46 727.94 230.45 728.5 267.76 702.33 268.88"/><path class="cls-1" d="M721.79,215.39c0,4-3.23,9.49-7.21,9.49s-7.22-5.51-7.22-9.49a7.22,7.22,0,0,1,14.43,0Z"/><path class="cls-1" d="M705.26,182.4a3.34,3.34,0,1,1,3.67,3A3.34,3.34,0,0,1,705.26,182.4Z"/><path class="cls-1" d="M738.52,184.79a3.34,3.34,0,1,1-3.34-3.34A3.34,3.34,0,0,1,738.52,184.79Z"/><path class="cls-2" d="M717.42,211.89a4.06,4.06,0,0,0,2.62-.83,1,1,0,0,0,.13-.17,7.19,7.19,0,0,0-12.81,4.5,11.42,11.42,0,0,0,4,8.3,12.93,12.93,0,0,0,.18-2.33c0-3.14,0-6.29-.18-9.42A38.9,38.9,0,0,0,717.42,211.89Z"/><path class="cls-1" d="M711.54,216.38a1.92,1.92,0,0,0-1.68-.78,1.55,1.55,0,0,0-.43.14,1.41,1.41,0,0,0-.62,1,2.92,2.92,0,0,0,1.38,2.85,2,2,0,0,0,.88.34,1.2,1.2,0,0,0,.9-.23C712.87,219,712.12,217.1,711.54,216.38Z"/><polygon class="cls-1" points="744.52 332.8 744.52 334.03 758.73 327.5 757.44 326.5 748.55 329.02 744.09 330.69 744.52 332.8"/><path class="cls-1" d="M710.68,334l5.84,1.5v.57s-10.29-.4-10.25-.54,0-2.09,0-2.09Z"/><path class="cls-1" d="M229,182.79c.26.64-.6,20.05-.6,20.05L224.15,227l7.42.12,2.31-24.57-.55-20.26Z"/><path class="cls-1" d="M226.09,212.71c-1.16,3.81.34,10,4.15,11.18s8.5-3.18,9.66-7a7.22,7.22,0,0,0-13.81-4.19Z"/><polygon class="cls-1" points="220.88 263.06 226.85 296.44 225.5 332.51 239.48 332.51 240.23 329.82 230.65 328.55 235.76 296.6 235.12 263.7 220.88 263.06"/><polygon class="cls-1" points="216.26 262.6 215 289.89 193.59 318.32 196.15 331.74 202.54 331.74 198.71 328.87 198.07 320.24 218.51 297.24 235.12 263.7 216.26 262.6"/><path class="cls-2" d="M230.56,210.69c-.37.69-.45,4.33-.81,5a1.47,1.47,0,0,0-2.23.94A2.34,2.34,0,0,0,228.9,219a9.35,9.35,0,0,0-1.76,2.47,15.44,15.44,0,0,1-2.56-6.14,6.83,6.83,0,0,1,2-6.1,9.33,9.33,0,0,1,1.77-1.13l2.64-1.45a3.47,3.47,0,0,1,4.36,0c1.17.68,4.73,2.65,2.55,3.84S232.89,209.66,230.56,210.69Z"/><polygon class="cls-1" points="239.34 183.48 235.28 183.31 235.09 207.9 231.1 221.48 224.15 226.99 216.26 262.6 235.12 263.7 236.5 229.12 241.67 211.53 239.34 183.48"/><path class="cls-1" d="M240.05,181.45a3.35,3.35,0,1,1-3.34-3.35A3.35,3.35,0,0,1,240.05,181.45Z"/><path class="cls-1" d="M216.64,183.67a3.35,3.35,0,1,1-3.35-3.34A3.35,3.35,0,0,1,216.64,183.67Z"/><path class="cls-2" d="M682.29,206.71a1.68,1.68,0,0,1,1.9.35,5,5,0,0,0,1.7,1.16c.27.06.55.06.82.11a1.94,1.94,0,0,1,1.22,2.73,2.41,2.41,0,0,0-.37.71c-.09.61.58,1,.91,1.54.77,1.23-.46,2.92.1,4.27a5,5,0,0,0,1.29,1.46,1.87,1.87,0,0,1,.68,1.74c-.26.82-1.37,1-2.2.79a9,9,0,0,0-2.49-.68c-.44,0-.88.16-1.33.14a2.65,2.65,0,0,1-2.12-1.66,18,18,0,0,1-.78-2.72,9,9,0,0,0-1.69-3.2c-.67-.82-1.55-1.8-1.15-2.78.27-.67,1-1,1.61-1.37a1.57,1.57,0,0,0,.76-1.73C681.63,207.4,681.88,207,682.29,206.71Z"/><polygon class="cls-1" points="692.33 268.88 690.79 247.63 693.16 231.99 705.03 183.68 701.13 183.12 688.43 226 674.51 227.11 656.3 184.3 652.4 184.86 666.71 230.45 670.42 247.27 669.99 267.76 692.33 268.88"/><path class="cls-1" d="M672.86,215.39c0,4,3.23,9.49,7.21,9.49s7.22-5.51,7.22-9.49a7.22,7.22,0,0,0-14.43,0Z"/><path class="cls-1" d="M700.71,181.61a3.35,3.35,0,1,0,3.34-3.34A3.35,3.35,0,0,0,700.71,181.61Z"/><path class="cls-1" d="M683.11,216.38a1.93,1.93,0,0,1,1.68-.78,1.55,1.55,0,0,1,.43.14,1.41,1.41,0,0,1,.62,1,2.92,2.92,0,0,1-1.38,2.85,2,2,0,0,1-.88.34,1.2,1.2,0,0,1-.9-.23C681.78,219,682.53,217.1,683.11,216.38Z"/><polygon class="cls-1" points="670.09 253.81 691.38 252.81 707.77 326.19 721.79 332.51 706.12 332.8 684.3 272.31 684.63 299.75 669.84 319.35 668.89 326.42 668.5 329.43 665.87 329.12 665.39 318.34 676.84 299.72 668.76 268.9 670.09 253.81"/><polygon class="cls-1" points="694.27 206.28 699.07 207.96 705.03 183.68 701.13 183.12 694.27 206.28"/><polygon class="cls-1" points="664.61 203.66 658.96 205.76 652.4 184.86 656.3 184.3 664.61 203.66"/><path class="cls-1" d="M650.65,182.07a3.35,3.35,0,1,0,3.35-3.34A3.35,3.35,0,0,0,650.65,182.07Z"/><path class="cls-2" d="M683.82,210.63a3.73,3.73,0,0,1-1.91,1.31c-.71.32-1.47.83-1.57,1.61s.74,1.75.5,2.61c-.35,1.24-2.54,1.33-2.62,2.61a2.74,2.74,0,0,0,.39,1.19,1.73,1.73,0,0,1-.17,1.91,3.16,3.16,0,0,1-1.32.54c-.46.15-.94.49-.94,1s.58,1,.33,1.46-.69.31-1.07.22a2.91,2.91,0,0,1-2-1.05,10.12,10.12,0,0,1-.48-1.23c-.64-1.32-2.48-1.46-3.58-2.43a3,3,0,0,1,.19-4.48,11.53,11.53,0,0,0,1.66-1.08,2.87,2.87,0,0,0,.6-2.42c-.11-.85-.43-1.66-.6-2.51a1.84,1.84,0,0,1,.18-1.44,1.72,1.72,0,0,1,1.89-.36,7,7,0,0,0,2,.53c1.64,0,2.73-2,4.38-2.06,1.2,0,2,1,2.93,1.61S684.55,209.34,683.82,210.63Z"/><path class="cls-1" d="M683,231.66a1.29,1.29,0,1,1-1.29-1.29A1.3,1.3,0,0,1,683,231.66Z"/><circle class="cls-1" cx="681.69" cy="239.64" r="1.29"/><path class="cls-1" d="M268.38,182.79c.26.64-.6,20.05-.6,20.05L263.51,227l7.42.12,2.31-24.57-.55-20.26Z"/><path class="cls-1" d="M265.45,212.71c-1.15,3.81.34,10,4.15,11.18s8.5-3.18,9.66-7a7.22,7.22,0,0,0-13.81-4.19Z"/><polygon class="cls-1" points="260.62 261.87 277.72 294.52 264.86 332.51 278.84 332.51 279.6 329.82 270.01 328.55 286.62 294.69 275.12 260.18 260.62 261.87"/><path class="cls-1" d="M269.11,215.71a1.46,1.46,0,0,0-2.22.94,2.33,2.33,0,0,0,1.37,2.36,9.58,9.58,0,0,0-1.76,2.47,15.44,15.44,0,0,1-2.56-6.14,6.85,6.85,0,0,1,2-6.1,10,10,0,0,1,1.77-1.13l2.64-1.45a3.47,3.47,0,0,1,4.36,0c1.17.68,4.73,2.65,2.55,3.84S269.47,215,269.11,215.71Z"/><path class="cls-1" d="M278.71,183.48l-4.07-.17-.19,24.59-4,13.58-7,5.51-1.93,14-1,20.86,14.5-1.69L273.9,243.3l1.72-4,1.43-2.58a5.36,5.36,0,0,0,.11-5l-1.29-2.58L281,211.53Z"/><path class="cls-1" d="M279.41,181.45a3.34,3.34,0,1,1-3.34-3.35A3.34,3.34,0,0,1,279.41,181.45Z"/><path class="cls-1" d="M262.35,217.46c-.18,1.74,1,3.69,2.73,3.83a1.33,1.33,0,0,0,1.38-.67,2.31,2.31,0,0,0-.2-1.47,9,9,0,0,1,0-3.27C266.63,211.1,262.62,214.75,262.35,217.46Z"/><path class="cls-2" d="M268.41,213.31c1.24-.34,2.55.12,3.83.18a6.54,6.54,0,0,0,.88-.08c.34-2.09,1-4.14,1.3-6.23-1.18-.94-2.34-1-4-.56-2.22.52-4.67,1.2-5.89,3.13-.39.62-.63,1.32-1,1.94-.7,1.1-1.87,1.84-2.6,2.92a4.61,4.61,0,0,0-.77,2.79c.06,1.21.6,2.47.12,3.58-.64,1.46-2.78,2-3.11,3.52-.29,1.4,1.1,2.62,1.27,4,.19,1.6-1.18,3-1.15,4.64a3.68,3.68,0,0,0,2.47,3.13,10.65,10.65,0,0,0,4.17.51,7.66,7.66,0,0,0,4-.81,5.4,5.4,0,0,0,1.78-2.12,16.81,16.81,0,0,0,1.3-6.45,51.25,51.25,0,0,0,.15-5.4,2.91,2.91,0,0,0-.67-2c-.6-.57-1.53-.55-2.32-.83a3.07,3.07,0,0,1,.22-5.85Z"/><polygon class="cls-1" points="258.67 292.81 260.62 261.87 275.12 260.18 266.68 297.17 246.98 320.35 245.44 327.27 246.87 328.71 246.39 330.69 242.72 328.39 241.67 318.8 244.48 318.17 258.67 292.81"/><path class="cls-3" d="M56.48,34.4H2V3H148.16V34.64h-54V174.08H56.48Z"/><path class="cls-3" d="M211.52,105.68v36.48h96.72v31.68H175V2h125V33.68H211.52V72.32h78.24v33.36Z"/><path class="cls-3" d="M328.16,174.08,405.92,3h37.92L520.4,174.08H483.92l-16.8-37.92H380.48l-18,37.92Zm97.2-139-28.8,66.24h56.88L425.6,35.12Z"/><path class="cls-3" d="M551.84,2.72h49l39.6,75.6,38.88-75.6H729V174.08H693.68V52.88h-.48l-38.16,78H626l-37.92-76.8h-.48v120H551.84Z"/></g></g></svg>