<svg width="2340" height="390" xmlns="http://www.w3.org/2000/svg" xmlns:xlink="http://www.w3.org/1999/xlink" xml:space="preserve" overflow="hidden"><defs><clipPath id="clip0"><rect x="1297" y="3020" width="2340" height="368"/></clipPath></defs><g clip-path="url(#clip0)" transform="translate(-1297 -3020)"><path d="M1676.49 3020C1677.33 3023.58 1679.72 3027.57 1678.79 3030.68 1646.28 3147.31 1613.5 3263.86 1580.46 3380.33 1579.59 3383.4 1575.17 3385.46 1572.37 3388 1571.57 3384.55 1569.36 3380.7 1570.18 3377.71 1602.67 3261.42 1635.35 3145.16 1668.21 3028.96 1669.1 3025.79 1671.21 3022.97 1672.76 3020Z" fill="#FFFFFF" fill-rule="evenodd"/><path d="M1894 3160.76C1867.69 3189.86 1842.89 3217.56 1817.72 3244.9 1812.61 3250.46 1810.88 3255.51 1812.21 3263.23 1818.93 3301.98 1824.85 3340.84 1831.37 3381.22 1827.93 3379.6 1825.57 3378.54 1823.36 3377.25 1793.87 3360.21 1764.34 3343.24 1734.97 3325.97 1729.65 3322.85 1725.64 3322.32 1719.92 3325.84 1691.19 3343.53 1662.12 3360.67 1633.14 3377.97 1630.58 3379.5 1627.91 3380.85 1624 3383 1657.75 3263.59 1691.06 3145.72 1724.91 3026 1726.81 3029.83 1728.04 3032.09 1729.08 3034.44 1744.21 3067.99 1759.41 3101.53 1774.36 3135.26 1776.75 3140.66 1779.72 3143.18 1785.93 3144.08 1821.42 3149.16 1856.85 3154.94 1894 3160.76Z" fill="#FFFFFF" fill-rule="evenodd"/><path d="M1313.98 3204.98 1487.43 3325.48C1502.32 3335.82 1517.38 3345.92 1531.94 3356.69 1534.63 3358.68 1535.2 3363.47 1536.83 3366.95 1533.02 3366.66 1528.24 3367.73 1525.43 3365.86 1450.83 3314.47 1376.34 3262.91 1301.97 3211.17 1294.86 3206.29 1295.27 3203.26 1303.88 3197.41 1343.72 3170.31 1383.54 3143.27 1423.33 3116.29 1456.67 3093.64 1490.01 3071 1523.36 3048.36 1525.69 3046.73 1527.95 3044.55 1530.51 3044.07 1533.04 3043.74 1535.59 3044.55 1537.47 3046.27 1538.48 3047.41 1537.95 3051.27 1536.73 3052.78 1534.58 3055.34 1531.4 3057.05 1528.59 3058.99 1459.59 3105.87 1390.57 3152.73 1321.54 3199.56 1319.27 3201.12 1317.04 3202.79 1313.98 3204.98Z" fill="#FFFFFF" fill-rule="evenodd"/><path d="M2946.15 3203.45C2936.26 3203.45 2928.15 3206.76 2921.81 3213.36 2915.47 3219.96 2911.71 3229.27 2910.52 3241.3L2978.55 3241.3C2978.66 3234.86 2977.85 3229.25 2976.13 3224.47 2974.41 3219.69 2972.08 3215.75 2969.12 3212.63 2966.16 3209.52 2962.73 3207.21 2958.8 3205.71 2954.88 3204.21 2950.66 3203.45 2946.15 3203.45ZM2409.48 3198.82C2394.22 3198.82 2382.32 3203.76 2373.78 3213.63 2365.23 3223.51 2360.96 3238.97 2360.96 3260.01 2360.96 3279.55 2363.84 3294.12 2369.59 3303.73 2375.34 3313.34 2383.48 3318.14 2394.01 3318.14 2401.1 3318.14 2408.6 3314.97 2416.5 3308.64 2424.39 3302.31 2432.7 3292.91 2441.4 3280.46L2441.4 3205.42C2436.78 3203.27 2431.68 3201.64 2426.09 3200.51 2420.5 3199.38 2414.96 3198.82 2409.48 3198.82ZM2223.19 3198.5C2214.81 3198.5 2207.63 3200.13 2201.67 3203.41 2195.7 3206.68 2190.81 3211.06 2187 3216.53 2183.18 3222.01 2180.39 3228.37 2178.62 3235.61 2176.84 3242.86 2175.96 3250.45 2175.96 3258.4 2175.96 3268.38 2177.06 3277.13 2179.26 3284.65 2181.47 3292.16 2184.61 3298.41 2188.69 3303.41 2192.78 3308.4 2197.72 3312.16 2203.52 3314.68 2209.33 3317.2 2215.88 3318.46 2223.19 3318.46 2231.57 3318.46 2238.75 3316.83 2244.71 3313.55 2250.67 3310.28 2255.56 3305.9 2259.38 3300.43 2263.19 3294.95 2265.99 3288.59 2267.76 3281.35 2269.53 3274.1 2270.42 3266.45 2270.42 3258.4 2270.42 3248.41 2269.32 3239.69 2267.12 3232.23 2264.91 3224.77 2261.77 3218.54 2257.69 3213.55 2253.6 3208.56 2248.63 3204.8 2242.77 3202.28 2236.92 3199.76 2230.39 3198.5 2223.19 3198.5ZM2588.04 3197.05C2581.91 3197.05 2576.33 3198.23 2571.27 3200.59 2566.22 3202.95 2561.87 3206.28 2558.22 3210.57 2554.56 3214.87 2551.61 3220.02 2549.35 3226.03 2547.09 3232.04 2545.7 3238.65 2545.16 3245.84L2630.27 3245.84C2630.6 3238.65 2629.9 3232.07 2628.18 3226.11 2626.46 3220.15 2623.8 3215.03 2620.2 3210.73 2616.6 3206.44 2612.11 3203.08 2606.74 3200.67 2601.37 3198.25 2595.13 3197.05 2588.04 3197.05ZM2589.33 3174.66C2600.61 3174.66 2610.61 3176.43 2619.31 3179.98 2628.02 3183.52 2635.35 3188.54 2641.32 3195.03 2647.28 3201.53 2651.79 3209.42 2654.86 3218.7 2657.92 3227.99 2659.45 3238.38 2659.45 3249.86 2659.45 3253.84 2659.4 3257.16 2659.29 3259.85 2659.18 3262.53 2659.02 3265.05 2658.81 3267.42L2545.16 3267.42C2545.16 3283.95 2549.78 3296.64 2559.02 3305.5 2568.27 3314.36 2581.59 3318.79 2599 3318.79 2603.73 3318.79 2608.46 3318.6 2613.19 3318.22 2617.92 3317.85 2622.48 3317.34 2626.89 3316.69 2631.29 3316.05 2635.51 3315.32 2639.54 3314.52 2643.57 3313.71 2647.31 3312.83 2650.75 3311.86L2650.75 3334.89C2643.12 3337.03 2634.49 3338.78 2624.87 3340.12 2615.26 3341.46 2605.29 3342.13 2594.97 3342.13 2581.11 3342.13 2569.18 3340.26 2559.18 3336.5 2549.19 3332.74 2541 3327.29 2534.6 3320.15 2528.21 3313.01 2523.48 3304.27 2520.42 3293.91 2517.35 3283.55 2515.82 3271.82 2515.82 3258.72 2515.82 3247.34 2517.46 3236.58 2520.74 3226.43 2524.02 3216.29 2528.8 3207.38 2535.08 3199.7 2541.37 3192.03 2549.08 3185.94 2558.22 3181.43 2567.35 3176.92 2577.72 3174.66 2589.33 3174.66ZM2224.8 3174.66C2236.41 3174.66 2246.8 3176.46 2255.99 3180.06 2265.18 3183.65 2272.97 3188.91 2279.37 3195.84 2285.76 3202.76 2290.65 3211.38 2294.04 3221.68 2297.42 3231.99 2299.11 3243.8 2299.11 3257.11 2299.11 3269.67 2297.34 3281.18 2293.8 3291.65 2290.25 3302.12 2285.14 3311.08 2278.48 3318.54 2271.82 3326 2263.7 3331.8 2254.14 3335.93 2244.58 3340.07 2233.72 3342.13 2221.58 3342.13 2209.97 3342.13 2199.57 3340.34 2190.39 3336.74 2181.2 3333.14 2173.41 3327.86 2167.01 3320.88 2160.62 3313.9 2155.73 3305.26 2152.34 3294.95 2148.96 3284.65 2147.26 3272.78 2147.26 3259.36 2147.26 3246.8 2149.04 3235.34 2152.58 3224.98 2156.13 3214.62 2161.23 3205.71 2167.9 3198.25 2174.56 3190.79 2182.67 3185 2192.24 3180.86 2201.8 3176.73 2212.66 3174.66 2224.8 3174.66ZM3132.44 3174.15C3142.76 3174.15 3151.89 3174.68 3159.85 3175.76 3167.8 3176.83 3174.84 3178.01 3180.96 3179.3L3180.96 3211.35C3171.61 3208.34 3162.83 3206.22 3154.61 3204.98 3146.39 3203.75 3138.25 3203.13 3130.19 3203.13 3122.13 3203.13 3115.65 3204.58 3110.76 3207.48 3105.87 3210.38 3103.43 3214.4 3103.43 3219.56 3103.43 3222.03 3103.91 3224.23 3104.88 3226.16 3105.84 3228.09 3107.75 3229.97 3110.6 3231.8 3113.45 3233.62 3117.42 3235.53 3122.53 3237.51 3127.63 3239.5 3134.38 3241.67 3142.76 3244.03 3152.22 3246.72 3160.17 3249.59 3166.62 3252.65 3173.07 3255.71 3178.25 3259.17 3182.17 3263.04 3186.1 3266.9 3188.92 3271.3 3190.64 3276.24 3192.36 3281.18 3193.22 3286.81 3193.22 3293.15 3193.22 3302.49 3191.15 3310.46 3187.01 3317.06 3182.87 3323.66 3177.39 3329.03 3170.57 3333.16 3163.74 3337.3 3156 3340.3 3147.35 3342.18 3138.7 3344.06 3129.86 3345 3120.84 3345 3108.8 3345 3097.95 3344.44 3088.27 3343.31 3078.6 3342.18 3069.47 3340.54 3060.87 3338.4L3060.87 3302.97C3070.97 3307.16 3081.05 3310.19 3091.09 3312.07 3101.14 3313.95 3110.63 3314.89 3119.55 3314.89 3129.86 3314.89 3137.57 3313.25 3142.68 3309.98 3147.78 3306.7 3150.34 3302.43 3150.34 3297.17 3150.34 3294.71 3149.8 3292.45 3148.72 3290.41 3147.65 3288.37 3145.63 3286.41 3142.68 3284.53 3139.72 3282.65 3135.56 3280.72 3130.19 3278.74 3124.81 3276.75 3117.77 3274.52 3109.07 3272.05 3101.01 3269.8 3093.94 3267.25 3087.87 3264.4 3081.8 3261.56 3076.77 3258.21 3072.8 3254.34 3068.82 3250.48 3065.84 3245.99 3063.85 3240.89 3061.86 3235.79 3060.87 3229.81 3060.87 3222.94 3060.87 3216.28 3062.37 3210 3065.38 3204.1 3068.39 3198.19 3072.88 3193.01 3078.84 3188.56 3084.81 3184.1 3092.25 3180.59 3101.17 3178.01 3110.09 3175.44 3120.51 3174.15 3132.44 3174.15ZM2946.95 3174.15C2958.56 3174.15 2968.82 3175.95 2977.74 3179.54 2986.66 3183.14 2994.13 3188.16 3000.15 3194.6 3006.17 3201.04 3010.74 3208.72 3013.85 3217.63 3016.97 3226.54 3018.53 3236.3 3018.53 3246.93 3018.53 3249.62 3018.45 3253.11 3018.29 3257.4 3018.12 3261.69 3017.88 3265.72 3017.56 3269.48L2909.88 3269.48C2909.88 3276.67 2910.98 3283 2913.18 3288.48 2915.39 3293.95 2918.5 3298.54 2922.53 3302.25 2926.56 3305.95 2931.4 3308.77 2937.04 3310.7 2942.68 3312.63 2948.94 3313.6 2955.82 3313.6 2963.77 3313.6 2972.29 3312.98 2981.37 3311.75 2990.45 3310.51 2999.88 3308.5 3009.66 3305.71L3009.66 3336.95C3005.47 3338.13 3000.9 3339.2 2995.96 3340.17 2991.02 3341.14 2985.97 3341.99 2980.81 3342.75 2975.65 3343.5 2970.44 3344.06 2965.17 3344.44 2959.9 3344.81 2954.8 3345 2949.86 3345 2937.39 3345 2926.21 3343.23 2916.33 3339.69 2906.44 3336.14 2898.06 3330.91 2891.18 3323.99 2884.3 3317.06 2879.04 3308.5 2875.38 3298.3 2871.73 3288.1 2869.9 3276.29 2869.9 3262.87 2869.9 3249.56 2871.73 3237.46 2875.38 3226.56 2879.04 3215.67 2884.19 3206.33 2890.86 3198.54 2897.52 3190.76 2905.61 3184.75 2915.12 3180.51 2924.63 3176.27 2935.24 3174.15 2946.95 3174.15ZM2700.86 3130.83 2825.3 3130.83 2825.3 3164.32 2741.16 3164.32 2741.16 3222.62 2820.79 3222.62 2820.79 3255.15 2741.16 3255.15 2741.16 3341.3 2700.86 3341.3ZM3590.47 3126.7 3550.49 3190.04 3590.47 3190.04ZM2059.14 3126.19C2068.92 3126.19 2078 3127.02 2086.38 3128.69 2094.77 3130.35 2102.83 3132.9 2110.56 3136.34L2110.56 3164.52C2102.93 3160.33 2095.03 3157.14 2086.87 3154.94 2078.7 3152.74 2069.78 3151.64 2060.11 3151.64 2050.22 3151.64 2041.27 3153.49 2033.27 3157.19 2025.26 3160.9 2018.46 3166.26 2012.88 3173.29 2007.29 3180.33 2002.99 3188.91 1999.98 3199.06 1996.97 3209.2 1995.47 3220.77 1995.47 3233.76 1995.47 3261.03 2001 3281.59 2012.07 3295.44 2023.14 3309.28 2039.37 3316.21 2060.75 3316.21 2069.78 3316.21 2078.43 3315.16 2086.71 3313.07 2094.98 3310.97 2102.93 3308.05 2110.56 3304.29L2110.56 3331.35C2093.69 3338.32 2076.01 3341.81 2057.53 3341.81 2027.76 3341.81 2004.9 3332.93 1988.94 3315.16 1972.98 3297.39 1965 3271.12 1965 3236.34 1965 3219.48 1967.2 3204.24 1971.61 3190.6 1976.02 3176.97 1982.3 3165.4 1990.47 3155.9 1998.64 3146.4 2008.52 3139.08 2020.13 3133.92 2031.74 3128.77 2044.74 3126.19 2059.14 3126.19ZM3311.8 3125.35 3311.8 3177.69 3375.48 3177.69 3375.48 3208.29 3311.8 3208.29 3311.8 3285.26C3311.8 3294.6 3313.95 3301.66 3318.25 3306.43 3322.55 3311.21 3329.75 3313.6 3339.85 3313.6 3346.3 3313.6 3352.59 3313.06 3358.71 3311.99 3364.84 3310.92 3370.43 3309.68 3375.48 3308.29L3375.48 3339.69C3368.39 3341.3 3361.24 3342.58 3354.04 3343.55 3346.84 3344.52 3340.02 3345 3333.57 3345 3322.82 3345 3313.55 3343.87 3305.76 3341.62 3297.97 3339.36 3291.52 3335.93 3286.42 3331.31 3281.31 3326.7 3277.55 3320.82 3275.13 3313.68 3272.71 3306.54 3271.5 3298.03 3271.5 3288.16L3271.5 3208.29 3227.5 3208.29 3227.5 3177.69 3271.5 3177.69 3271.5 3135.82ZM2441.4 3111.7 2469.61 3111.7 2469.61 3339.24 2444.46 3339.24 2443.5 3308.64C2435.65 3320.02 2427.16 3328.45 2418.03 3333.92 2408.89 3339.4 2399.01 3342.13 2388.37 3342.13 2379.12 3342.13 2370.98 3340.2 2363.94 3336.34 2356.9 3332.47 2351.05 3327.02 2346.37 3319.99 2341.7 3312.96 2338.18 3304.51 2335.81 3294.63 2333.45 3284.75 2332.27 3273.8 2332.27 3261.78 2332.27 3248.04 2334.15 3235.83 2337.91 3225.15 2341.67 3214.46 2347.02 3205.45 2353.95 3198.09 2360.88 3190.74 2369.21 3185.16 2378.94 3181.35 2388.66 3177.53 2399.49 3175.63 2411.42 3175.63 2416.58 3175.63 2421.65 3175.95 2426.65 3176.6 2431.65 3177.24 2436.56 3178.26 2441.4 3179.65ZM3579.61 3101.36 3615.72 3101.36 3615.72 3190.04 3637 3190.04 3637 3213.12 3615.72 3213.12 3615.72 3241.67 3590.14 3241.67 3590.14 3213.12 3524.8 3213.12 3524.8 3190.68ZM3458.82 3099C3465.7 3099 3471.93 3099.88 3477.52 3101.63 3483.11 3103.38 3487.89 3105.98 3491.87 3109.41 3495.84 3112.85 3498.92 3117.14 3501.11 3122.3 3503.29 3127.45 3504.39 3133.39 3504.39 3140.12 3504.39 3145.7 3503.63 3150.91 3502.13 3155.74 3500.62 3160.57 3498.44 3165.27 3495.57 3169.85 3492.71 3174.43 3489.18 3179.01 3484.99 3183.59 3480.8 3188.17 3476.01 3193.01 3470.64 3198.09L3450.22 3217.52 3509.44 3217.52 3509.44 3241.67 3414.11 3241.67 3414.11 3222.35 3447.32 3189.18C3453.55 3182.95 3458.55 3177.58 3462.31 3173.07 3466.07 3168.56 3468.98 3164.54 3471.02 3161 3473.06 3157.45 3474.4 3154.18 3475.05 3151.17 3475.69 3148.17 3476.01 3145.05 3476.01 3141.83 3476.01 3139.19 3475.58 3136.66 3474.72 3134.27 3473.86 3131.87 3472.61 3129.79 3470.96 3128.04 3469.32 3126.29 3467.24 3124.89 3464.73 3123.85 3462.22 3122.81 3459.36 3122.3 3456.13 3122.3 3450.62 3122.3 3445.49 3123.49 3440.77 3125.89 3436.04 3128.29 3431.56 3131.49 3427.33 3135.5L3413.47 3117.68C3419.56 3112.03 3426.42 3107.5 3434.05 3104.1 3441.68 3100.7 3449.94 3099 3458.82 3099Z" fill="#FFFFFF" fill-rule="evenodd"/></g></svg>