<svg xmlns="http://www.w3.org/2000/svg" viewBox="0 0 391.94 345.22"><defs><style>.cls-1{fill:#86ff00;}.cls-2{fill:#55a20f;}.cls-3{fill:#fff;}.cls-4,.cls-5,.cls-6{stroke:#fff;stroke-miterlimit:10;}.cls-4{stroke-width:2px;}.cls-6{fill:none;}</style></defs><title>ca-about</title><g id="Layer_2" data-name="Layer 2"><g id="Layer_1-2" data-name="Layer 1"><rect class="cls-1" y="51.75" width="242.59" height="206.17"/><rect class="cls-2" y="51.75" width="121.29" height="206.17"/><rect x="14.53" y="68.46" width="213.52" height="172.76"/><path class="cls-3" d="M83.51,178.88a35.53,35.53,0,0,1-13.13-2.51,33.46,33.46,0,0,1-11.51-7.63,35.27,35.27,0,0,1-7.54-11.33,34.71,34.71,0,0,1,7.54-38,34,34,0,0,1,11.56-7.68,34.82,34.82,0,0,1,26.21,0,34.23,34.23,0,0,1,11.52,7.68L96.88,130.73a18.14,18.14,0,0,0-6.26-4.12,19.29,19.29,0,0,0-7.11-1.38,18.92,18.92,0,0,0-7.06,1.38,18.13,18.13,0,0,0-6.21,4.12,19.61,19.61,0,0,0-4.07,6.16,18.55,18.55,0,0,0-1.43,7.21,18.15,18.15,0,0,0,1.43,7.15,19.78,19.78,0,0,0,4.07,6.12,18.28,18.28,0,0,0,6.21,4.12,18.9,18.9,0,0,0,7.06,1.37,19.27,19.27,0,0,0,7.11-1.37,18.28,18.28,0,0,0,6.26-4.12l11.28,11.37a33.69,33.69,0,0,1-11.47,7.63A35.44,35.44,0,0,1,83.51,178.88Z"/><path class="cls-3" d="M168.82,179l-2.75-8.44H144.18L141.33,179h-17l23.69-69.58h15.17L185.69,179Zm-19.15-24.46H161l-5.49-16.87Z"/><path class="cls-4" d="M297.84,149.44l22.76,12-1.33.08-43.94,78.7V161.47Z"/><path class="cls-4" d="M252.82,149.44l-22.77,12,1.35.08,43.93,78.7V161.47Z"/><path class="cls-4" d="M296,122.36l-20.51-2.81L255,122.36s1.51,18.51-2.17,27.08c0,0,11.07,12.89,22.67,12,11.61.86,22.69-12,22.69-12C294.5,140.87,296,122.36,296,122.36Z"/><path class="cls-5" d="M319.65,77h-.88c.38-3,.76-6,1.12-8.78,1.89-14.54,6.16-57-44.56-57s-46.46,42.48-44.56,57c.36,2.8.73,5.77,1.11,8.78H231c-7.72-5.7-8.37,9.21-5.14,14.3,2.66,4.23,2.73,4.68,4.33,9.33,1.18,3.42,3.16,3.88,4.8,3.51.21,2,.4,3.8.51,5.2.72,7.84,19.55,23.55,23.82,28.46,4,4.6,10.67,2.8,12.81,2.71l3.2-.16,3.2.16c2.13.09,8.79,1.89,12.8-2.71,4.27-4.91,23.1-20.62,23.81-28.46.13-1.4.31-3.17.53-5.2,1.65.37,3.61-.09,4.79-3.51,1.61-4.65,1.67-5.1,4.33-9.33C328,86.18,327.37,71.27,319.65,77Z"/><path class="cls-6" d="M288.8,115.6c-5.69-5.16-13.47-6.52-13.47-6.52s-7.8,1.36-13.46,6.52,0,14.42,0,14.42l1.25-1.62C257,116,275.33,115.26,275.33,115.26s18.32.73,12.21,13.14L288.8,130S294.45,120.75,288.8,115.6Z"/><path class="cls-5" d="M317.92,72.16c0,2.57-4.62,22.88-5.41,29.35-1.47,12.3-10.29,18-12.86,20.85S288.58,128,285,129.3s-15.68,1.31-19.28,0-12.11-4.11-14.68-6.94-11.4-8.55-12.87-20.85c-.79-6.47-5.41-26.78-5.41-29.35,0-1.72-.83-1.09-1.33.89.15,1.3.31,2.6.48,3.92,0,0,2.64,27.24,3.11,27.14.21,2,.4,3.8.51,5.2a8.36,8.36,0,0,0,.62,2.23c.95,1.48,2.45,3.92,4.34,6.82,6.07,7.53,15.92,16,18.86,19.41,4,4.6,10.67,2.8,12.81,2.71l3.2-.16,3.2.16c2.13.09,8.79,1.89,12.8-2.71,2.94-3.38,12.79-11.88,18.88-19.41,1.87-2.9,3.37-5.34,4.33-6.82a8.7,8.7,0,0,0,.61-2.23c.12-1.4.3-3.17.52-5.2.46.1,3.1-27.14,3.1-27.14.17-1.32.33-2.62.49-3.92C318.75,71.07,317.92,70.44,317.92,72.16Z"/><path class="cls-5" d="M311.49.26S313.54,6,270.28,6h0c-.88,0-1.87,0-2.93.08-41.37,1.82-39.14,41.22-39.14,41.22l.07,0c-.31,9.9,1.73,19.82,3.65,29.71l.85-4.81a53.59,53.59,0,0,1,2.35-10.6c.09-.32.22-.63.32-.93a43.54,43.54,0,0,1,2.06-5c11.24-22.42,37.87-15.12,37.87-15.12S302,33.24,313.22,55.7a48.35,48.35,0,0,1,2,4.84c.12.36.24.69.35,1a53.78,53.78,0,0,1,2.34,10.58l.85,4.81c1.2-6.19,2.46-12.39,3.16-18.61,0,0,0-.07,0-.1C326.63,25.32,311.49.26,311.49.26Z"/><polygon class="cls-2" points="267.43 170.51 272.55 179.72 265.68 224.84 275.33 240.22 275.33 161.47 267.43 170.51"/><path class="cls-4" d="M275.33,161.47l-16,18.25-15.2-25.83,8.68-4.45S265.68,159.32,275.33,161.47Z"/><path class="cls-4" d="M275.33,161.47l16,18.25,15.2-25.83-8.67-4.45S285,159.32,275.33,161.47Z"/><polygon class="cls-1" points="283.24 170.51 278.1 179.72 284.99 224.84 275.33 240.22 275.33 161.47 283.24 170.51"/><path class="cls-4" d="M112.68,243.61s-4.23-.46-5.85-8.79-11.2-20.3-11.2-20.3-8.29-5-12.33-12.65c-1.83-3.45-5.16-4.76-7.89-2.23s1.8,9.08,8.29,18.17c0,0,.75,1.51-4.24-2s-28.84-19.05-28.84-19.05-5.44-4.4-8.24-.09c-2.57,3.93,1.82,5.77,4.06,7.23L66,216.77s.41,1.21-.7,1.06L54.9,211s-3.32-2.39-5.18.38c-2.22,3.27-.13,4.77,1.3,5.7S61.56,224,61.56,224s.72,1.35-.77,1.16l-9.24-6s-2.27-1.62-4.19,1.33.39,4.32.39,4.32L57.3,231s.59.91-.64,1l-6.47-4.22s-2.14-1.14-3.93,1.76.47,4.33.47,4.33L84,258.18s5.16,3.68,8.48,2S100,263,100,263Z"/><path class="cls-4" d="M275.49,239V342.14h104s-.43,3,8.12-23.06-.86-46.13-10.68-92.25-18.8-47-23.49-49.54c-2.52-1.37-18.28-9.5-32.36-16.73l-1.85.11ZM341.89,340V273.38c0-14.52,1.72-15.37,2.52-11.53s10.3,41.86,7.3,51.68C349.33,321.36,344,334.86,341.89,340Z"/><path class="cls-4" d="M114.68,237.05s34.39,21.37,37.63,21.37,28.95-53.23,28.95-53.23l0,0c12.52-29.65,17.09-28.1,21-30.25,2.51-1.38,13.51-7.13,27.61-14.36l1.85.11L275.49,239V342.2H209v-2.32a1.67,1.67,0,0,0,.08.2V273.44c0-11.37-.93-13.34-2.15-12.35-.22.27-.57.73-1.06,1.37a0,0,0,0,1,0,0h0c-6.61,8.4-37,46.43-43.83,46.43-7.7,0-68-40.22-68-40.22Z"/></g></g></svg>