<svg xmlns="http://www.w3.org/2000/svg" xmlns:xlink="http://www.w3.org/1999/xlink" viewBox="0 0 414.24 402.87"><defs><style>.cls-1,.cls-6,.cls-8,.cls-9{stroke:#fff;stroke-miterlimit:10;}.cls-1,.cls-6{stroke-width:2px;}.cls-2{fill:#86ff00;}.cls-3{fill:#55a20f;}.cls-4{fill:#e6e7e8;}.cls-5{fill:#fff;}.cls-6,.cls-7,.cls-9{fill:none;}.cls-10{fill:url(#linear-gradient);}</style><linearGradient id="linear-gradient" x1="502.38" y1="114.76" x2="558.91" y2="114.76" gradientTransform="translate(346.1 -154.86) rotate(90.6)" gradientUnits="userSpaceOnUse"><stop offset="0" stop-color="#fd6120"/><stop offset="0.01" stop-color="#fc6020"/><stop offset="0.32" stop-color="#eb4e1b"/><stop offset="0.64" stop-color="#e04319"/><stop offset="1" stop-color="#dd3f18"/></linearGradient></defs><title>ca-faq</title><g id="Layer_2" data-name="Layer 2"><g id="Layer_1-2" data-name="Layer 1"><polygon class="cls-1" points="330.99 350.29 102.4 284 184.4 1.24 413 67.52 330.99 350.29"/><rect class="cls-2" x="278.12" y="-17.75" width="18.93" height="189.49" transform="translate(133.54 331.75) rotate(-73.83)"/><polygon class="cls-3" points="284.94 86.09 193.96 59.7 199.23 41.51 290.22 67.89 284.94 86.09"/><rect class="cls-4" x="219.71" y="58.14" width="14.39" height="85.49" transform="translate(66.82 290.72) rotate(-73.83)"/><polygon class="cls-4" points="257.96 147.25 175.84 123.44 179.86 109.61 261.94 133.42 257.96 147.25"/><polygon class="cls-4" points="241.6 172.36 167.88 150.97 171.88 137.14 245.6 158.52 241.6 172.36"/><polygon class="cls-4" points="220.86 196.2 159.88 178.5 163.89 164.69 224.86 182.38 220.86 196.2"/><polygon class="cls-4" points="233.99 229.86 151.9 206.05 155.91 192.24 238 216.04 233.99 229.86"/><rect class="cls-4" x="175.59" y="199" width="14.39" height="76.76" transform="translate(-96.11 346.81) rotate(-73.83)"/><polygon class="cls-4" points="218.03 284.93 135.93 261.12 139.94 247.31 222.03 271.12 218.03 284.93"/><polygon class="cls-1" points="248.31 288.2 319.04 308.7 342.32 228.44 271.58 207.92 248.31 288.2"/><path class="cls-5" d="M312.71,248.48c-2.17,7.51-11.4,16.61-18.9,14.43s-10.45-14.79-8.28-22.31a14.15,14.15,0,0,1,27.18,7.88Z"/><path class="cls-5" d="M293.25,264.83c-14.09-4.07-24.5,4.76-26.92,13.14L309,290.33C311.39,282,307.32,268.93,293.25,264.83Z"/><rect class="cls-5" x="325.63" y="94.05" width="14.4" height="75.1" transform="translate(113.73 414.59) rotate(-73.83)"/><rect class="cls-5" x="317.43" y="127.61" width="14.39" height="62.94" transform="translate(81.43 426.56) rotate(-73.83)"/><polygon class="cls-2" points="349.44 209.14 277.3 188.23 281.32 174.4 353.44 195.32 349.44 209.14"/><path class="cls-2" d="M270.52,357.23c0,12.08-10.58,21.85-23.65,21.85H23.68C10.6,379.08,0,369.31,0,357.23V90.12C0,78.05,10.6,68.26,23.68,68.26H246.87c13.07,0,23.65,9.79,23.65,21.86Z"/><path class="cls-3" d="M135.26,68.26H23.68C10.6,68.26,0,78.05,0,90.12V357.23c0,12.08,10.6,21.85,23.68,21.85H135.26Z"/><path class="cls-1" d="M246.66,343c0,9.68-3.75,17.52-14.59,17.52H38.49c-10.85,0-14.62-7.84-14.62-17.52V108.79c0-9.68,3.77-17.51,14.62-17.51H232.07c10.84,0,14.59,7.83,14.59,17.51Z"/><rect class="cls-6" x="38.92" y="143.88" width="132.97" height="37.07"/><rect class="cls-6" x="192.18" y="143.88" width="39.44" height="37.59"/><rect class="cls-6" x="38.92" y="194.59" width="132.97" height="37.08"/><rect class="cls-6" x="192.18" y="194.59" width="39.44" height="37.58"/><rect class="cls-6" x="38.92" y="245.29" width="132.97" height="37.07"/><rect class="cls-6" x="192.18" y="245.29" width="39.44" height="37.58"/><rect class="cls-6" x="38.92" y="296" width="132.97" height="37.08"/><rect class="cls-6" x="192.18" y="296" width="39.44" height="37.58"/><path class="cls-1" d="M182.56,68.05H164.69a17.7,17.7,0,0,0,.44-3.89,18.07,18.07,0,0,0-18.08-18H123.47a18.07,18.07,0,0,0-18.07,18,18.32,18.32,0,0,0,.46,3.89H88a18.69,18.69,0,1,0,0,37.37h94.58a18.69,18.69,0,1,0,0-37.37Zm-62.5-3.89a9.2,9.2,0,0,1,9.19-9.2h12a9.15,9.15,0,0,1,8.32,13.09H120.94A9.32,9.32,0,0,1,120.06,64.16Z"/><path class="cls-7" d="M135.26,91.28H38.49c-10.85,0-14.62,7.83-14.62,17.51V343c0,9.68,3.77,17.52,14.62,17.52h96.77Z"/><path class="cls-7" d="M135.26,68.05H120.94a9.32,9.32,0,0,1-.88-3.89,9.2,9.2,0,0,1,9.19-9.2h6V46.11H123.47a18.07,18.07,0,0,0-18.07,18,18.32,18.32,0,0,0,.46,3.89H88a18.69,18.69,0,1,0,0,37.37h47.28Z"/><rect class="cls-6" x="38.92" y="143.88" width="96.34" height="37.07"/><rect class="cls-6" x="38.92" y="194.59" width="96.34" height="37.08"/><rect class="cls-6" x="38.92" y="245.29" width="96.34" height="37.07"/><rect class="cls-6" x="38.92" y="296" width="96.34" height="37.08"/><rect class="cls-2" x="208.13" y="148.78" width="7.52" height="27.79"/><rect class="cls-2" x="197.99" y="158.91" width="27.8" height="7.52"/><rect class="cls-2" x="208.13" y="199.23" width="7.52" height="27.79"/><rect class="cls-2" x="197.99" y="209.36" width="27.8" height="7.52"/><rect class="cls-2" x="197.99" y="260.06" width="27.8" height="7.54"/><rect class="cls-2" x="208.13" y="300.64" width="7.52" height="27.79"/><rect class="cls-2" x="197.99" y="310.79" width="27.8" height="7.52"/><path class="cls-8" d="M350.56,371.48s2.88-10.7-11.59-20.54c-11.25-7.66-88.84-24.37-103.82-5.82,0,0,2,4.33,17.47,1.42s24.4-4.27,43.76-1.13,41.56,10.66,40.23,19.39Z"/><path class="cls-1" d="M233,400.49c-59.68-.62-119-12.8-118.87-27.06s59.72-25.19,119.41-24.56S359.91,361.74,359.77,376,292.66,401.12,233,400.49Z"/><path class="cls-1" d="M235.15,348.9c-.55,0-1.08,0-1.63,0-59.69-.63-119.26,10.3-119.41,24.56S173.3,399.87,233,400.49c.72,0,1.44,0,2.17,0Z"/><path class="cls-9" d="M161.15,373.92a49.33,49.33,0,0,0-3.75-19.44c-25.61,4.45-43.21,11.22-43.29,18.95S131.5,388.28,157,393.29A49.76,49.76,0,0,0,161.15,373.92Z"/><path class="cls-10" d="M225.54,402.86c-5.43-.05-9.81-1-9.74-7.08l.44-42.56c0-6.1,4.46-6.94,9.89-6.89h0c5.42.07,9.78,1,9.73,7.1L235.41,396c-.06,6.1-4.47,6.93-9.87,6.87Z"/><path class="cls-2" d="M120.11,373.5a17.56,17.56,0,0,0-1.32-6.89c-9,1.59-15.27,4-15.32,6.71s6.14,5.26,15.18,7A17.37,17.37,0,0,0,120.11,373.5Z"/><path class="cls-2" d="M225.54,402.86c-5.43-.05-9.81-1-9.74-7.08l.44-42.56c0-6.1,4.46-6.94,9.89-6.89h0c5.42.07,9.78,1,9.73,7.1L235.41,396c-.06,6.1-4.47,6.93-9.87,6.87Z"/></g></g></svg>