<svg xmlns="http://www.w3.org/2000/svg" viewBox="0 0 440.41 498.14"><defs><style>.cls-1{isolation:isolate;}.cls-2{fill:#86ff00;}.cls-3{fill:#55a20f;}.cls-4,.cls-7,.cls-8{stroke:#fff;stroke-miterlimit:10;}.cls-4,.cls-7{stroke-width:2px;}.cls-5{fill:#fff;}.cls-6{fill:#e6e7e8;}.cls-7,.cls-9{fill:none;}.cls-10{fill:#f7f7f7;mix-blend-mode:multiply;}</style></defs><title>ca-hero</title><g class="cls-1"><g id="Layer_2" data-name="Layer 2"><g id="Layer_1-2" data-name="Layer 1"><path class="cls-2" d="M230.92,175.31A115.46,115.46,0,1,1,115.45,59.84,115.46,115.46,0,0,1,230.92,175.31Z"/><path class="cls-3" d="M0,175.31A115.46,115.46,0,0,0,115.45,290.77V59.84A115.46,115.46,0,0,0,0,175.31Z"/><path class="cls-4" d="M215.91,175.31A100.45,100.45,0,1,1,115.45,74.86,100.45,100.45,0,0,1,215.91,175.31Z"/><path class="cls-5" d="M121.53,91.6a6.08,6.08,0,1,1-6.08-6.09A6.08,6.08,0,0,1,121.53,91.6Z"/><path class="cls-6" d="M77.29,100.68a4.26,4.26,0,1,1-5.81-1.56A4.26,4.26,0,0,1,77.29,100.68Z"/><path class="cls-6" d="M45.08,129.77a4.26,4.26,0,1,1-5.81,1.56A4.25,4.25,0,0,1,45.08,129.77Z"/><path class="cls-6" d="M31.74,169.23a6.09,6.09,0,1,1-6.08,6.08A6.09,6.09,0,0,1,31.74,169.23Z"/><path class="cls-6" d="M40.84,213.48a4.26,4.26,0,1,1-1.57,5.81A4.26,4.26,0,0,1,40.84,213.48Z"/><path class="cls-6" d="M69.92,245.67a4.26,4.26,0,1,1,1.56,5.82A4.23,4.23,0,0,1,69.92,245.67Z"/><path class="cls-5" d="M109.39,259a6.08,6.08,0,1,1,6.07,6.09A6.05,6.05,0,0,1,109.39,259Z"/><path class="cls-5" d="M153.64,249.93a4.25,4.25,0,1,1,5.8,1.56A4.25,4.25,0,0,1,153.64,249.93Z"/><path class="cls-5" d="M185.83,220.85a4.26,4.26,0,1,1,5.81-1.56A4.26,4.26,0,0,1,185.83,220.85Z"/><path class="cls-5" d="M199.17,181.38a6.08,6.08,0,1,1,6.08-6.08A6.08,6.08,0,0,1,199.17,181.38Z"/><path class="cls-5" d="M190.08,137.13a4.26,4.26,0,1,1,1.56-5.8A4.26,4.26,0,0,1,190.08,137.13Z"/><path class="cls-5" d="M161,105a4.26,4.26,0,1,1-1.55-5.83A4.26,4.26,0,0,1,161,105Z"/><path class="cls-6" d="M109.37,91.6a6.08,6.08,0,0,0,6.08,6.08V85.51A6.09,6.09,0,0,0,109.37,91.6Z"/><path class="cls-6" d="M109.39,259a6.07,6.07,0,0,0,6.07,6.09h0V252.94A6.05,6.05,0,0,0,109.39,259Z"/><rect class="cls-5" x="85.66" y="135.19" width="6.15" height="68.07" transform="translate(-102.2 161.63) rotate(-60.05)"/><polygon class="cls-5" points="116.48 188.91 113.39 183.58 155.26 159.41 158.34 164.74 116.48 188.91"/><path class="cls-7" d="M260.6,211.67l32.21,17-1.89.12L228.73,340.14V228.69Z"/><path class="cls-7" d="M328.4,369.6a10.23,10.23,0,0,0-2.59.54l-1,.33c-18.95,6.24-96.1,45.31-96.1,45.31V340.14l62.19-111.38,2.29-.15c18.1,9.5,42.62,22.41,48.57,25.9,5.48,3.22,9.8,8.88,16.67,19.07,5.31,7.89,12.14,18.5,22.21,32.82,23.1,32.82,47.41,80.21,47.41,80.21s25.51,36.46,0,53.47c-9.62,6.42-26,14.68-42.65,22.47-25.76,12.1-52.22,23.06-55.43,24.39-.21.09-.37.14-.37.14l0-.14-2.24-13.56L323.2,448l-4.51-27.39s1.79-.33,4.51-.91c3.24-.68,7.82-1.71,12.61-3,10.42-2.78,21.52-6.73,20.32-10.69C353.93,398.77,336.92,369.6,328.4,369.6Z"/><path class="cls-4" d="M196.87,211.67l-32.22,17,1.89.12,62.19,111.38V228.69Z"/><path class="cls-4" d="M257.55,184.17,229,194.94l-28.6-10.77s1.7,15.36-3.5,27.5c0,0,15.66,18.23,32.09,17,16.42,1.21,32.1-17,32.1-17C255.85,199.53,257.55,184.17,257.55,184.17Z"/><path class="cls-4" d="M291.47,109.1h-1.26c.54-4.26,1.08-8.46,1.6-12.44,2.67-20.58,8.71-80.7-63.08-80.7S163,76.08,165.65,96.66c.52,4,1,8.18,1.58,12.44H166c-10.91-8.07-11.83,13-7.27,20.23,3.77,6,3.85,6.62,6.13,13.2,1.68,4.84,4.47,5.5,6.79,5,.31,2.88.57,5.39.74,7.38,1,11.09,27.66,33.33,33.71,40.27,5.67,6.51,15.1,4,18.14,3.84l4.51-.22,4.51.22c3,.13,12.46,2.67,18.13-3.84,6.05-6.94,32.7-29.18,33.71-40.27.18-2,.44-4.5.74-7.38,2.32.54,5.12-.12,6.79-5,2.29-6.58,2.36-7.21,6.14-13.2C303.31,122.13,302.38,101,291.47,109.1Z"/><path class="cls-4" d="M289,102.29c0,3.63-6.56,32.37-7.65,41.53-2.1,17.42-14.58,25.5-18.22,29.52s-15.68,8-20.79,9.83-22.18,1.84-27.28,0-17.13-5.83-20.77-9.83-16.14-12.1-18.23-29.52c-1.09-9.16-7.65-37.9-7.65-41.53,0-2.43-1.17-1.55-1.89,1.25q.35,2.76.69,5.56s3.75,38.54,4.4,38.39c.31,2.88.57,5.39.74,7.38a11.32,11.32,0,0,0,.86,3.14c1.35,2.11,3.48,5.56,6.14,9.66,8.61,10.66,22.55,22.69,26.71,27.47,5.67,6.51,15.1,4,18.14,3.84l4.51-.22,4.51.22c3,.13,12.46,2.67,18.13-3.84,4.16-4.78,18.11-16.81,26.72-27.47,2.66-4.1,4.77-7.55,6.14-9.66a12.9,12.9,0,0,0,.86-3.14c.17-2,.43-4.5.73-7.38.65.15,4.39-38.39,4.39-38.39.25-1.87.48-3.72.71-5.56C290.19,100.74,289,99.86,289,102.29Z"/><path class="cls-8" d="M247.78,163.77c-8-7.3-19.05-9.23-19.05-9.23s-11,1.93-19.06,9.23,0,20.4,0,20.4l1.77-2.29c-8.64-17.56,17.29-18.6,17.29-18.6s25.93,1,17.29,18.6l1.76,2.29S255.81,171.06,247.78,163.77Z"/><path class="cls-8" d="M234.56,183.2a9.4,9.4,0,0,0-11.67,0c-2.51,2.43-7.84.64-7.84.64l10.75,8.84,2.93-2.91,2.92,2.91,10.75-8.84S237.08,185.63,234.56,183.2Z"/><path class="cls-4" d="M279.91.52s2.9,8.09-58.33,8.09h-.07c-1.25,0-2.65,0-4.13.12C158.81,11.31,162,67.08,162,67.08l.09,0c-.46,14,2.45,28.05,5.16,42.06l1.2-6.81a76.72,76.72,0,0,1,3.33-15c.14-.44.3-.86.45-1.29a67.05,67.05,0,0,1,2.9-7C191,47.22,228.73,57.55,228.73,57.55S266.43,47.2,282.36,79a63.58,63.58,0,0,1,2.83,6.84c.18.5.35,1,.51,1.47a76.58,76.58,0,0,1,3.32,15l1.19,6.81c1.7-8.78,3.48-17.55,4.48-26.35,0,0,0-.1,0-.14C301.33,36,279.91.52,279.91.52Z"/><polygon class="cls-3" points="217.54 241.47 224.8 254.51 215.05 318.38 228.73 340.14 228.73 228.69 217.54 241.47"/><path class="cls-4" d="M228.73,228.69l-22.62,25.82L184.59,218l12.28-6.3S215.05,225.65,228.73,228.69Z"/><path class="cls-7" d="M228.73,228.69l22.61,25.82L272.87,218l-12.27-6.3S242.4,225.65,228.73,228.69Z"/><polygon class="cls-2" points="239.92 241.47 232.66 254.51 242.4 318.38 228.73 340.14 228.73 228.69 239.92 241.47"/><path class="cls-4" d="M129.06,369.6a10.23,10.23,0,0,1,2.59.54l1,.33c19,6.24,96.1,45.31,96.1,45.31V340.14L166.54,228.76l-2.3-.15c-18.1,9.5-42.61,22.41-48.56,25.9-5.48,3.22-9.79,8.88-16.67,19.07-5.32,7.89-12.14,18.5-22.21,32.82-23.1,32.82-47.41,80.21-47.41,80.21s-25.52,36.46,0,53.47c9.62,6.42,26,14.68,42.64,22.47,25.78,12.1,52.22,23.06,55.44,24.39.21.09.37.14.37.14v-.14l2.24-13.56L134.26,448l4.5-27.39s-1.78-.33-4.5-.91c-3.24-.68-7.82-1.71-12.61-3-10.42-2.78-21.52-6.73-20.32-10.69C103.53,398.77,120.54,369.6,129.06,369.6Z"/><path class="cls-4" d="M334.46,487.51a9.61,9.61,0,0,1-9.6,9.63H133.09a9.62,9.62,0,0,1-9.61-9.63h0a9.62,9.62,0,0,1,9.61-9.61H324.86a9.6,9.6,0,0,1,9.6,9.61Z"/><path class="cls-9" d="M228.73,477.9H133.09a9.62,9.62,0,0,0,0,19.24h95.64Z"/><path class="cls-4" d="M334.46,472.09a9.18,9.18,0,0,1-9.16,9.18H132.66a9.18,9.18,0,0,1-9.18-9.18V350.21a9.16,9.16,0,0,1,9.18-9.16H325.3a9.16,9.16,0,0,1,9.16,9.16Z"/><path class="cls-2" d="M237.24,426.19c4-6.92,7.13-8.6,7.35-15.76a7.49,7.49,0,0,0,0-.83,15.66,15.66,0,0,0-31.31,0c0,.29,0,.56,0,.83.24,7.16,3.32,8.84,7.39,15.76a9.93,9.93,0,0,1,1.27,4.36h-1.59v4h1.72a1.89,1.89,0,0,0-.14.72,2.06,2.06,0,0,0,.7,1.53,2,2,0,0,0-.7,1.51,2.08,2.08,0,0,0,.65,1.48,1.74,1.74,0,0,0-.65,1.32c0,.94.86,1.73,2.06,2a5.56,5.56,0,0,0,9.89,0c1.19-.25,2.07-1,2.07-2a1.79,1.79,0,0,0-.66-1.32,2.13,2.13,0,0,0,.66-1.48,2.08,2.08,0,0,0-.71-1.51,2.14,2.14,0,0,0,.71-1.53,2.1,2.1,0,0,0-.15-.72h1.71v-4H236A9.39,9.39,0,0,1,237.24,426.19Z"/><path class="cls-2" d="M230.75,390a2.11,2.11,0,0,1-1.78,2.32h0a2.11,2.11,0,0,1-1.78-2.32v-7.71A2.11,2.11,0,0,1,229,380h0a2.11,2.11,0,0,1,1.78,2.32Z"/><path class="cls-2" d="M220,391.47a2.08,2.08,0,0,1-.39,2.88h0a2.1,2.1,0,0,1-2.68-1.13l-3.85-6.67a2.09,2.09,0,0,1,.38-2.89h0a2.1,2.1,0,0,1,2.69,1.12Z"/><path class="cls-2" d="M211.39,398.07a2.09,2.09,0,0,1,1.12,2.68h0a2.1,2.1,0,0,1-2.9.38l-6.67-3.84a2.1,2.1,0,0,1-1.12-2.69h0a2.06,2.06,0,0,1,2.87-.39Z"/><path class="cls-2" d="M207.25,408.1a2.1,2.1,0,0,1,2.32,1.77h0a2.11,2.11,0,0,1-2.32,1.77h-7.72a2.09,2.09,0,0,1-2.3-1.77h0a2.08,2.08,0,0,1,2.3-1.77Z"/><path class="cls-2" d="M208.67,418.85a2.09,2.09,0,0,1,2.9.37h0a2.1,2.1,0,0,1-1.12,2.69l-6.69,3.86a2.12,2.12,0,0,1-2.89-.36h0a2.11,2.11,0,0,1,1.12-2.7Z"/><path class="cls-2" d="M214.1,427.09a1.87,1.87,0,0,1,2.49-.77h0a1.87,1.87,0,0,1,.59,2.55L214,434.33a1.8,1.8,0,0,1-2.47.77h0a1.83,1.83,0,0,1-.59-2.52Z"/><path class="cls-2" d="M238,391.47a2.09,2.09,0,0,0,.37,2.88h0a2.11,2.11,0,0,0,2.7-1.13l3.86-6.67a2.1,2.1,0,0,0-.37-2.89h0a2.09,2.09,0,0,0-2.69,1.12Z"/><path class="cls-2" d="M246.56,398.07a2.11,2.11,0,0,0-1.14,2.68h0a2.09,2.09,0,0,0,2.89.38l6.68-3.84a2.1,2.1,0,0,0,1.13-2.69h0a2.08,2.08,0,0,0-2.88-.39Z"/><path class="cls-2" d="M250.7,408.1a2.09,2.09,0,0,0-2.32,1.77h0c0,1,1,1.77,2.32,1.77h7.71a2.1,2.1,0,0,0,2.31-1.77h0a2.09,2.09,0,0,0-2.31-1.77Z"/><path class="cls-2" d="M249.28,418.85a2.09,2.09,0,0,0-2.9.37h0a2.09,2.09,0,0,0,1.13,2.69l6.67,3.86a2.15,2.15,0,0,0,2.91-.36h0a2.13,2.13,0,0,0-1.14-2.7Z"/><path class="cls-2" d="M243.83,427.09a1.86,1.86,0,0,0-2.49-.77h0a1.88,1.88,0,0,0-.58,2.55l3.18,5.46a1.81,1.81,0,0,0,2.48.77h0a1.85,1.85,0,0,0,.58-2.52Z"/><path class="cls-10" d="M228.73,341.05H132.66a9.16,9.16,0,0,0-9.18,9.16V472.09a9.18,9.18,0,0,0,9.18,9.18h96.07Z"/></g></g></g></svg>