<svg xmlns="http://www.w3.org/2000/svg" viewBox="0 0 362.54 329.68"><defs><style>.cls-1,.cls-4{stroke:#fff;stroke-miterlimit:10;stroke-width:2px;}.cls-2{fill:#86ff00;}.cls-3{fill:#55a20f;}.cls-4{fill:none;}</style></defs><title>ca-perks</title><g id="Layer_2" data-name="Layer 2"><g id="Layer_1-2" data-name="Layer 1"><path class="cls-1" d="M349.1,205.09a57.89,57.89,0,0,0-12.28-32.17c-10.1-14.54-31.12-25.29-31.12-37.81s21-23.27,31.12-37.8A58,58,0,0,0,349.1,65.14c0-.17,0-.34,0-.51.05-1.09.09-2.18.09-3.28,0-32.2-26.11-52-58.31-52s-58.3,19.78-58.3,52h0c0,.16,0,.32,0,.47,0,.93,0,1.85.08,2.76,0,.25.05.48.06.71a58.08,58.08,0,0,0,12.25,32c10.11,14.55,31.16,25.3,31.16,37.83S255.14,158.4,245,173a58,58,0,0,0-12.25,32c0,.23-.05.46-.06.7,0,.93-.07,1.85-.08,2.77,0,.16,0,.31,0,.48h0c0,32.19,26.1,52,58.3,52s58.31-19.79,58.31-52c0-1.1,0-2.21-.09-3.29C349.13,205.43,349.12,205.25,349.1,205.09Z"/><path class="cls-2" d="M337.62,233.31c0-23.16-23.52-49.06-46.69-49.06s-46.68,25.9-46.68,49.06,23.54,25.48,46.68,25.48S337.62,256.46,337.62,233.31Z"/><path class="cls-2" d="M299.37,135.11c0-10.37,8.76-18.27,18-26.64,5.23-4.73,10.64-9.61,14.24-14.79l.21-.28a52,52,0,0,0,8.46-15.89H241.56A51.43,51.43,0,0,0,250,93.37l.22.3c3.6,5.17,9,10.06,14.24,14.79,9.28,8.38,18,16.28,18,26.65S299.37,145.48,299.37,135.11Z"/><path class="cls-3" d="M244.25,233.31c0,23.15,23.54,25.48,46.68,25.48V184.25C267.79,184.25,244.25,210.15,244.25,233.31Z"/><path class="cls-3" d="M290.93,77.51H241.56A51.43,51.43,0,0,0,250,93.37l.22.3c3.6,5.17,9,10.06,14.24,14.79,9.28,8.38,18,16.28,18,26.65,0,5.18,4.22,7.77,8.43,7.77Z"/><path class="cls-1" d="M361.54,248.82a12.9,12.9,0,0,0-12.91-12.9H233.25a12.9,12.9,0,0,0-12.91,12.9h0a12.91,12.91,0,0,0,12.91,12.91H348.63a12.91,12.91,0,0,0,12.91-12.91Z"/><path class="cls-1" d="M361.54,21.4a12.91,12.91,0,0,1-12.91,12.91H233.25A12.91,12.91,0,0,1,220.34,21.4h0A12.9,12.9,0,0,1,233.25,8.5H348.63a12.9,12.9,0,0,1,12.91,12.9Z"/><path class="cls-1" d="M135.15,301.14,1.66,280.54s21.07,47,133.27,48.12C248.53,329.74,269,283.08,269,283.08Z"/><path class="cls-1" d="M269,283.08c.11-14.65-59.63-27.1-133.46-27.81S1.78,265.89,1.66,280.54,61.22,314.2,135,314.9,268.85,297.74,269,283.08Z"/><path class="cls-4" d="M5.85,145.21s33.79-14,131-13.37S268.08,145,268.08,145l-17.41,30.18L82.25,198.55S8.72,160.77,5.85,145.21Z"/><path class="cls-4" d="M207.16,280.62c.08-9.91-32.35-18.24-72.44-18.62S62.07,269.33,62,279.24s32.3,22.65,72.4,23S207.08,290.51,207.16,280.62Z"/><path class="cls-1" d="M208.74,247.29c-1.84-.25-3-.47-3.34-.53l2-12.26c.56.08,54.36,9.31,62.05-26.58,1.79-8.45,1.06-14.42-2.17-17.78-7-7.13-22.32-2.63-28-.88l-3.18-12c2.91-.89,28.71-8.32,41.64,4.92,6.44,6.58,8.28,16.55,5.48,29.6C274.27,253.67,222.61,249.26,208.74,247.29Z"/><path class="cls-1" d="M161.67,135.43s-105.88-47.91-62.61-54,53.52-10.64,27.54-15.57S69.8,40.61,103.1,33.14s43.8-4.64,20.29-12.71c-14.88-5.12-11.47-18-4.55-19,0,0-12,10.59,11.44,12.86,14.65,1.4,32.66,23.38-9.77,27.47-34.25,3.29,34.76,10.86,51.91,24.09s2.06,33.51-39.12,31.43S154.5,125.2,161.67,135.43Z"/><path class="cls-2" d="M31.62,160.5s92.39-28,213-.33c0,0-51.31,46-92.14,48.87S36.08,178.9,31.62,160.5Z"/><path class="cls-3" d="M136.85,148c-63.69,0-105.23,12.54-105.23,12.54,3.95,16.24,63.27,43.82,105.23,48.12Z"/><path class="cls-1" d="M244.66,160.18h0C190.44,175.88,54.47,174.37,16,154.73a.21.21,0,0,0,0,.06,25,25,0,0,1-8.23-6S34.51,291.93,136.85,291.93,265.93,148.75,265.93,148.75C263.05,153.24,255.47,157.05,244.66,160.18Z"/></g></g></svg>