<svg xmlns="http://www.w3.org/2000/svg" viewBox="0 0 359.51 318.06"><defs><style>.cls-1,.cls-4,.cls-5{stroke:#fff;stroke-miterlimit:10;}.cls-2{fill:#55a20f;}.cls-3{fill:#86ff00;}.cls-4{fill:none;}.cls-5{stroke-width:2px;}</style></defs><title>ca-work</title><g id="Layer_2" data-name="Layer 2"><g id="Layer_1-2" data-name="Layer 1"><path class="cls-1" d="M253.07,143.61s-39.08,20-42.69,22-10.5,2.63-18,38.08-14.77,50.88-8.21,70.91,6.24,17.72,6.24,17.72H219.9s-5.9-14.44-8.2-22,5-36.77,5.61-39.72,1.94-2.31,1.94,8.86v52.85h51V152.8Z"/><path class="cls-1" d="M287.5,143.61s39.07,20,42.68,22,10.5,2.63,18.06,38.08,14.76,50.88,8.2,70.91-6.24,17.72-6.24,17.72H320.66s5.9-14.44,8.2-22-5-36.77-5.6-39.72-1.94-2.31-1.94,8.86v52.85h-51V152.8Z"/><path class="cls-1" d="M286.09,122.9l-15.68-2.15-15.68,2.15s1.15,14.15-1.66,20.71c0,0,8.46,9.85,17.34,9.19,8.87.66,17.34-9.19,17.34-9.19C284.93,137.05,286.09,122.9,286.09,122.9Z"/><path class="cls-1" d="M304.17,88.19h-.67c.29-2.3.58-4.57.86-6.72,1.45-11.11,4.71-43.6-34.08-43.6s-35.53,32.49-34.07,43.6c.27,2.15.56,4.42.85,6.72h-.67c-5.9-4.36-6.4,7-3.94,10.94a23.85,23.85,0,0,1,3.31,7.13c.91,2.62,2.42,3,3.68,2.68.16,1.55.3,2.9.39,4,.54,6,14.95,18,18.22,21.76,3.06,3.52,8.16,2.15,9.79,2.07l2.44-.12,2.44.12c1.63.08,6.73,1.45,9.79-2.07,3.27-3.76,17.67-15.77,18.22-21.76.1-1.08.23-2.43.39-4,1.26.28,2.77-.06,3.68-2.68a23.85,23.85,0,0,1,3.31-7.13C310.57,95.23,310.07,83.83,304.17,88.19Z"/><path class="cls-1" d="M266.43,33.91h-.05c-.67,0-1.43,0-2.23.06-31.64,1.39-29.93,31.52-29.93,31.52h.05c-.25,7.57,1.33,15.15,2.79,22.71l.65-3.68a40.47,40.47,0,0,1,1.8-8.11c.07-.24.15-.47.23-.71a36,36,0,0,1,1.58-3.79c8.6-17.14,29-11.55,29-11.55s20.37-5.6,29,11.57a33.6,33.6,0,0,1,1.54,3.71c.09.27.19.52.27.79a40.65,40.65,0,0,1,1.79,8.09l.65,3.68c.92-4.73,1.88-9.48,2.42-14.23v-.08C309.5,48.7,302.18,32.08,266.43,33.91Z"/><path class="cls-1" d="M270.28,152.8l-12.22,14L246.44,147l6.63-3.4S262.89,151.16,270.28,152.8Z"/><path class="cls-1" d="M270.28,152.8l12.22,14L294.12,147l-6.62-3.4S277.67,151.16,270.28,152.8Z"/><polygon class="cls-2" points="264.23 159.71 268.16 166.76 262.89 201.26 270.28 213.02 270.28 152.81 264.23 159.71"/><polygon class="cls-3" points="276.33 159.71 272.41 166.76 277.67 201.26 270.28 213.02 270.28 152.81 276.33 159.71"/><path class="cls-1" d="M236.68,152.83l-1.42-.08c-10.83,5.56-22.94,11.8-24.88,12.86-3.61,2-10.5,2.63-18,38.08s-14.77,50.88-8.21,70.91,6.24,17.72,6.24,17.72h79.92v-99Zm-25,117.5c-2.31-7.55,5-36.77,5.61-39.72s1.94-2.31,1.94,8.86v51.22C217.65,286.73,213.53,276.35,211.7,270.33Z"/><path class="cls-1" d="M270.28,193.32v99H350.2s-.32,2.3,6.24-17.72-.65-35.45-8.2-70.91-14.45-36.11-18.06-38.08c-1.93-1.06-14.05-7.3-24.87-12.86l-1.43.08Zm51,97.37V239.47c0-11.17,1.31-11.82,1.94-8.86s7.91,32.17,5.6,39.72C327,276.35,322.92,286.73,321.32,290.69Z"/><path class="cls-3" d="M273.21,207.89a2.93,2.93,0,1,1-2.93-2.93A2.93,2.93,0,0,1,273.21,207.89Z"/><path class="cls-2" d="M267.36,207.89a2.92,2.92,0,0,0,2.92,2.92V205A2.92,2.92,0,0,0,267.36,207.89Z"/><path class="cls-3" d="M273.21,224.39a2.93,2.93,0,1,1-2.93-2.93A2.93,2.93,0,0,1,273.21,224.39Z"/><path class="cls-2" d="M267.36,224.39a2.92,2.92,0,0,0,2.92,2.92v-5.85A2.92,2.92,0,0,0,267.36,224.39Z"/><path class="cls-3" d="M273.21,240.88a2.93,2.93,0,1,1-2.93-2.92A2.93,2.93,0,0,1,273.21,240.88Z"/><path class="cls-2" d="M267.36,240.88a2.92,2.92,0,0,0,2.92,2.93V238A2.91,2.91,0,0,0,267.36,240.88Z"/><path class="cls-3" d="M273.21,257.38a2.93,2.93,0,1,1-2.93-2.93A2.93,2.93,0,0,1,273.21,257.38Z"/><path class="cls-2" d="M267.36,257.38a2.92,2.92,0,0,0,2.92,2.92v-5.85A2.92,2.92,0,0,0,267.36,257.38Z"/><path class="cls-3" d="M273.21,273.87a2.93,2.93,0,1,1-2.93-2.92A2.93,2.93,0,0,1,273.21,273.87Z"/><path class="cls-2" d="M267.36,273.87a2.92,2.92,0,0,0,2.92,2.93V271A2.92,2.92,0,0,0,267.36,273.87Z"/><path class="cls-1" d="M86.17,139.27s-46.81,24-51.14,26.35-12.58,3.14-21.62,45.62-17.69,61-9.84,84.95,7.48,21.24,7.48,21.24H46.44s-7.07-17.3-9.83-26.35,6-44,6.73-47.59,2.32-2.76,2.32,10.61v63.33H106.8V150.28Z"/><path class="cls-1" d="M127.43,139.27s46.81,24,51.13,26.35,12.59,3.14,21.63,45.62,17.7,61,9.84,84.95-7.47,21.24-7.47,21.24h-35.4s7.07-17.3,9.83-26.35-6-44-6.72-47.59S168,240.73,168,254.1v63.33H106.8V150.28Z"/><path class="cls-1" d="M125.74,114.44,107,111.87l-18.78,2.57s1.38,17-2,24.83c0,0,10.15,11.79,20.78,11,10.63.78,20.78-11,20.78-11C124.36,131.4,125.74,114.44,125.74,114.44Z"/><path class="cls-1" d="M147.4,72.87h-.8c.34-2.76.69-5.48,1-8.05,1.73-13.32,5.65-52.24-40.82-52.24S64.24,51.5,66,64.82c.34,2.57.68,5.29,1,8.05h-.8c-7.06-5.23-7.67,8.43-4.71,13.1,2.44,3.86,2.49,4.28,4,8.54,1.08,3.14,2.89,3.56,4.4,3.21.19,1.86.35,3.48.46,4.77.66,7.18,17.92,21.57,21.83,26.07,3.67,4.21,9.78,2.57,11.74,2.48l2.92-.14,2.92.14c2,.09,8.07,1.73,11.74-2.48,3.91-4.5,21.17-18.89,21.82-26.07.11-1.29.27-2.91.47-4.77,1.5.35,3.32-.07,4.4-3.21,1.48-4.26,1.53-4.68,4-8.54C155.07,81.3,154.47,67.64,147.4,72.87Z"/><path class="cls-4" d="M119.13,108.25a27.83,27.83,0,0,0-12.33-6,27.83,27.83,0,0,0-12.33,6c-5.2,4.72,0,13.21,0,13.21L95.61,120c-5.6-11.37,11.19-12,11.19-12s16.78.67,11.19,12l1.14,1.48S124.33,113,119.13,108.25Z"/><path class="cls-1" d="M145.82,68.46c0,2.35-4.24,21-4.95,26.88-1.35,11.27-9.44,16.51-11.79,19.1s-10.15,5.2-13.45,6.37-14.37,1.19-17.67,0S86.88,117,84.52,114.44s-10.44-7.83-11.79-19.1c-.72-5.93-5-24.53-5-26.88,0-1.58-.77-1-1.23.81.15,1.19.29,2.39.44,3.6,0,0,2.43,24.95,2.86,24.85.19,1.86.35,3.48.46,4.77a8.41,8.41,0,0,0,.57,2c.88,1.37,2.25,3.59,4,6.25,5.58,6.89,14.6,14.68,17.29,17.78,3.67,4.21,9.78,2.57,11.74,2.48l2.92-.14,2.92.14c2,.09,8.07,1.73,11.74-2.48,2.69-3.1,11.71-10.89,17.29-17.78,1.72-2.66,3.09-4.88,4-6.25a7.94,7.94,0,0,0,.56-2c.11-1.29.27-2.91.47-4.77.42.1,2.85-24.85,2.85-24.85.16-1.21.3-2.41.45-3.6C146.59,67.46,145.82,66.88,145.82,68.46Z"/><path class="cls-1" d="M139.93,2.59s1.87,5.24-37.75,5.24h-.05c-.81,0-1.71,0-2.68.08C61.54,9.58,63.6,45.67,63.6,45.67l.06,0c-.29,9.07,1.59,18.16,3.33,27.22l.79-4.41a49.6,49.6,0,0,1,2.14-9.73c.1-.28.2-.55.29-.84a43.86,43.86,0,0,1,1.89-4.54C82.41,32.82,106.8,39.5,106.8,39.5s24.41-6.69,34.71,13.88a43.11,43.11,0,0,1,1.84,4.44c.11.32.23.62.33.94a49.26,49.26,0,0,1,2.14,9.7l.78,4.41c1.09-5.68,2.25-11.36,2.89-17.06,0,0,0-.06,0-.09C153.8,25.55,139.93,2.59,139.93,2.59Z"/><path class="cls-1" d="M106.8,150.28,92.16,167,78.24,143.34l7.93-4.07S97.94,148.3,106.8,150.28Z"/><path class="cls-1" d="M106.8,150.28,121.44,167l13.93-23.65-7.94-4.07S115.65,148.3,106.8,150.28Z"/><polygon class="cls-2" points="99.56 158.55 104.26 166.99 97.94 208.33 106.8 222.41 106.8 150.28 99.56 158.55"/><polygon class="cls-3" points="114.05 158.55 109.34 166.99 115.65 208.33 106.8 222.41 106.8 150.28 114.05 158.55"/><path class="cls-1" d="M66.55,150.31l-1.71-.1c-13,6.67-27.49,14.14-29.81,15.41-4.32,2.35-12.58,3.14-21.62,45.62s-17.69,61-9.84,84.95,7.48,21.24,7.48,21.24H106.8v-95ZM36.61,291.08c-2.75-9.05,6-44,6.73-47.59s2.32-2.76,2.32,10.61v61.38C43.75,310.73,38.81,298.29,36.61,291.08Z"/><path class="cls-1" d="M106.8,222.41v95h95.76s-.4,2.75,7.47-21.24-.79-42.48-9.84-84.95-17.3-43.27-21.63-45.62c-2.31-1.27-16.82-8.74-29.8-15.41l-1.7.1ZM168,315.48V254.1c0-13.37,1.57-14.16,2.32-10.61S179.75,282,177,291.08C174.79,298.29,169.86,310.73,168,315.48Z"/><path class="cls-5" d="M224,52.89c20.06,0,36.32,12.11,36.32,27.07,0,9.69-6.85,18.16-17.11,22.94l10.05,17.34-23.52-13.59A47.16,47.16,0,0,1,224,107C204,107,187.69,94.91,187.69,80S204,52.89,224,52.89Z"/><path class="cls-3" d="M235.5,80a5.58,5.58,0,1,0,5.58-5.58A5.57,5.57,0,0,0,235.5,80Z"/><path class="cls-3" d="M218.44,80A5.58,5.58,0,1,0,224,74.38,5.57,5.57,0,0,0,218.44,80Z"/><path class="cls-2" d="M201.38,80A5.58,5.58,0,1,0,207,74.38,5.57,5.57,0,0,0,201.38,80Z"/><path class="cls-2" d="M218.44,80A5.57,5.57,0,0,0,224,85.53V74.38A5.58,5.58,0,0,0,218.44,80Z"/><path class="cls-5" d="M180.25,1c-28.76,0-52.08,17.37-52.08,38.81,0,13.89,9.82,26,24.53,32.89L138.28,97.57,172,78.09a69.36,69.36,0,0,0,8.23.54c28.76,0,52.08-17.39,52.08-38.82S209,1,180.25,1Z"/><path class="cls-2" d="M163.79,39.8a8,8,0,1,1-8-8A8,8,0,0,1,163.79,39.8Z"/><path class="cls-2" d="M188.25,39.8a8,8,0,1,1-8-8A8,8,0,0,1,188.25,39.8Z"/><path class="cls-3" d="M212.7,39.8a8,8,0,1,1-8-8A8,8,0,0,1,212.7,39.8Z"/><path class="cls-3" d="M188.25,39.8a8,8,0,0,1-8,8v-16A8,8,0,0,1,188.25,39.8Z"/></g></g></svg>